<?xml version="1.0" standalone="no"?>
<!DOCTYPE svg PUBLIC "-//W3C//DTD SVG 20010904//EN"
 "http://www.w3.org/TR/2001/REC-SVG-20010904/DTD/svg10.dtd">
<svg version="1.0" xmlns="http://www.w3.org/2000/svg"
 width="1024.000000pt" height="1024.000000pt" viewBox="0 0 1024.000000 1024.000000"
 preserveAspectRatio="xMidYMid meet">

<g transform="translate(0.000000,1024.000000) scale(0.100000,-0.100000)"
fill="#000000" stroke="none">
<path d="M4985 8784 c-266 -29 -473 -74 -679 -150 -240 -89 -400 -165 -561
-269 -44 -28 -99 -64 -122 -78 -120 -76 -374 -307 -514 -467 -63 -73 -205
-260 -266 -350 -59 -88 -126 -215 -189 -359 -36 -80 -78 -171 -94 -202 -41
-80 -72 -204 -99 -399 l-6 -45 -625 -3 -625 -3 -33 35 c-40 42 -80 53 -121 32
-36 -19 -81 -91 -81 -130 0 -16 -4 -25 -10 -21 -6 4 -10 -5 -10 -19 0 -14 5
-26 11 -26 5 0 7 -4 4 -10 -3 -5 -2 -10 4 -10 5 0 16 -7 24 -15 9 -8 40 -18
71 -21 50 -6 60 -4 96 20 22 14 50 27 62 27 50 2 546 -12 583 -17 22 -3 175
-9 340 -14 280 -9 471 -5 479 9 2 3 11 57 21 120 21 147 72 345 128 497 50
136 82 202 171 352 35 59 71 122 81 141 29 58 144 201 259 325 372 397 815
660 1326 787 170 42 502 72 710 64 194 -7 463 -38 573 -65 102 -25 293 -85
387 -122 138 -53 363 -165 431 -214 26 -19 50 -34 53 -34 10 0 131 -83 188
-128 26 -20 93 -80 150 -132 410 -378 654 -809 782 -1380 14 -63 30 -131 36
-151 l10 -36 198 -6 c108 -4 298 -2 422 3 124 5 358 9 521 10 l295 0 34 -25
c52 -39 93 -42 139 -12 87 58 92 176 8 227 -55 34 -110 21 -141 -32 l-18 -30
-649 4 -648 3 -6 40 c-37 236 -149 564 -267 785 -67 126 -217 358 -287 444
-161 199 -419 434 -635 579 -203 136 -503 275 -771 356 -122 37 -337 87 -442
101 -78 11 -623 22 -698 14z"/>
<path d="M4648 8081 c-14 -11 -37 -48 -53 -82 -30 -68 -30 -130 1 -177 9 -13
11 -22 6 -18 -16 10 -24 -11 -12 -33 15 -28 70 -36 152 -21 54 9 76 19 102 43
18 18 35 38 37 45 3 10 23 11 94 2 50 -5 286 -10 526 -10 420 0 437 1 462 20
26 21 43 77 32 111 -7 20 -15 20 -562 18 l-555 -1 -33 50 c-37 53 -71 72 -135
72 -22 0 -48 -8 -62 -19z"/>
<path d="M2330 8041 c-98 -22 -171 -81 -224 -183 -55 -102 -61 -144 -34 -231
17 -59 30 -81 72 -122 106 -106 234 -112 384 -19 145 91 198 242 132 378 -26
54 -102 130 -154 155 -48 23 -126 33 -176 22z m146 -196 c37 -28 64 -77 64
-116 0 -29 -43 -85 -80 -104 -42 -22 -112 -19 -155 6 -68 40 -84 116 -39 183
49 71 140 85 210 31z"/>
<path d="M8052 7948 c-17 -17 -15 -74 4 -92 20 -21 58 -20 79 0 11 11 15 30
13 58 -3 40 -4 41 -43 44 -23 2 -46 -3 -53 -10z"/>
<path d="M8344 7947 c-3 -8 -4 -34 -2 -58 3 -44 3 -44 44 -47 51 -4 66 13 62
70 l-3 43 -48 3 c-34 2 -49 -1 -53 -11z"/>
<path d="M8606 7935 c-20 -52 8 -95 62 -95 37 0 55 25 50 73 -3 31 -5 32 -54
35 -40 2 -53 -1 -58 -13z"/>
<path d="M8900 7912 c0 -34 16 -52 46 -52 17 0 24 8 29 30 9 40 0 50 -41 50
-31 0 -34 -3 -34 -28z"/>
<path d="M8058 7669 c-23 -13 -24 -72 -2 -94 42 -41 109 14 88 72 -7 21 -17
29 -39 30 -17 2 -38 -2 -47 -8z"/>
<path d="M8633 7670 c-16 -6 -23 -18 -23 -35 0 -44 17 -65 53 -65 41 0 57 15
57 55 0 51 -32 67 -87 45z"/>
<path d="M8334 7656 c-3 -8 -4 -31 -2 -52 3 -37 5 -39 41 -42 21 -2 45 2 53 9
17 14 19 70 2 87 -17 17 -87 15 -94 -2z"/>
<path d="M8882 7661 c-8 -5 -12 -23 -10 -47 3 -34 6 -39 28 -39 23 0 25 4 25
45 0 46 -15 60 -43 41z"/>
<path d="M5416 7403 c-6 -53 -12 -973 -8 -1233 2 -91 0 -430 -3 -755 -3 -324
-2 -653 2 -730 l8 -140 105 -7 c212 -16 376 -23 402 -20 l26 4 6 581 c8 685
11 763 33 772 24 9 33 -13 33 -85 0 -36 3 -82 6 -102 l7 -38 122 0 122 0 41
-44 c22 -24 43 -42 45 -40 3 3 7 -6 11 -20 3 -14 19 -33 36 -43 16 -9 25 -20
20 -23 -15 -9 40 -62 57 -55 12 4 13 2 6 -7 -16 -19 1 -52 39 -79 57 -41 79
-63 74 -75 -3 -7 2 -15 10 -18 8 -3 14 -13 14 -21 0 -9 4 -13 10 -10 5 3 7 0
4 -8 -3 -8 6 -21 20 -31 15 -9 26 -21 26 -27 0 -6 16 -33 35 -59 19 -26 35
-52 35 -58 0 -15 111 -123 120 -117 4 3 10 -6 14 -18 3 -13 21 -40 41 -60 19
-20 35 -42 35 -50 0 -7 12 -24 26 -38 35 -32 124 -145 124 -156 0 -16 64 -79
95 -94 17 -8 39 -14 50 -12 23 4 27 11 150 240 51 94 102 185 114 201 11 17
21 41 21 55 0 26 -87 146 -219 302 -42 50 -103 124 -136 165 -32 41 -87 104
-121 140 -34 36 -74 83 -88 104 l-26 39 65 28 c183 77 360 261 443 461 36 85
72 252 72 330 0 85 -37 279 -49 259 -4 -6 -7 5 -7 25 0 20 -6 39 -14 45 -8 5
-12 9 -7 9 9 0 -19 70 -34 85 -7 7 -9 5 -7 -5 2 -8 -3 -14 -9 -12 -7 1 -13 -7
-13 -18 0 -24 -6 -25 -26 -6 -7 8 -32 17 -54 21 -25 4 -40 12 -40 21 0 8 -9
14 -20 14 -11 0 -20 4 -20 9 0 5 -13 11 -30 15 -18 3 -30 12 -30 21 0 22 -18
38 -66 63 -21 11 -47 29 -57 40 -11 11 -36 24 -58 27 -24 4 -39 12 -39 21 0 8
-4 14 -10 14 -5 0 -10 7 -10 15 0 8 -9 15 -20 15 -11 0 -20 5 -20 11 0 6 -9 8
-20 4 -16 -5 -20 -2 -20 14 0 14 -6 21 -20 21 -15 0 -20 7 -20 25 0 21 -5 25
-30 25 -27 0 -30 3 -30 34 0 19 6 37 13 40 6 2 -7 3 -30 1 -28 -3 -43 -1 -43
6 0 8 26 10 88 6 70 -5 80 -4 52 5 -23 7 -265 11 -715 12 -374 0 -685 4 -692
9 -8 5 -13 -8 -17 -40z m1242 10 c-10 -2 -26 -2 -35 0 -10 3 -2 5 17 5 19 0
27 -2 18 -5z m137 -496 c22 -8 42 -11 43 -6 5 12 36 11 67 -3 16 -7 25 -20 26
-37 1 -14 2 -33 3 -43 1 -9 4 -20 9 -24 4 -4 7 -11 7 -16 0 -5 -19 10 -42 32
-59 57 -115 88 -190 105 l-63 15 50 -4 c28 -2 68 -10 90 -19z m-93 -51 c17 -9
34 -13 39 -10 5 3 9 0 9 -6 0 -6 3 -9 8 -7 4 2 21 -2 37 -9 17 -7 24 -13 17
-14 -8 0 10 -20 40 -45 60 -50 78 -70 78 -85 0 -5 4 -10 9 -10 16 0 34 -101
28 -166 -9 -117 -74 -212 -184 -267 -47 -24 -53 -25 -403 -30 -195 -3 -367 -9
-382 -12 -24 -6 -29 -3 -38 20 -11 29 -14 554 -4 617 l7 38 206 3 c325 6 497
0 533 -17z m308 -179 c0 -16 -18 3 -23 25 -6 22 -5 22 8 4 8 -11 15 -24 15
-29z m17 -164 c-2 -21 -4 -4 -4 37 0 41 2 58 4 38 2 -21 2 -55 0 -75z m-1220
-339 c81 -64 118 -198 75 -269 -45 -73 -121 -125 -184 -125 -36 0 -99 29 -136
64 -106 96 -73 278 63 351 48 26 136 16 182 -21z"/>
<path d="M5625 6055 c-67 -66 16 -171 107 -136 28 11 41 29 52 73 4 20 0 34
-20 57 -22 26 -33 31 -70 31 -34 0 -51 -6 -69 -25z"/>
<path d="M3965 7430 c-300 -8 -349 -16 -490 -86 -166 -81 -333 -278 -412 -484
-20 -52 -40 -100 -45 -106 -15 -20 -38 -163 -38 -237 0 -72 16 -172 44 -281
18 -70 77 -196 100 -215 9 -7 16 -18 16 -23 0 -5 34 -50 76 -99 65 -77 87 -95
153 -128 138 -69 208 -84 486 -101 281 -18 360 -28 425 -54 76 -31 108 -56
138 -109 32 -55 62 -165 62 -224 0 -72 -51 -141 -135 -187 -38 -20 -52 -21
-326 -21 l-286 0 -42 30 c-63 43 -105 97 -173 220 -33 61 -62 112 -63 113 -2
2 -50 -21 -107 -51 -57 -31 -132 -65 -166 -77 -35 -11 -88 -35 -118 -51 -62
-36 -66 -48 -34 -131 11 -28 17 -54 15 -56 -3 -3 1 -12 8 -20 10 -13 9 -14 -3
-7 -13 8 -13 7 0 -9 8 -10 16 -35 17 -56 4 -67 95 -200 208 -307 82 -78 117
-103 195 -141 l95 -46 366 2 c354 2 369 3 464 27 107 27 176 63 331 172 56 40
111 88 141 126 80 101 159 243 190 342 24 80 27 106 27 235 1 121 -3 160 -23
235 -75 287 -291 506 -567 575 -64 16 -138 21 -386 29 -351 11 -345 10 -438
101 -77 74 -112 145 -118 235 -8 127 45 215 171 289 l47 28 238 -4 238 -3 27
-26 c15 -14 49 -38 75 -54 43 -26 152 -142 152 -162 0 -13 66 -113 89 -134 11
-11 25 -19 30 -19 22 0 297 148 479 257 22 13 -142 305 -231 411 -134 159
-358 275 -547 285 -47 2 -206 1 -355 -3z"/>
<path d="M6888 7403 c7 -3 16 -2 19 1 4 3 -2 6 -13 5 -11 0 -14 -3 -6 -6z"/>
<path d="M6938 7368 c5 -5 16 -8 23 -6 8 3 3 7 -10 11 -17 4 -21 3 -13 -5z"/>
<path d="M6994 7365 c11 -8 26 -15 33 -15 22 0 14 8 -19 19 -30 10 -31 9 -14
-4z"/>
<path d="M7170 7277 c0 -3 21 -22 48 -43 26 -21 38 -28 27 -15 -21 24 -75 66
-75 58z"/>
<path d="M7320 7136 c0 -2 8 -10 18 -17 15 -13 16 -12 3 4 -13 16 -21 21 -21
13z"/>
<path d="M8724 6910 c-32 -13 -82 -76 -93 -117 -15 -52 -14 -63 8 -105 11 -19
17 -39 13 -44 -4 -4 -1 -4 6 0 6 4 12 3 12 -2 0 -14 69 -42 106 -42 45 0 83
20 122 64 37 42 48 92 33 139 -12 34 -59 86 -98 106 -25 13 -79 14 -109 1z"/>
<path d="M1740 6903 c-104 -39 -140 -167 -71 -253 17 -21 31 -46 31 -54 0 -34
81 -31 152 5 50 25 88 91 88 151 0 98 -113 183 -200 151z"/>
<path d="M7981 6155 c3 -2 138 -5 301 -5 163 -1 298 -5 300 -9 2 -5 37 -3 78
4 67 12 35 13 -304 14 -209 1 -377 -1 -375 -4z"/>
<path d="M2260 6123 c1 -25 2 -26 11 -9 9 14 13 16 20 5 6 -11 12 -11 34 1 23
12 28 12 35 0 7 -11 10 -12 10 -2 0 7 6 12 13 11 6 -1 19 0 27 1 24 4 -60 19
-107 19 -40 1 -43 -1 -43 -26z"/>
<path d="M2530 6027 c-8 -7 -684 -17 -1121 -17 l-407 0 -12 -30 c-19 -46 -6
-78 33 -84 116 -18 1582 -24 1600 -7 4 5 7 37 5 72 l-3 64 -45 3 c-25 2 -48 1
-50 -1z"/>
<path d="M7958 6014 c-5 -4 -8 -33 -8 -64 l0 -58 453 -6 c270 -5 571 -3 747 3
162 6 321 11 353 11 69 0 97 21 97 75 l0 35 -357 0 c-197 1 -565 3 -818 6
-253 3 -463 2 -467 -2z"/>
<path d="M1043 5767 c-44 -25 -68 -68 -68 -123 0 -29 -3 -50 -7 -47 -5 2 -8
11 -8 19 0 8 -4 14 -10 14 -5 0 -10 -11 -10 -25 0 -16 6 -25 16 -25 8 0 13 -4
9 -10 -7 -12 39 -35 87 -44 44 -8 98 12 121 44 13 18 22 21 49 16 18 -3 135
-6 261 -7 127 0 227 -5 227 -10 0 -14 58 -11 63 4 4 9 8 9 15 -2 8 -11 21 -12
64 -5 29 5 151 9 270 9 l217 0 29 -28 c38 -36 55 -83 86 -229 31 -149 116
-367 163 -419 21 -23 36 -52 40 -76 6 -37 20 -68 65 -143 11 -19 41 -69 66
-110 30 -51 60 -86 93 -110 27 -19 49 -41 49 -49 0 -8 3 -11 7 -8 3 4 15 -12
25 -36 17 -37 90 -117 108 -117 14 0 52 -39 46 -48 -13 -21 -165 -25 -1097
-31 -1056 -7 -1009 -4 -1009 -60 1 -60 -60 -56 872 -53 469 2 948 1 1064 -3
209 -7 212 -7 224 -31 7 -12 41 -44 76 -69 34 -26 80 -65 102 -88 47 -51 157
-147 169 -147 4 0 20 -13 35 -28 32 -33 244 -154 468 -268 123 -62 411 -152
580 -180 245 -41 251 -42 453 -49 239 -8 578 18 772 59 113 24 449 137 576
194 24 11 64 28 89 39 78 34 332 183 412 242 267 196 443 346 519 442 l31 39
-28 36 c-43 54 -51 67 -58 90 -6 19 -3 20 46 16 32 -2 62 -12 78 -24 l25 -20
41 46 c163 179 346 500 434 762 40 116 111 369 119 421 l6 43 640 3 640 2 29
-22 c52 -41 128 -26 167 33 71 108 -71 245 -162 155 l-29 -30 -613 5 c-336 2
-664 6 -728 8 l-117 4 -11 -41 c-6 -23 -18 -85 -26 -137 -8 -52 -24 -129 -35
-171 -25 -97 -107 -344 -130 -389 -101 -202 -178 -340 -266 -473 -88 -133
-108 -156 -120 -146 -8 6 -16 10 -17 8 -71 -100 -205 -237 -337 -345 -388
-316 -792 -505 -1265 -590 -242 -43 -646 -44 -905 -3 -83 14 -315 71 -421 105
-252 80 -526 235 -799 452 -173 139 -271 234 -371 362 -362 460 -508 764 -591
1228 l-23 132 -530 -1 c-291 -1 -613 -4 -715 -8 -164 -5 -186 -4 -197 10 -15
20 -75 49 -100 49 -10 -1 -28 -6 -40 -13z"/>
<path d="M8735 5441 c-39 -17 -85 -75 -110 -140 -14 -37 -25 -72 -25 -79 0
-24 30 -72 46 -72 8 0 38 -12 66 -26 59 -30 98 -28 154 6 46 29 74 86 74 150
0 62 -18 100 -65 136 -37 28 -105 40 -140 25z m98 -145 c21 -63 -18 -97 -82
-70 -25 11 -31 19 -31 44 0 23 7 35 31 49 39 24 69 15 82 -23z"/>
<path d="M1689 5406 c-23 -16 -44 -43 -57 -74 -12 -27 -27 -54 -35 -60 -9 -8
-15 -35 -16 -72 -1 -52 2 -63 26 -90 30 -32 87 -49 120 -35 10 5 31 10 47 12
73 11 147 72 165 138 18 66 -21 158 -79 187 -52 26 -127 23 -171 -6z m61 -157
c0 -8 13 -10 38 -6 34 6 35 5 18 -8 -24 -18 -58 -19 -74 -3 -16 16 -15 28 3
28 8 0 15 -5 15 -11z"/>
<path d="M1198 4428 c-23 -8 -28 -16 -28 -44 0 -82 92 -101 119 -24 13 38 5
59 -26 71 -28 11 -30 11 -65 -3z"/>
<path d="M2355 4427 c-21 -16 -16 -55 11 -81 31 -32 116 -14 136 29 8 17 19
25 37 25 19 1 11 6 -29 20 -63 23 -128 26 -155 7z"/>
<path d="M1653 4414 c-8 -22 8 -64 29 -78 27 -17 70 4 85 42 13 31 12 33 -13
42 -40 16 -94 12 -101 -6z"/>
<path d="M2016 4421 c-113 -6 -131 -14 -100 -45 12 -13 34 -17 83 -17 36 0 94
-1 129 -2 64 -1 84 8 89 42 2 14 -6 20 -35 25 -20 3 -41 5 -47 4 -5 -1 -59 -4
-119 -7z"/>
<path d="M7995 4401 c-71 -33 -147 -110 -177 -179 -15 -32 -24 -81 -29 -154
-8 -103 -7 -110 17 -158 26 -52 70 -100 91 -100 7 0 13 -4 13 -9 0 -19 99 -51
159 -51 114 0 256 80 321 181 63 98 74 167 44 269 -22 73 -134 188 -208 213
-78 26 -160 22 -231 -12z m214 -168 c89 -67 101 -185 26 -252 -72 -63 -158
-65 -226 -4 -42 38 -72 113 -62 155 8 30 48 84 79 105 54 35 132 33 183 -4z"/>
<path d="M4633 4123 c-51 -5 -58 -16 -66 -99 -8 -82 -1 -87 120 -92 81 -3 104
0 150 19 51 21 68 22 366 22 292 0 317 -1 391 -22 148 -41 300 -26 368 36 23
21 24 84 1 111 -18 20 -29 21 -653 25 -349 3 -654 3 -677 0z"/>
<path d="M1167 3864 c-22 -12 -28 -21 -25 -42 3 -26 5 -27 63 -26 33 0 76 2
95 3 19 2 73 -2 120 -8 93 -13 1156 -9 1198 4 35 11 26 55 -13 69 -40 14
-1227 10 -1271 -4 -23 -8 -40 -7 -67 5 -45 19 -64 18 -100 -1z"/>
<path d="M2825 2856 c-123 -39 -204 -110 -280 -247 -47 -82 -55 -105 -55 -148
0 -71 59 -181 97 -181 7 0 13 -4 13 -8 0 -11 130 -66 205 -87 61 -17 140 -52
186 -83 14 -9 45 -28 67 -42 23 -14 42 -30 42 -36 0 -15 -61 -75 -88 -85 -39
-15 -126 -10 -185 10 -56 20 -109 52 -177 110 l-35 30 -63 -62 c-35 -34 -68
-71 -73 -82 -5 -11 -18 -33 -28 -50 -21 -33 -27 -60 -11 -50 5 3 15 -5 21 -18
6 -13 23 -30 39 -38 15 -8 59 -31 97 -51 105 -55 172 -72 262 -64 157 13 349
143 417 282 38 77 41 195 7 260 -39 73 -126 134 -243 168 -30 8 -94 27 -142
41 -111 32 -148 62 -148 117 0 32 6 46 32 69 18 17 34 26 37 20 16 -26 258
-63 333 -50 9 1 44 33 77 70 l60 67 -53 35 c-157 104 -296 139 -411 103z"/>
<path d="M3534 2848 c-3 -4 -7 -171 -9 -370 -3 -200 -9 -385 -13 -412 -5 -27
-7 -57 -5 -67 3 -10 -2 -48 -10 -86 -8 -37 -18 -98 -22 -134 -6 -63 -5 -67 20
-83 20 -13 37 -16 66 -11 21 4 41 11 45 16 3 5 20 16 37 25 80 38 73 15 72
230 0 106 3 195 6 198 3 3 25 -4 50 -16 24 -11 59 -22 78 -24 43 -3 53 -14 54
-58 1 -21 4 -31 9 -23 5 7 8 2 8 -14 0 -14 11 -43 25 -63 14 -20 25 -40 25
-43 0 -4 7 -14 15 -23 9 -10 24 -40 34 -67 21 -58 78 -139 103 -146 23 -6 109
12 128 28 21 17 80 45 96 45 30 0 19 25 -70 156 -104 155 -176 271 -176 282 1
4 26 23 57 42 107 67 163 168 163 294 -1 135 -105 262 -253 308 -53 16 -97 19
-295 22 -128 1 -235 -2 -238 -6z m266 -230 c97 -8 205 -46 255 -90 23 -21 45
-34 49 -31 15 16 4 -56 -14 -85 -29 -47 -77 -64 -215 -74 -165 -12 -165 -11
-165 61 0 91 12 243 19 233 3 -5 35 -11 71 -14z"/>
<path d="M4985 2823 c-4 -21 -10 -261 -15 -535 -5 -358 -11 -502 -19 -512 -9
-10 -9 -16 -1 -21 7 -5 5 -11 -7 -20 -15 -11 -16 -16 -5 -27 20 -20 319 -17
397 5 116 33 303 144 387 230 63 64 126 191 140 285 9 54 9 94 0 158 -21 159
-91 269 -227 359 -141 93 -239 115 -506 115 l-137 0 -7 -37z m231 -193 c12
-12 174 -40 187 -33 4 2 19 -5 33 -16 15 -12 32 -21 38 -21 19 0 123 -112 145
-156 52 -101 33 -254 -42 -340 -71 -81 -162 -117 -320 -127 l-79 -6 2 92 c1
51 4 210 7 355 3 144 9 262 12 262 4 0 12 -5 17 -10z"/>
<path d="M6091 2797 c-7 -39 -11 -225 -12 -473 -1 -225 -5 -395 -9 -379 -8 30
-8 29 -11 -10 -4 -58 -5 -68 -13 -86 -4 -8 -8 -42 -9 -74 -2 -57 -1 -58 28
-67 46 -12 477 -8 595 7 58 7 123 20 145 28 l40 15 0 94 0 93 -277 -4 -278 -4
0 69 c0 38 3 99 7 137 5 55 8 65 20 56 9 -9 25 -9 56 -1 23 6 92 14 152 17 61
3 136 9 168 12 l58 6 -3 86 -3 86 -228 0 -227 0 0 116 c0 64 2 118 4 120 3 2
49 1 103 -2 121 -8 334 4 388 22 l40 14 0 90 0 90 -361 3 -362 2 -11 -63z"/>
<path d="M6981 2770 c0 -46 5 -90 10 -97 6 -7 8 -16 5 -21 -3 -5 15 -25 40
-46 24 -20 42 -42 39 -47 -4 -5 -1 -9 5 -9 6 0 8 -4 5 -10 -3 -5 0 -10 7 -10
11 0 10 -2 0 -9 -11 -7 -11 -9 2 -14 12 -5 15 -14 11 -30 -4 -15 -1 -30 9 -39
8 -9 20 -38 27 -64 6 -27 16 -53 20 -58 5 -6 9 -18 9 -28 0 -10 6 -21 14 -24
8 -3 19 -17 24 -32 6 -15 14 -36 18 -47 4 -11 6 -26 5 -34 -1 -7 2 -10 7 -7 5
3 8 -11 6 -32 -2 -22 4 -47 13 -62 9 -13 17 -35 19 -50 2 -14 19 -74 39 -134
19 -60 35 -115 35 -122 0 -44 147 -42 164 2 3 8 17 14 31 14 18 0 28 8 36 28
6 15 46 104 89 197 107 235 135 301 161 370 12 33 28 69 35 80 7 11 24 50 38
88 28 74 104 229 142 289 13 20 24 40 24 43 0 3 -49 5 -110 5 l-110 0 -40 -80
c-22 -44 -54 -115 -71 -157 -17 -43 -37 -91 -44 -108 -38 -84 -156 -394 -182
-479 -10 -31 -17 -12 -174 424 -33 91 -83 218 -112 283 l-52 118 -96 -3 -97
-3 -1 -85z m79 -160 c0 -5 -2 -10 -4 -10 -3 0 -8 5 -11 10 -3 6 -1 10 4 10 6
0 11 -4 11 -10z"/>
<path d="M1955 2494 c-37 -19 -65 -52 -65 -79 0 -32 46 -122 69 -134 32 -17
66 -13 88 12 28 30 53 81 53 108 0 35 -38 86 -72 98 -39 14 -37 14 -73 -5z"/>
<path d="M8358 2461 c-33 -33 -38 -44 -32 -68 10 -45 50 -99 84 -113 29 -12
33 -11 68 17 77 62 89 123 35 177 -20 20 -36 26 -71 26 -38 0 -50 -5 -84 -39z"/>
</g>
</svg>
