<?xml version="1.0" standalone="no"?>
<!DOCTYPE svg PUBLIC "-//W3C//DTD SVG 20010904//EN"
 "http://www.w3.org/TR/2001/REC-SVG-20010904/DTD/svg10.dtd">
<svg version="1.0" xmlns="http://www.w3.org/2000/svg"
 width="2048.000000pt" height="2048.000000pt" viewBox="0 0 2048.000000 2048.000000"
 preserveAspectRatio="xMidYMid meet">

<g transform="translate(0.000000,2048.000000) scale(0.100000,-0.100000)"
fill="#000000" stroke="none">
<path d="M16220 15264 c-19 -1 -143 -8 -275 -14 -132 -6 -377 -20 -545 -30
-303 -20 -736 -40 -1235 -60 -143 -5 -327 -14 -410 -20 -82 -5 -256 -14 -385
-20 -129 -6 -325 -15 -435 -20 -110 -5 -324 -14 -475 -20 -283 -10 -515 -23
-750 -40 -74 -6 -290 -17 -480 -25 -190 -9 -534 -27 -765 -40 -231 -14 -591
-34 -800 -45 -209 -11 -492 -26 -630 -35 -137 -8 -446 -24 -685 -35 -398 -18
-632 -30 -1460 -75 -359 -20 -402 -30 -516 -121 -52 -41 -115 -166 -143 -279
-11 -44 -25 -152 -31 -240 -6 -88 -13 -178 -16 -200 -3 -22 -6 -62 -7 -90 -1
-27 -6 -56 -10 -62 -5 -7 -7 -37 -7 -65 1 -29 -8 -159 -19 -288 -12 -129 -26
-305 -31 -390 -6 -85 -12 -173 -15 -195 -9 -68 -24 -240 -40 -460 -9 -115 -23
-287 -31 -381 -20 -231 -53 -676 -64 -859 -5 -82 -14 -190 -19 -240 -6 -49
-22 -232 -35 -405 -27 -338 -40 -496 -56 -655 -5 -55 -14 -167 -19 -250 -27
-418 -42 -628 -51 -700 -5 -44 -14 -161 -20 -260 -6 -99 -14 -209 -20 -245 -5
-36 -14 -146 -19 -245 -6 -99 -13 -207 -16 -240 -2 -33 -5 -67 -5 -75 -1 -8
-6 -53 -11 -100 -6 -47 -14 -152 -19 -235 -6 -82 -15 -230 -22 -329 -13 -194
-4 -330 25 -398 l16 -37 178 0 c98 0 250 -5 338 -10 88 -5 251 -15 363 -22
l203 -12 -31 -32 c-18 -18 -28 -35 -23 -38 19 -12 162 -22 918 -67 88 -6 239
-17 335 -25 96 -8 263 -19 370 -25 107 -6 272 -17 365 -25 94 -8 231 -17 305
-20 74 -3 189 -10 255 -15 66 -5 253 -16 415 -25 162 -8 313 -17 335 -20 22
-3 157 -12 300 -20 143 -8 361 -22 485 -30 124 -8 304 -19 400 -25 96 -6 292
-20 435 -30 143 -11 418 -29 610 -40 193 -11 472 -29 620 -40 149 -11 396 -27
550 -35 376 -20 437 -24 670 -41 170 -12 592 -38 800 -50 33 -1 80 -6 105 -10
25 -3 69 -8 98 -9 29 -2 83 -12 120 -23 37 -11 84 -23 105 -27 45 -7 48 -28 7
-45 -16 -7 -41 -23 -55 -36 -20 -18 -24 -29 -19 -53 5 -22 3 -31 -7 -32 -85
-7 -117 -18 -49 -17 23 0 47 -5 53 -11 15 -15 67 -14 73 2 8 22 62 9 67 -17 4
-19 4 -18 6 4 2 23 3 24 11 5 l9 -20 0 20 c1 16 3 17 10 6 8 -13 12 -13 26 -1
9 8 43 14 78 15 34 1 80 7 102 13 22 6 79 12 128 12 51 0 87 4 87 10 0 16 76
12 90 -5 14 -16 40 -20 40 -6 0 5 -6 11 -12 14 -7 2 -9 8 -5 13 4 5 12 3 16
-4 8 -13 46 -13 68 1 16 10 20 -9 12 -67 -4 -28 -5 -69 -2 -91 2 -22 0 -51 -6
-65 l-11 -25 5 28 c3 15 2 26 -2 25 -5 -1 -18 1 -30 6 -17 5 -23 15 -23 37 0
16 4 29 9 29 5 0 7 10 4 23 -4 18 -3 19 6 7 9 -13 11 -12 11 4 0 12 -5 16 -16
12 -9 -3 -20 -6 -25 -6 -5 0 -9 -7 -9 -15 0 -12 -4 -13 -19 -3 -15 9 -29 7
-71 -11 -28 -12 -63 -21 -78 -20 -57 4 -72 -1 -78 -25 -4 -17 -15 -27 -35 -31
-16 -4 -29 -11 -29 -16 0 -6 -15 -7 -35 -3 -23 4 -35 2 -35 -5 0 -6 -7 -11
-16 -11 -11 0 -14 -5 -10 -16 5 -13 2 -15 -13 -11 -13 3 -18 0 -15 -8 7 -17
-22 -44 -54 -51 -59 -13 -107 -33 -105 -43 2 -6 -5 -7 -14 -4 -11 4 -13 8 -5
11 10 3 18 32 10 32 -15 -1 -136 -44 -180 -64 -31 -14 -59 -26 -62 -26 -3 0
-43 -18 -90 -40 -46 -22 -87 -40 -90 -40 -5 0 -61 -25 -182 -81 -33 -15 -83
-37 -110 -47 -27 -11 -80 -34 -119 -52 -38 -17 -86 -38 -105 -46 -19 -8 -43
-19 -52 -24 -40 -22 -96 -47 -168 -75 -25 -10 -73 -31 -108 -46 -35 -16 -65
-29 -67 -29 -11 0 -115 -51 -119 -59 -3 -5 -17 -12 -32 -15 -14 -4 -59 -22
-101 -41 -41 -19 -79 -35 -85 -35 -12 0 -91 -35 -238 -103 -96 -45 -289 -121
-365 -144 -27 -9 -59 -19 -70 -24 -17 -6 -16 -8 10 -9 26 -1 27 -3 10 -10 -11
-5 -14 -9 -7 -9 7 -1 12 -17 12 -45 0 -23 5 -58 11 -76 9 -26 9 -34 -2 -41
-11 -7 -12 -12 -1 -29 6 -11 12 -27 12 -35 0 -8 6 -15 13 -16 6 -1 1 -4 -12
-8 l-24 -7 26 -17 c32 -21 69 -13 40 9 -14 11 -15 13 -3 13 8 0 23 -6 33 -14
18 -13 16 -15 -24 -34 -23 -12 -51 -21 -61 -21 -11 0 -17 -4 -14 -9 7 -11
-127 -37 -259 -50 -189 -20 -369 -24 -530 -12 -212 16 -486 39 -610 51 -55 6
-251 24 -435 41 -184 16 -357 32 -385 34 -27 3 -149 14 -270 26 -121 11 -287
27 -370 35 -161 16 -728 70 -1095 104 -124 11 -346 32 -495 46 -148 14 -343
32 -432 40 -228 20 -1051 99 -1338 128 -275 29 -894 87 -1290 121 -148 13
-389 35 -535 50 -146 14 -380 37 -520 51 -140 14 -376 36 -525 49 -148 14
-331 31 -405 40 -180 21 -853 85 -1555 150 -93 8 -233 22 -310 30 -77 8 -205
19 -285 25 -80 6 -189 16 -243 21 -53 6 -102 7 -109 3 -17 -11 69 -31 207 -49
153 -20 287 -45 300 -56 5 -6 2 -9 -8 -9 -26 0 -126 -60 -143 -86 -21 -32 -5
-58 52 -83 54 -24 197 -51 272 -51 29 0 83 -5 120 -10 37 -6 126 -17 197 -25
72 -8 200 -24 285 -35 85 -11 202 -23 260 -25 144 -7 316 -24 343 -34 12 -4
44 -9 71 -10 27 -1 70 -6 95 -11 25 -5 96 -11 156 -15 152 -8 304 -23 410 -40
117 -19 331 -41 520 -55 83 -6 179 -17 215 -25 92 -19 235 -35 319 -35 94 0
262 -18 541 -59 74 -11 174 -20 222 -21 48 0 119 -7 158 -15 72 -15 259 -31
455 -39 138 -6 311 -24 350 -37 28 -9 167 -23 491 -48 72 -6 142 -14 155 -19
33 -13 337 -45 355 -38 19 7 371 -32 393 -44 20 -10 255 -30 359 -30 76 0 209
-13 317 -32 140 -24 266 -37 355 -38 89 0 268 -18 405 -40 79 -12 254 -28 390
-35 127 -6 248 -19 320 -34 70 -14 247 -31 325 -31 80 -1 324 -25 338 -34 14
-8 251 -35 407 -46 66 -4 165 -13 220 -19 55 -6 174 -16 264 -22 91 -6 190
-15 220 -20 126 -21 312 -39 397 -39 51 0 127 -7 170 -15 128 -23 927 -30
1104 -9 74 9 167 19 205 21 39 3 74 9 80 14 5 5 21 9 37 9 15 0 51 11 80 24
29 13 63 27 76 31 12 3 22 11 22 16 0 5 7 9 15 9 8 0 15 4 15 9 0 4 21 18 48
30 26 12 67 32 92 46 25 13 67 28 94 34 61 14 115 39 142 65 29 29 139 96 156
96 8 0 23 9 35 19 11 10 53 31 93 45 90 33 124 52 166 94 25 24 42 32 69 32
19 0 35 4 35 10 0 5 35 26 78 46 42 20 79 40 82 44 3 3 33 17 68 29 34 13 65
28 68 32 3 5 16 9 28 9 13 0 29 7 36 15 7 8 18 15 25 15 8 0 27 11 43 25 17
14 35 25 41 25 6 0 11 3 11 8 0 4 29 18 65 30 36 13 67 28 71 33 3 5 16 9 30
9 22 0 62 17 74 31 3 3 23 12 45 19 22 7 51 23 65 35 14 13 38 27 53 31 16 3
34 15 40 25 7 11 23 19 37 19 14 0 31 5 36 10 9 9 65 25 155 44 14 3 36 15 49
26 13 11 32 20 42 20 10 0 31 8 46 17 40 25 171 163 189 198 8 16 31 45 50 63
29 28 34 39 31 70 -3 36 -6 39 -88 79 -47 23 -116 52 -154 65 -37 12 -71 28
-73 35 -3 7 -14 13 -24 13 -10 0 -48 10 -84 21 l-65 22 27 16 c16 9 90 45 165
80 143 66 172 88 183 134 6 24 5 27 -14 24 -26 -4 -71 -46 -71 -66 -1 -36 -16
11 -19 55 -3 61 8 112 20 93 7 -12 9 -11 9 2 0 8 -5 20 -12 27 -9 9 -7 13 5
18 9 3 15 10 12 14 -3 5 -18 3 -33 -5 -62 -31 -82 -38 -88 -33 -3 4 4 9 15 13
12 3 21 10 21 15 0 10 81 43 88 36 3 -3 15 5 27 19 13 13 26 21 29 18 3 -4 6
-30 6 -60 0 -29 4 -53 9 -53 4 0 20 17 33 38 34 51 70 122 62 122 -4 0 1 9 11
20 10 11 14 20 8 20 -5 0 -24 -16 -42 -35 -38 -43 -58 -37 -31 8 54 91 55 101
90 927 11 261 25 563 31 670 13 259 32 657 74 1585 19 424 39 851 45 950 5 99
14 275 20 390 6 116 17 325 25 465 16 272 49 934 90 1795 32 675 42 866 60
1205 42 788 41 875 -11 990 -31 69 -99 139 -174 177 -53 26 -62 28 -210 29
-85 1 -171 0 -190 -2z m270 -436 c0 -18 -7 -172 -15 -343 -8 -170 -15 -331
-15 -356 l0 -46 -192 -7 c-106 -4 -310 -11 -453 -16 -143 -5 -397 -14 -565
-20 -1048 -35 -1509 -51 -1850 -65 -773 -30 -1174 -45 -1600 -60 -239 -8 -671
-24 -960 -35 -289 -11 -658 -24 -820 -30 -162 -5 -410 -15 -550 -20 -140 -6
-462 -17 -715 -25 -253 -9 -575 -20 -715 -25 -940 -33 -1591 -53 -1596 -47 -7
7 42 667 51 675 3 3 218 16 478 28 728 34 1108 52 1792 84 1305 61 1686 79
1895 90 118 6 463 21 765 35 917 41 1221 55 1430 65 110 6 358 17 550 25 193
8 496 22 675 30 301 14 1152 50 1765 75 143 6 285 12 315 13 30 2 117 4 193 5
l137 2 0 -32z m-336 -904 c18 -48 -9 -94 -56 -94 -25 0 -28 3 -28 35 0 19 5
35 11 35 6 0 9 6 6 14 -6 14 9 22 44 25 9 0 20 -6 23 -15z m-280 -40 c10 -37
-7 -50 -61 -53 -27 0 -56 -4 -66 -7 -28 -9 -47 14 -46 55 l1 36 8 -30 c7 -29
14 -18 11 18 -1 9 4 17 12 17 10 0 13 -8 10 -23 -5 -25 19 -57 40 -57 7 0 3 7
-7 15 -15 11 -16 15 -5 16 8 0 23 2 34 4 11 3 25 -3 32 -11 7 -10 13 -11 18
-5 3 6 1 11 -5 11 -7 0 -9 8 -5 21 6 18 5 19 -13 10 -29 -15 -85 -14 -79 2 2
7 17 11 35 9 16 -2 33 2 37 8 10 16 42 -6 49 -36z m556 -235 c0 -28 -5 -137
-10 -242 -6 -106 -21 -430 -35 -722 -14 -291 -32 -651 -40 -800 -8 -148 -24
-454 -35 -680 -11 -225 -27 -529 -35 -675 -8 -146 -28 -535 -45 -865 -17 -330
-39 -764 -50 -965 -11 -201 -24 -475 -30 -610 -20 -468 -50 -1106 -56 -1227
l-7 -123 -61 0 c-33 0 -162 7 -286 15 -124 8 -425 26 -670 40 -245 14 -598 34
-785 45 -187 10 -425 24 -530 30 -104 6 -298 17 -430 25 -450 27 -750 45
-1130 65 -209 11 -404 23 -432 26 l-53 5 -1 47 -1 47 -14 -34 c-13 -28 -13
-36 -2 -42 8 -5 -19 -9 -65 -9 -89 0 -416 19 -434 25 -8 3 -9 13 -3 34 5 18 4
60 -2 103 -6 40 -12 87 -14 103 -2 17 -6 45 -9 63 -6 38 11 43 25 7 9 -24 30
-35 30 -15 0 5 9 14 21 20 l20 11 -20 -40 c-25 -49 -26 -58 -4 -79 16 -16 16
-16 10 1 -4 11 -2 17 7 17 21 0 40 27 24 34 -7 3 -3 3 9 1 14 -4 26 1 35 13
14 20 44 33 93 38 44 5 155 -18 155 -31 0 -7 12 -21 26 -31 15 -10 34 -27 43
-38 9 -10 28 -31 44 -46 26 -28 37 -70 17 -70 -5 0 -10 -8 -9 -17 0 -11 3 -13
6 -5 2 6 9 10 14 6 5 -3 9 7 9 22 0 16 9 165 21 332 20 302 22 398 5 357 -4
-11 -12 -27 -17 -35 -5 -8 -12 -23 -15 -32 -4 -10 -9 -18 -13 -19 -3 0 -15 -2
-26 -4 -11 -1 -53 -5 -94 -9 -41 -3 -80 -11 -87 -17 -8 -7 -19 -7 -30 -1 -9 5
-25 7 -35 5 -11 -3 -48 -2 -84 2 -46 5 -65 11 -65 21 0 9 -12 14 -36 14 -30 0
-43 7 -71 38 -64 71 -108 131 -117 160 -7 22 -8 21 -48 -16 l-40 -39 -24 24
c-39 39 -68 28 -44 -17 7 -14 6 -28 -7 -54 -17 -36 -39 -40 -28 -4 4 12 0 27
-10 38 -9 10 -14 23 -11 28 3 5 -15 31 -39 57 -30 34 -41 52 -35 60 13 16 -61
50 -90 42 -13 -3 -23 0 -26 8 -6 15 -55 15 -66 0 -4 -5 -8 -23 -9 -40 -1 -24
-3 -25 -6 -7 -3 13 -12 22 -22 22 -25 0 -33 11 -20 27 8 9 8 13 0 13 -17 0
-25 -49 -12 -77 7 -14 10 -26 9 -27 -36 -19 -109 -32 -120 -20 -13 13 56 106
72 96 2 -2 6 2 8 8 7 19 -55 -17 -63 -37 -7 -17 -8 -17 -14 1 -7 19 -9 18 -31
-7 -13 -15 -43 -39 -67 -53 -24 -14 -43 -30 -43 -37 0 -7 -16 -28 -36 -47 -20
-18 -45 -53 -55 -77 -10 -24 -25 -43 -33 -43 -23 0 -46 -53 -46 -107 0 -27 -7
-58 -15 -69 -10 -15 -13 -42 -11 -98 2 -42 -1 -76 -5 -76 -5 0 -9 12 -10 28 0
24 -1 25 -9 7 -7 -18 -9 -18 -20 10 -23 55 -29 143 -11 155 6 3 9 19 7 35 -2
17 -4 45 -5 63 -1 25 -5 32 -20 32 -11 0 -22 -4 -25 -9 -3 -5 -18 -12 -33 -16
-16 -3 -52 -18 -82 -32 -30 -14 -85 -29 -123 -34 -38 -5 -77 -13 -87 -19 -11
-5 -26 -7 -34 -4 -8 3 -18 0 -22 -5 -9 -16 -37 -352 -30 -360 6 -6 174 -14
260 -12 67 1 146 -10 140 -20 -4 -5 3 -9 15 -9 12 0 18 -4 15 -10 -3 -5 -1
-10 4 -10 6 0 11 -13 11 -29 0 -15 10 -41 22 -56 l22 -28 -154 6 c-271 12
-763 36 -830 42 -36 3 -276 17 -535 30 -258 14 -580 32 -715 40 -135 8 -470
28 -745 45 -476 28 -1138 71 -1142 74 -2 1 0 21 47 616 17 212 42 527 55 700
52 681 106 1369 130 1660 27 326 82 1045 115 1510 11 157 25 335 30 395 6 61
21 259 35 440 40 525 56 719 60 733 3 8 32 12 100 12 53 0 205 4 338 10 133 5
528 17 877 25 349 9 763 20 920 25 323 11 1390 44 1915 60 382 11 1129 34
1625 50 173 6 538 17 810 25 272 8 626 19 785 25 160 5 443 15 630 20 187 6
468 15 625 20 157 5 458 14 670 21 323 9 477 15 703 28 26 1 27 -1 27 -50z
m-7424 -6 c-7 -7 -26 7 -26 19 0 6 6 6 15 -2 9 -7 13 -15 11 -17z m-471 -33
c-9 -41 -17 -33 -9 9 4 17 9 30 11 27 3 -2 2 -19 -2 -36z m48 0 c6 -31 5 -33
-7 -17 -8 10 -12 27 -9 38 7 25 9 22 16 -21z m53 28 c4 -6 3 -8 -4 -4 -6 3
-15 -6 -20 -21 l-10 -28 -1 26 c-1 37 19 53 35 27z m28 -15 c-10 -40 -14 -41
-14 -5 0 18 5 32 10 32 6 0 8 -11 4 -27z m39 20 c-7 -2 -13 -16 -13 -29 0 -13
-4 -24 -10 -24 -11 0 -12 6 -4 38 4 12 14 22 23 21 10 0 11 -2 4 -6z m-196
-50 c-3 -10 -5 -2 -5 17 0 19 2 27 5 18 2 -10 2 -26 0 -35z m-285 6 c-5 -34
-36 -38 -38 -4 -1 15 0 16 3 3 7 -27 23 -21 23 7 0 14 4 25 8 25 5 0 7 -14 4
-31z m48 4 c0 -20 -3 -24 -11 -16 -7 7 -9 19 -6 27 10 24 17 19 17 -11z m30 2
c0 -14 -4 -25 -9 -25 -4 0 -6 11 -3 25 2 14 6 25 8 25 2 0 4 -11 4 -25z m27
10 c-4 -8 -2 -17 3 -20 6 -4 10 1 10 9 0 19 16 21 23 4 3 -8 6 -6 6 5 1 9 5
17 10 17 13 0 22 -28 10 -35 -18 -12 -68 -14 -75 -4 -6 11 2 39 12 39 3 0 4
-7 1 -15z m93 0 c0 -21 18 -19 23 3 4 13 5 12 6 -4 1 -18 -25 -42 -34 -32 -10
12 -14 48 -6 48 6 0 11 -7 11 -15z m-841 -4 c20 -13 6 -61 -18 -61 -14 0 -18
5 -14 19 3 10 0 22 -6 25 -7 5 -11 -3 -11 -18 0 -21 -5 -26 -24 -26 -14 0 -28
5 -31 11 -5 6 -11 4 -19 -6 -10 -14 -12 -11 -12 19 0 41 2 42 28 19 18 -16 18
-16 12 0 -3 10 -1 17 5 17 6 0 11 -11 11 -25 0 -14 5 -25 11 -25 7 0 9 10 7
24 -4 19 0 26 16 29 12 2 23 5 26 5 3 1 11 -2 19 -7z m-278 -44 c-14 -37 -31
-34 -30 6 l1 32 8 -30 c7 -29 8 -29 9 -4 0 14 4 29 8 33 12 12 14 -9 4 -37z
m59 28 c0 -8 -4 -15 -9 -15 -5 0 -12 -10 -14 -22 -3 -18 -5 -16 -6 8 0 17 2
34 6 37 11 12 23 8 23 -8z m65 -21 c0 -24 -4 -29 -25 -29 -31 0 -40 33 -14 52
26 19 39 11 39 -23z m735 21 c0 -9 -9 -15 -22 -14 -17 1 -19 2 -5 6 9 2 17 9
17 14 0 5 2 9 5 9 3 0 5 -7 5 -15z m-1170 -5 c0 -6 10 -9 23 -7 12 2 16 2 10
0 -16 -5 -17 -33 -2 -33 5 0 7 -4 4 -10 -11 -17 -25 -11 -26 13 l-2 22 -4 -22
c-7 -35 -21 -27 -21 12 0 19 4 35 9 35 5 0 9 -5 9 -10z m-233 -35 c-4 -33 -12
-38 -40 -31 -19 4 -23 11 -20 30 3 16 13 26 27 28 30 6 37 0 33 -27z m173 4
c0 -15 -4 -31 -10 -34 -6 -4 -10 5 -10 20 0 20 -4 26 -16 21 -10 -4 -13 -2 -8
6 5 7 3 8 -5 3 -7 -4 -11 -16 -8 -26 3 -10 1 -22 -4 -25 -10 -6 -13 49 -3 59
3 3 19 5 35 5 25 -1 29 -5 29 -29z m21 -10 l-10 -24 0 26 c-1 14 2 29 6 33 12
12 14 -9 4 -35z m145 19 c7 -22 7 -22 15 -3 8 18 8 18 6 -4 -2 -19 -8 -24 -34
-26 -30 -2 -33 0 -33 26 0 22 5 29 19 29 12 0 23 -9 27 -22z m3626 -5645 c34
-38 80 -122 83 -153 2 -26 6 -38 36 -107 11 -23 19 -46 19 -50 -1 -26 -72 -79
-90 -68 -12 8 -10 55 4 75 8 12 8 13 -4 3 -41 -37 -34 16 7 56 27 26 30 31 14
31 -11 0 -27 3 -35 6 -12 5 -15 2 -10 -10 4 -10 1 -16 -9 -16 -9 0 -22 -3 -31
-6 -9 -4 -16 -1 -16 6 0 6 9 14 20 17 29 8 25 26 -5 21 -14 -3 -25 -1 -25 3 0
5 7 9 16 9 8 0 12 5 9 10 -3 6 0 10 8 10 8 0 22 9 31 19 18 19 17 19 -29 6
-49 -15 -109 -10 -102 9 3 7 -1 20 -9 31 -57 78 52 168 118 98z m-458 -117
c-2 -37 -30 -86 -49 -86 -19 0 -27 30 -13 49 11 14 61 71 63 71 0 0 0 -15 -1
-34z m676 -6 c0 -5 -7 -10 -16 -10 -8 0 -12 5 -9 10 3 6 10 10 16 10 5 0 9 -4
9 -10z m-786 -74 c-3 -9 -13 -16 -22 -16 -13 0 -12 3 3 20 20 23 29 21 19 -4z
m462 0 c3 -8 17 -17 30 -20 14 -4 22 -11 19 -15 -6 -11 -45 -2 -45 10 0 5 -11
9 -25 9 -14 0 -25 -4 -25 -10 0 -5 -4 -10 -8 -10 -4 0 -8 9 -8 19 0 11 4 18 7
15 4 -2 10 0 14 6 9 15 35 12 41 -4z m642 -14 c3 -9 -2 -13 -14 -10 -9 1 -19
9 -22 16 -3 9 2 13 14 10 9 -1 19 -9 22 -16z m-303 -40 c-8 -8 -35 20 -35 37
1 12 5 11 21 -8 11 -13 17 -26 14 -29z m-525 -2 c0 -5 -4 -10 -10 -10 -5 0
-10 5 -10 10 0 6 5 10 10 10 6 0 10 -4 10 -10z m213 -27 c63 -46 64 -74 5 -90
-43 -11 -43 -11 -20 7 21 18 39 61 24 58 -4 -1 -15 2 -26 7 -11 5 -26 4 -37
-3 -21 -13 -30 -4 -27 30 3 34 24 31 81 -9z m-187 -18 c4 -15 1 -32 -7 -41
-10 -13 -10 -17 1 -24 12 -7 11 -10 -5 -15 -56 -19 -141 -60 -148 -71 -4 -8
-19 -14 -32 -14 -16 0 -28 -9 -37 -27 -11 -23 -20 -27 -61 -29 -45 -3 -47 -2
-36 18 8 15 8 19 0 14 -6 -4 -11 -2 -11 3 0 6 -9 11 -20 11 -22 0 -25 12 -10
39 5 11 21 19 35 19 36 0 41 8 28 43 -10 26 -9 33 10 55 29 34 57 24 57 -20
-1 -27 -29 -96 -30 -72 0 6 -9 0 -21 -13 -12 -12 -18 -25 -15 -28 3 -4 13 2
22 13 13 16 15 17 10 2 -3 -12 0 -18 10 -18 8 0 13 4 10 8 -3 5 1 19 8 33 14
27 16 34 16 52 0 20 65 47 114 47 29 0 52 7 67 20 31 26 37 25 45 -5z m174
-27 c0 -19 -2 -20 -10 -8 -13 19 -13 30 0 30 6 0 10 -10 10 -22z m-94 -13 c-3
-9 3 -19 14 -25 11 -6 20 -16 20 -23 0 -16 -59 -61 -67 -53 -4 3 -1 6 5 6 9 0
9 5 0 19 -10 16 -9 23 6 39 12 15 14 22 6 27 -9 6 -9 10 1 16 19 12 22 11 15
-6z m334 -5 c0 -5 -4 -10 -10 -10 -5 0 -10 5 -10 10 0 6 5 10 10 10 6 0 10 -4
10 -10z m24 -52 c5 -26 2 -36 -19 -55 -22 -21 -27 -36 -24 -70 0 -5 -10 -10
-23 -13 -16 -4 -23 -13 -23 -30 0 -23 -22 -42 -85 -72 -14 -6 -33 -19 -44 -27
-17 -15 -18 -15 -13 4 16 56 18 85 7 85 -15 0 -3 18 22 31 15 8 19 8 14 0 -4
-6 -1 -11 8 -11 8 0 18 5 21 10 3 6 1 10 -5 10 -21 0 31 59 66 76 18 9 34 20
34 26 0 12 42 68 51 68 3 0 9 -14 13 -32z m-54 12 c0 -5 -5 -10 -11 -10 -5 0
-7 5 -4 10 3 6 8 10 11 10 2 0 4 -4 4 -10z m180 -4 c0 -3 -4 -8 -10 -11 -5 -3
-10 -1 -10 4 0 6 5 11 10 11 6 0 10 -2 10 -4z m-565 -26 c14 -6 15 -9 5 -10
-8 -1 -31 -3 -50 -5 -33 -4 -34 -4 -16 10 22 17 32 17 61 5z m176 -61 c-14
-11 -35 -17 -59 -15 -37 3 -38 2 -34 -23 5 -24 4 -25 -11 -9 -27 27 -20 46 21
57 20 6 41 11 45 11 4 0 18 9 30 21 l22 20 3 -22 c3 -15 -4 -30 -17 -40z m392
22 c2 -11 0 -25 -7 -32 -8 -9 -8 -10 1 -5 6 3 14 2 17 -3 3 -5 -7 -11 -23 -13
-27 -4 -30 -2 -29 26 1 43 31 63 41 27z m-636 3 c-3 -3 -12 -4 -19 -1 -8 3 -5
6 6 6 11 1 17 -2 13 -5z m303 -1 c-1 -21 -13 -53 -21 -53 -5 0 -7 10 -5 23 3
12 5 25 5 30 1 4 6 7 11 7 6 0 10 -3 10 -7z m-285 -52 c-6 -5 -21 -11 -35 -15
-21 -5 -20 -3 5 9 35 17 42 18 30 6z m945 -62 c0 -14 -20 -20 -40 -14 -25 8
-26 31 -2 44 13 8 20 6 30 -6 6 -9 12 -20 12 -24z m-250 21 c0 -5 -2 -10 -4
-10 -3 0 -8 5 -11 10 -3 6 -1 10 4 10 6 0 11 -4 11 -10z m-981 -10 c22 0 55
-73 47 -105 -3 -13 -2 -27 4 -30 5 -3 10 1 10 9 0 8 5 18 12 22 8 5 9 0 6 -14
-4 -13 -2 -20 4 -16 5 3 12 -3 15 -15 3 -12 9 -21 14 -21 5 0 9 -8 9 -17 0
-10 -3 -14 -8 -8 -14 20 -78 62 -129 85 -49 23 -51 25 -48 61 3 46 13 62 32
55 8 -3 22 -6 32 -6z m491 0 c0 -11 -74 -60 -90 -60 -5 0 -10 5 -10 10 0 6 4
10 10 10 5 0 20 11 34 25 25 25 56 33 56 15z m-182 -82 c-4 -18 -49 -39 -72
-35 -19 3 -19 4 6 15 14 6 29 16 33 21 9 15 36 14 33 -1z m452 -5 c0 -10 -6
-30 -14 -45 -8 -15 -17 -42 -21 -60 -4 -18 -12 -39 -19 -47 -8 -11 -8 -13 2
-7 13 8 16 -14 6 -51 -4 -16 -14 -23 -31 -23 -13 0 -21 4 -18 10 3 6 1 10 -4
10 -6 0 -11 -5 -11 -10 0 -6 -22 -9 -57 -6 -32 2 -69 5 -83 5 -22 2 -20 4 15
18 50 21 135 100 135 126 0 10 9 21 20 24 11 3 20 12 20 20 0 14 38 52 53 53
4 0 7 -8 7 -17z m220 -149 l20 -30 -40 -2 c-43 -3 -58 12 -46 45 6 15 8 15 16
3 8 -12 10 -12 10 3 0 26 17 18 40 -19z m57 -79 c11 -25 11 -25 -42 -25 -30 0
-56 4 -59 9 -13 20 6 36 47 38 36 2 44 -1 54 -22z m4933 -1153 c0 -13 -12 -22
-22 -16 -10 6 -1 24 13 24 5 0 9 -4 9 -8z m111 -165 c-10 -9 -11 -8 -5 6 3 10
9 15 12 12 3 -3 0 -11 -7 -18z m-249 -84 c-1 -23 -8 -43 -18 -50 -25 -19 -38
-4 -14 17 12 11 20 30 20 50 0 18 3 30 7 27 3 -4 6 -24 5 -44z m-107 -103 c-3
-5 -16 -10 -28 -10 -18 0 -19 2 -7 10 20 13 43 13 35 0z m-175 -44 c0 -2 -8
-10 -17 -17 -16 -13 -17 -12 -4 4 13 16 21 21 21 13z m-57 -51 c-3 -9 -18 -22
-34 -30 -38 -20 -30 3 9 28 33 20 33 20 25 2z m-133 -60 c-14 -8 -29 -14 -35
-14 -5 0 1 6 15 14 14 8 30 14 35 14 6 0 -1 -6 -15 -14z m-180 -99 c0 -2 -7
-9 -15 -16 -13 -11 -14 -10 -9 4 5 14 24 23 24 12z m-40 -30 c0 -2 -7 -7 -16
-10 -8 -3 -12 -2 -9 4 6 10 25 14 25 6z m-80 -36 c0 -5 -5 -10 -11 -10 -5 0
-7 5 -4 10 3 6 8 10 11 10 2 0 4 -4 4 -10z m-180 -84 c0 -3 -4 -8 -10 -11 -5
-3 -10 -1 -10 4 0 6 5 11 10 11 6 0 10 -2 10 -4z m-400 -200 c0 -2 -9 -6 -20
-9 -11 -3 -18 -1 -14 4 5 9 34 13 34 5z m-705 -26 c3 -5 -1 -10 -9 -10 -9 0
-16 5 -16 10 0 6 4 10 9 10 6 0 13 -4 16 -10z m615 -13 c-14 -6 -28 -15 -31
-20 -4 -5 -13 -7 -20 -5 -16 5 37 37 61 37 8 0 4 -6 -10 -12z m-105 -37 c3 -6
-1 -7 -9 -4 -18 7 -21 14 -7 14 6 0 13 -4 16 -10z m-708 -66 c-3 -3 -12 -4
-19 -1 -8 3 -5 6 6 6 11 1 17 -2 13 -5z m369 -104 c-46 -23 -63 -27 -78 -19
-19 10 -19 11 -1 24 21 17 37 19 28 5 -8 -13 -3 -13 36 5 63 27 75 14 15 -15z
m-119 -16 c-3 -3 -12 -4 -19 -1 -8 3 -5 6 6 6 11 1 17 -2 13 -5z m16 -31 c-18
-9 -36 -13 -40 -9 -11 10 18 26 47 25 24 0 23 -1 -7 -16z m-328 -153 c-11 -4
-42 -18 -70 -30 -55 -24 -54 -19 2 16 21 13 49 23 63 23 23 0 23 -1 5 -9z
m-455 -195 c0 -8 -4 -15 -9 -15 -13 0 -22 16 -14 24 11 11 23 6 23 -9z"/>
<path d="M15990 14553 c-38 -14 -55 -75 -24 -87 9 -4 17 -5 18 -4 1 2 7 13 14
26 7 13 8 22 2 22 -5 0 -10 3 -10 8 0 4 25 5 55 4 l55 -4 0 -38 c0 -22 -5 -42
-11 -46 -21 -12 -79 -22 -79 -13 0 12 -37 12 -44 0 -8 -12 30 -21 95 -21 l56
0 7 38 c3 20 6 55 6 77 l0 40 -63 2 c-34 1 -69 -1 -77 -4z m-10 -43 c0 -5 -4
-10 -10 -10 -5 0 -10 5 -10 10 0 6 5 10 10 10 6 0 10 -4 10 -10z"/>
<path d="M15755 14518 c-2 -7 -3 -33 -2 -58 l2 -45 45 0 c52 -1 100 12 100 27
0 7 -4 7 -13 0 -14 -12 -40 3 -50 28 -4 10 -6 9 -6 -6 -1 -23 -26 -39 -43 -28
-6 4 -8 25 -4 50 4 35 3 44 -10 44 -8 0 -17 -6 -19 -12z"/>
<path d="M15815 14514 c11 -8 25 -12 32 -9 7 3 20 8 28 11 10 4 18 -3 25 -20
13 -34 20 -33 20 4 l0 30 -62 0 c-58 -1 -61 -2 -43 -16z"/>
<path d="M15861 14474 c0 -11 3 -14 6 -6 3 7 2 16 -1 19 -3 4 -6 -2 -5 -13z"/>
<path d="M13110 14381 c-16 -6 -20 -24 -7 -37 4 -4 7 0 7 9 0 9 5 19 11 23 8
4 9 0 4 -15 -5 -15 -2 -21 9 -21 19 0 22 36 4 43 -7 2 -20 1 -28 -2z"/>
<path d="M12810 14352 c0 -21 4 -23 23 -17 12 3 27 7 34 7 7 1 14 7 17 14 3 8
-9 13 -35 16 -36 3 -39 1 -39 -20z"/>
<path d="M12942 14359 c-17 -27 -6 -38 15 -16 11 11 14 20 7 27 -6 6 -14 2
-22 -11z"/>
<path d="M12987 14373 c-4 -3 -7 -13 -7 -22 1 -13 3 -13 11 2 11 19 8 33 -4
20z"/>
<path d="M13017 14358 c-6 -21 4 -23 21 -6 16 16 15 25 -2 25 -8 0 -17 -9 -19
-19z"/>
<path d="M13060 14360 c0 -11 2 -20 4 -20 2 0 6 9 9 20 3 11 1 20 -4 20 -5 0
-9 -9 -9 -20z"/>
<path d="M12896 14355 c-3 -8 -2 -15 3 -15 5 0 14 7 21 15 10 12 10 15 -3 15
-8 0 -17 -7 -21 -15z"/>
<path d="M12352 14335 c0 -16 2 -22 5 -12 2 9 2 23 0 30 -3 6 -5 -1 -5 -18z"/>
<path d="M12382 14335 c0 -16 2 -22 5 -12 2 9 2 23 0 30 -3 6 -5 -1 -5 -18z"/>
<path d="M12434 14344 c3 -9 6 -18 6 -20 0 -2 7 -4 15 -4 8 0 15 9 15 20 0 14
-7 20 -21 20 -15 0 -19 -4 -15 -16z"/>
<path d="M12150 14328 c0 -10 7 -18 15 -18 9 0 12 6 8 17 -4 11 -3 14 5 9 7
-4 12 -3 12 3 0 5 -9 9 -20 8 -12 -1 -20 -8 -20 -19z"/>
<path d="M12207 14329 c-5 -19 -4 -20 12 -5 22 20 38 21 21 1 -10 -12 -10 -15
4 -15 9 0 16 8 16 20 0 28 -46 28 -53 -1z"/>
<path d="M12276 14335 c-9 -26 -7 -32 5 -12 6 10 9 21 6 23 -2 3 -7 -2 -11
-11z"/>
<path d="M12300 14330 c0 -24 15 -27 24 -4 9 22 8 24 -9 24 -8 0 -15 -9 -15
-20z"/>
<path d="M11786 14333 c-4 -4 -23 -6 -42 -4 -26 2 -34 -1 -34 -14 0 -13 4 -14
20 -5 16 9 20 8 21 -7 0 -11 3 -13 6 -6 3 8 14 11 29 7 20 -5 24 -2 24 15 0
21 -10 27 -24 14z"/>
<path d="M12410 14330 c0 -5 5 -10 10 -10 6 0 10 5 10 10 0 6 -4 10 -10 10 -5
0 -10 -4 -10 -10z"/>
<path d="M11510 14305 c0 -25 14 -34 24 -16 4 5 0 12 -6 14 -10 4 -10 6 0 6 7
1 10 6 7 11 -11 18 -25 10 -25 -15z"/>
<path d="M11550 14310 c0 -19 3 -21 12 -12 9 9 9 15 0 24 -9 9 -12 7 -12 -12z"/>
<path d="M11581 14318 c-1 -23 19 -34 30 -17 5 8 9 19 9 24 -1 6 -6 1 -12 -10
-11 -19 -11 -19 -19 0 -6 16 -8 17 -8 3z"/>
<path d="M11627 14308 c-6 -21 4 -23 21 -6 10 10 15 10 21 -1 7 -11 11 -9 20
8 11 20 10 22 -23 19 -24 -1 -36 -8 -39 -20z"/>
<path d="M11016 14294 c-7 -19 2 -37 14 -29 5 3 6 13 3 22 -5 12 -3 14 7 8 9
-5 11 -4 6 3 -10 17 -23 15 -30 -4z"/>
<path d="M11059 14289 c-6 -13 -6 -19 1 -19 5 0 10 7 10 15 0 8 5 15 10 15 6
0 10 -7 10 -15 0 -8 7 -15 15 -15 8 0 15 7 15 15 0 8 5 15 11 15 6 0 9 -6 6
-14 -4 -10 0 -14 11 -13 10 0 18 9 18 18 0 27 -92 25 -107 -2z"/>
<path d="M10880 14280 c0 -11 7 -20 15 -20 8 0 15 6 15 13 0 8 3 9 8 1 10 -15
42 -14 42 2 0 7 6 15 13 17 8 4 7 6 -3 6 -9 1 -22 -5 -29 -11 -11 -10 -13 -10
-7 0 5 8 -2 12 -23 12 -24 0 -31 -4 -31 -20z"/>
<path d="M10986 14285 c-3 -8 -1 -15 3 -15 5 0 11 7 15 15 3 8 1 15 -3 15 -5
0 -11 -7 -15 -15z"/>
<path d="M10478 14283 c-34 -3 -48 -8 -48 -19 0 -8 -4 -12 -10 -9 -5 3 -10 1
-10 -4 0 -18 28 -12 33 7 4 16 5 16 6 0 1 -22 15 -23 35 -2 15 14 16 14 16 0
0 -10 9 -16 25 -16 20 0 25 5 25 25 0 14 -5 24 -12 23 -7 -1 -34 -3 -60 -5z"/>
<path d="M10265 14272 c-3 -3 -5 -14 -5 -24 0 -23 26 -24 39 0 6 9 11 11 11 5
0 -18 20 -16 20 2 0 8 -3 15 -7 16 -5 0 -18 2 -31 3 -12 2 -24 0 -27 -2z"/>
<path d="M10350 14260 c0 -11 4 -20 9 -20 5 0 7 9 4 20 -3 11 -7 20 -9 20 -2
0 -4 -9 -4 -20z"/>
<path d="M10370 14266 c0 -24 16 -27 35 -6 18 19 17 20 -8 20 -17 0 -27 -5
-27 -14z"/>
<path d="M9788 14253 c-100 -3 -108 -5 -108 -23 0 -13 7 -20 20 -20 12 0 20 7
20 18 0 10 3 13 8 6 11 -16 113 -18 123 -2 6 9 11 10 17 2 4 -6 22 -11 40 -12
25 0 32 3 32 19 0 14 -6 18 -22 17 -13 -1 -71 -4 -130 -5z"/>
<path d="M6794 14228 c-44 -11 -67 -50 -65 -110 1 -56 13 -83 42 -99 28 -14
37 -3 14 19 -10 9 -15 11 -11 5 4 -7 3 -13 -1 -13 -5 0 -14 21 -21 47 -12 43
-11 50 11 92 19 37 29 47 53 49 48 5 79 -12 90 -49 11 -39 7 -82 -7 -74 -5 3
-6 -1 -3 -10 4 -10 -4 -27 -20 -44 -27 -28 -27 -28 -4 -27 31 1 68 68 68 123
0 79 -57 115 -146 91z"/>
<path d="M9248 14233 c-90 -3 -98 -5 -98 -23 0 -23 12 -25 43 -8 28 15 67 21
67 10 0 -4 9 -8 20 -9 11 -1 20 2 20 7 0 5 9 8 20 7 11 -1 20 -5 20 -9 0 -17
28 -7 33 12 4 14 1 19 -11 18 -10 -1 -61 -4 -114 -5z"/>
<path d="M6796 14161 c-4 -5 4 -7 16 -3 14 3 19 2 14 -6 -4 -7 -3 -12 3 -12 5
0 11 6 14 13 3 7 9 2 15 -13 10 -23 11 -23 11 -4 1 29 -58 49 -73 25z"/>
<path d="M6766 14115 c-6 -17 2 -45 13 -45 4 0 6 14 3 30 -5 34 -7 36 -16 15z"/>
<path d="M16133 13885 c0 -22 2 -30 4 -17 2 12 2 30 0 40 -3 9 -5 -1 -4 -23z"/>
<path d="M11292 12921 c-16 -22 -18 -30 -8 -34 20 -8 37 8 40 37 4 34 -5 33
-32 -3z"/>
<path d="M10485 12913 c-7 -17 -18 -98 -15 -118 11 -93 10 -148 -4 -170 -11
-17 -13 -26 -4 -31 16 -10 48 33 48 65 0 14 4 42 9 61 20 77 22 92 11 85 -14
-9 -13 78 1 92 6 6 8 16 5 22 -11 17 -43 13 -51 -6z m20 -98 c-2 -102 -15
-108 -15 -7 0 45 4 82 9 82 4 0 7 -34 6 -75z"/>
<path d="M11203 12898 c-20 -25 -33 -82 -33 -139 0 -46 3 -59 15 -59 11 0 14
7 10 23 -5 19 18 115 40 170 8 20 -17 24 -32 5z"/>
<path d="M11572 12795 c5 -65 3 -87 -8 -96 -22 -18 -17 -41 9 -37 15 2 23 11
25 28 2 14 11 34 20 44 11 13 12 17 3 11 -12 -7 -13 3 -7 58 4 40 3 67 -3 67
-5 0 -12 -6 -14 -12 -3 -8 -6 -6 -6 5 -1 9 -6 17 -12 17 -8 0 -10 -25 -7 -85z"/>
<path d="M11650 12871 c0 -5 5 -11 12 -13 8 -3 3 -19 -14 -51 -22 -39 -23 -44
-7 -34 33 21 53 107 24 107 -8 0 -15 -4 -15 -9z"/>
<path d="M11402 12781 c-12 -89 -6 -115 22 -91 9 7 13 17 9 23 -7 12 -6 85 3
128 3 17 1 26 -9 26 -9 0 -17 -27 -25 -86z"/>
<path d="M10371 12828 c-56 -54 -36 -136 34 -141 16 -1 30 4 33 12 3 8 0 11
-6 7 -20 -12 -52 13 -52 41 0 29 33 88 57 102 13 7 10 9 -10 9 -15 0 -38 -13
-56 -30z"/>
<path d="M10870 12845 c-7 -8 -16 -13 -20 -10 -4 3 -11 -3 -15 -12 -3 -10 -2
-19 4 -21 5 -2 7 -26 4 -58 -5 -44 -3 -54 9 -54 12 0 17 17 23 65 6 58 9 65
25 60 26 -8 37 15 15 32 -24 17 -30 16 -45 -2z"/>
<path d="M11482 12833 c-5 -16 -10 -45 -10 -65 0 -30 3 -35 17 -31 31 11 41
26 41 58 0 66 -29 89 -48 38z m19 -66 c-10 -9 -11 -8 -5 6 3 10 9 15 12 12 3
-3 0 -11 -7 -18z"/>
<path d="M10740 12846 c0 -4 5 -16 11 -27 7 -14 7 -35 0 -67 -10 -50 -4 -66
22 -56 11 4 16 17 15 38 -1 18 2 38 6 44 7 12 -12 68 -21 58 -3 -3 -12 -1 -20
5 -7 6 -13 8 -13 5z"/>
<path d="M10946 12792 c-29 -58 -34 -102 -12 -102 8 0 16 15 20 38 7 46 44
108 56 96 6 -6 4 -32 -5 -64 -8 -30 -15 -56 -15 -57 0 -2 10 -3 21 -3 17 0 20
5 16 21 -3 11 0 43 7 71 15 54 12 59 -36 55 -21 -2 -31 -12 -52 -55z"/>
<path d="M11332 12838 c-7 -7 -12 -17 -12 -22 0 -6 5 -4 10 4 8 12 9 9 6 -10
-13 -60 -11 -94 4 -97 11 -3 16 7 17 37 2 22 8 50 14 61 8 15 8 24 0 32 -8 8
-11 7 -11 -3 0 -11 -2 -12 -8 -3 -6 10 -11 10 -20 1z"/>
<path d="M10572 12828 c-7 -7 -12 -16 -12 -22 0 -5 3 -6 7 -3 10 10 33 -13 33
-33 0 -10 -12 -28 -27 -40 -22 -17 -25 -23 -13 -30 23 -15 38 -12 54 12 22 30
21 114 0 122 -22 8 -28 8 -42 -6z"/>
<path d="M10682 12813 c-19 -50 -23 -83 -12 -103 13 -24 33 -26 50 -4 11 12
11 15 -1 12 -10 -2 -14 7 -13 37 1 22 3 49 5 59 6 30 -17 29 -29 -1z"/>
<path d="M11281 12790 c-1 -14 -6 -32 -11 -40 -9 -13 -11 -13 -20 0 -8 12 -10
8 -8 -15 2 -18 9 -31 20 -33 13 -2 18 7 23 42 4 25 5 51 2 58 -3 7 -6 2 -6
-12z"/>
<path d="M11091 12766 c-6 -7 -9 -21 -5 -30 3 -9 1 -23 -5 -30 -8 -10 -9 -16
-1 -21 13 -8 30 37 28 70 -3 29 -2 29 -17 11z"/>
<path d="M12750 12255 c0 -19 4 -35 8 -35 4 0 6 16 4 35 -2 19 -6 35 -8 35 -2
0 -4 -16 -4 -35z"/>
<path d="M12973 12283 c-16 -3 -23 -11 -23 -28 0 -13 4 -26 9 -29 4 -3 6 6 3
19 -3 18 0 25 12 25 10 0 16 -9 16 -25 0 -14 4 -25 10 -25 11 0 9 28 -3 47 -4
6 -1 14 5 16 15 6 2 6 -29 0z"/>
<path d="M13031 12258 c-1 -21 4 -38 9 -38 12 0 12 27 0 55 -7 16 -9 13 -9
-17z"/>
<path d="M13071 12256 c-1 -26 2 -37 9 -30 6 6 6 21 1 39 -9 30 -9 30 -10 -9z"/>
<path d="M13153 12255 c0 -22 2 -30 4 -17 2 12 2 30 0 40 -3 9 -5 -1 -4 -23z"/>
<path d="M13190 12260 c0 -16 2 -30 4 -30 2 0 6 14 8 30 3 17 1 30 -4 30 -4 0
-8 -13 -8 -30z"/>
<path d="M13348 12278 c17 -17 15 -36 -5 -41 -14 -4 -12 -5 5 -6 22 -1 28 13
16 43 -3 9 -11 16 -17 16 -7 0 -7 -4 1 -12z"/>
<path d="M13392 12260 c0 -19 2 -27 5 -17 2 9 2 25 0 35 -3 9 -5 1 -5 -18z"/>
<path d="M13432 12260 c0 -19 2 -27 5 -17 2 9 2 25 0 35 -3 9 -5 1 -5 -18z"/>
<path d="M13460 12261 c0 -17 4 -31 8 -31 5 0 8 10 8 23 -1 16 5 23 24 25 20
2 22 1 10 -8 -10 -8 -11 -10 -2 -8 26 7 16 23 -15 26 -31 3 -33 1 -33 -27z"/>
<path d="M12163 12273 c-14 -5 -18 -39 -5 -47 5 -3 8 5 8 17 -1 13 6 23 17 25
15 3 17 -1 11 -22 -4 -17 -2 -26 6 -26 6 0 10 11 8 27 -3 27 -20 37 -45 26z"/>
<path d="M12350 12250 c0 -16 4 -30 8 -30 5 0 7 14 4 30 -2 17 -6 30 -8 30 -2
0 -4 -13 -4 -30z"/>
<path d="M12428 12250 c2 -16 7 -30 11 -30 4 0 6 14 3 30 -2 17 -7 30 -11 30
-4 0 -6 -13 -3 -30z"/>
<path d="M12560 12250 c0 -16 3 -30 8 -30 4 0 7 14 7 30 0 17 -3 30 -7 30 -5
0 -8 -13 -8 -30z"/>
<path d="M12601 12264 c0 -11 3 -14 6 -6 3 7 2 16 -1 19 -3 4 -6 -2 -5 -13z"/>
<path d="M12622 12250 c0 -19 2 -27 5 -17 2 9 2 25 0 35 -3 9 -5 1 -5 -18z"/>
<path d="M12681 12259 c-1 -17 5 -29 15 -33 13 -5 14 -3 6 6 -5 7 -12 22 -15
33 -4 16 -5 14 -6 -6z"/>
<path d="M12722 12250 c0 -19 2 -27 5 -17 2 9 2 25 0 35 -3 9 -5 1 -5 -18z"/>
<path d="M12792 12250 c0 -19 2 -27 5 -17 2 9 2 25 0 35 -3 9 -5 1 -5 -18z"/>
<path d="M12837 12259 c4 -12 0 -25 -8 -30 -11 -7 -10 -9 4 -9 12 0 17 8 17
30 0 17 -4 30 -9 30 -5 0 -7 -9 -4 -21z"/>
<path d="M12870 12250 c0 -16 3 -30 8 -30 4 0 7 14 7 30 0 17 -3 30 -7 30 -5
0 -8 -13 -8 -30z"/>
<path d="M12914 12249 c-1 -20 2 -26 7 -17 11 16 12 48 2 48 -5 0 -8 -14 -9
-31z"/>
<path d="M13112 12250 c0 -19 2 -27 5 -17 2 9 2 25 0 35 -3 9 -5 1 -5 -18z"/>
<path d="M13232 12250 c0 -19 2 -27 5 -17 2 9 2 25 0 35 -3 9 -5 1 -5 -18z"/>
<path d="M13264 12265 c-3 -8 -4 -20 -2 -27 3 -7 7 -1 10 15 6 29 1 36 -8 12z"/>
<path d="M13308 12274 c-5 -4 -8 -16 -8 -28 0 -14 3 -17 11 -9 6 6 9 19 7 28
-1 9 -6 13 -10 9z"/>
<path d="M11237 12263 c-10 -9 -9 -51 1 -57 5 -3 8 11 8 29 -1 19 -1 35 -2 35
0 0 -4 -3 -7 -7z"/>
<path d="M11321 12254 c0 -11 3 -14 6 -6 3 7 2 16 -1 19 -3 4 -6 -2 -5 -13z"/>
<path d="M11351 12255 c0 -11 4 -27 9 -35 9 -13 10 -13 9 0 0 8 -4 24 -9 35
l-9 20 0 -20z"/>
<path d="M11397 12263 c-4 -3 -7 -20 -7 -36 0 -39 13 -27 14 13 1 16 1 30 0
30 0 0 -4 -3 -7 -7z"/>
<path d="M11484 12255 c-3 -8 -4 -20 -2 -27 3 -7 7 -1 10 15 6 29 1 36 -8 12z"/>
<path d="M11557 12264 c-6 -10 9 -42 16 -34 3 3 1 14 -3 24 -3 11 -9 15 -13
10z"/>
<path d="M11642 12240 c0 -19 2 -27 5 -17 2 9 2 25 0 35 -3 9 -5 1 -5 -18z"/>
<path d="M11801 12254 c0 -11 3 -14 6 -6 3 7 2 16 -1 19 -3 4 -6 -2 -5 -13z"/>
<path d="M11830 12256 c-8 -10 -8 -21 -2 -32 8 -14 10 -11 14 15 5 36 5 36
-12 17z"/>
<path d="M11961 12254 c0 -11 3 -14 6 -6 3 7 2 16 -1 19 -3 4 -6 -2 -5 -13z"/>
<path d="M12065 12259 c-4 -6 -5 -12 -2 -15 2 -3 7 2 10 11 7 17 1 20 -8 4z"/>
<path d="M12270 12246 c0 -31 6 -34 13 -6 3 11 1 23 -4 26 -5 3 -9 -6 -9 -20z"/>
<path d="M12310 12251 c0 -11 5 -23 10 -26 6 -4 10 5 10 19 0 14 -4 26 -10 26
-5 0 -10 -9 -10 -19z"/>
<path d="M12383 12254 c-3 -8 -1 -20 6 -27 8 -8 11 -4 11 16 0 30 -7 35 -17
11z"/>
<path d="M12532 12245 c0 -16 2 -22 5 -12 2 9 2 23 0 30 -3 6 -5 -1 -5 -18z"/>
<path d="M10260 12251 c0 -5 5 -13 10 -16 6 -3 10 -2 10 4 0 5 -4 13 -10 16
-5 3 -10 2 -10 -4z"/>
<path d="M10676 12251 c-4 -7 -5 -15 -2 -18 9 -9 19 4 14 18 -4 11 -6 11 -12
0z"/>
<path d="M10872 12234 c-1 -13 3 -24 8 -24 12 0 14 37 2 44 -4 2 -9 -6 -10
-20z"/>
<path d="M10914 12230 c1 -31 10 -39 19 -17 3 7 -1 20 -8 30 -11 15 -12 13
-11 -13z"/>
<path d="M10961 12244 c0 -11 3 -14 6 -6 3 7 2 16 -1 19 -3 4 -6 -2 -5 -13z"/>
<path d="M11032 12230 c0 -19 2 -27 5 -17 2 9 2 25 0 35 -3 9 -5 1 -5 -18z"/>
<path d="M11112 12230 c0 -19 2 -27 5 -17 2 9 2 25 0 35 -3 9 -5 1 -5 -18z"/>
<path d="M11148 12230 c2 -16 6 -30 8 -30 2 0 4 14 4 30 0 17 -4 30 -8 30 -5
0 -7 -13 -4 -30z"/>
<path d="M11267 12240 c3 -11 7 -20 9 -20 2 0 4 9 4 20 0 11 -4 20 -9 20 -5 0
-7 -9 -4 -20z"/>
<path d="M11421 12255 c1 -19 18 -51 18 -35 0 8 -4 22 -9 30 -5 8 -9 11 -9 5z"/>
<path d="M11522 12235 c0 -16 2 -22 5 -12 2 9 2 23 0 30 -3 6 -5 -1 -5 -18z"/>
<path d="M11672 12235 c0 -16 2 -22 5 -12 2 9 2 23 0 30 -3 6 -5 -1 -5 -18z"/>
<path d="M11870 12234 c0 -14 4 -23 9 -20 5 3 7 15 4 26 -7 28 -13 25 -13 -6z"/>
<path d="M11922 12240 c0 -14 2 -19 5 -12 2 6 2 18 0 25 -3 6 -5 1 -5 -13z"/>
<path d="M9750 12238 c0 -9 -3 -23 -6 -32 -3 -9 -2 -16 4 -16 14 0 23 43 12
54 -7 7 -10 4 -10 -6z"/>
<path d="M9832 12225 c0 -16 2 -22 5 -12 2 9 2 23 0 30 -3 6 -5 -1 -5 -18z"/>
<path d="M9878 12244 c-5 -4 -8 -19 -8 -33 0 -18 3 -22 11 -14 6 6 9 21 7 33
-1 12 -6 18 -10 14z"/>
<path d="M9912 12220 c0 -19 2 -27 5 -17 2 9 2 25 0 35 -3 9 -5 1 -5 -18z"/>
<path d="M9952 12220 c0 -19 2 -27 5 -17 2 9 2 25 0 35 -3 9 -5 1 -5 -18z"/>
<path d="M10030 12223 c0 -18 5 -33 10 -33 13 0 13 30 0 50 -7 11 -10 7 -10
-17z"/>
<path d="M10072 12220 c0 -19 2 -27 5 -17 2 9 2 25 0 35 -3 9 -5 1 -5 -18z"/>
<path d="M10110 12221 c0 -17 2 -31 4 -31 8 0 13 51 5 56 -5 3 -9 -9 -9 -25z"/>
<path d="M10153 12222 c0 -22 3 -30 10 -23 7 7 7 18 0 33 -10 22 -11 21 -10
-10z"/>
<path d="M10319 12222 c-3 -20 -2 -29 4 -23 5 5 7 19 5 32 -3 20 -5 19 -9 -9z"/>
<path d="M10352 12220 c0 -19 2 -27 5 -17 2 9 2 25 0 35 -3 9 -5 1 -5 -18z"/>
<path d="M10387 12243 c-11 -10 -8 -43 3 -43 6 0 10 11 10 25 0 26 -2 29 -13
18z"/>
<path d="M10435 12231 c5 -15 2 -27 -6 -33 -11 -8 -11 -9 1 -5 19 5 25 36 10
51 -10 8 -11 6 -5 -13z"/>
<path d="M10472 12225 c0 -16 2 -22 5 -12 2 9 2 23 0 30 -3 6 -5 -1 -5 -18z"/>
<path d="M10557 12243 c-9 -9 -9 -43 1 -43 4 0 7 11 7 25 0 14 0 25 -1 25 0 0
-4 -3 -7 -7z"/>
<path d="M10597 12243 c-9 -9 -9 -43 1 -43 4 0 8 11 8 25 2 27 1 29 -9 18z"/>
<path d="M10638 12225 c-3 -14 -1 -25 3 -25 5 0 9 11 9 25 0 14 -2 25 -4 25
-2 0 -6 -11 -8 -25z"/>
<path d="M10757 12243 c-9 -9 -9 -43 1 -43 4 0 7 11 7 25 0 14 0 25 -1 25 0 0
-4 -3 -7 -7z"/>
<path d="M10791 12223 c0 -25 1 -26 9 -8 12 27 12 35 0 35 -5 0 -10 -12 -9
-27z"/>
<path d="M10836 12235 c4 -8 8 -15 10 -15 2 0 4 7 4 15 0 8 -4 15 -10 15 -5 0
-7 -7 -4 -15z"/>
<path d="M11292 12230 c0 -14 2 -19 5 -12 2 6 2 18 0 25 -3 6 -5 1 -5 -13z"/>
<path d="M11752 12230 c0 -14 2 -19 5 -12 2 6 2 18 0 25 -3 6 -5 1 -5 -13z"/>
<path d="M11981 12234 c0 -11 3 -14 6 -6 3 7 2 16 -1 19 -3 4 -6 -2 -5 -13z"/>
<path d="M12231 12234 c0 -11 3 -14 6 -6 3 7 2 16 -1 19 -3 4 -6 -2 -5 -13z"/>
<path d="M8882 12220 c0 -14 2 -19 5 -12 2 6 2 18 0 25 -3 6 -5 1 -5 -13z"/>
<path d="M8917 12220 c-3 -11 -1 -23 4 -26 5 -3 9 6 9 20 0 31 -6 34 -13 6z"/>
<path d="M8949 12212 c-3 -20 -2 -29 4 -23 5 5 7 19 5 32 -3 20 -5 19 -9 -9z"/>
<path d="M9019 12212 c-3 -20 -2 -29 4 -23 5 5 7 19 5 32 -3 20 -5 19 -9 -9z"/>
<path d="M9079 12232 c8 -6 11 -18 6 -33 -6 -19 -5 -21 5 -13 15 15 9 46 -10
51 -12 4 -12 3 -1 -5z"/>
<path d="M9152 12210 c0 -19 2 -27 5 -17 2 9 2 25 0 35 -3 9 -5 1 -5 -18z"/>
<path d="M9191 12213 c0 -25 1 -26 9 -8 12 27 12 35 0 35 -5 0 -10 -12 -9 -27z"/>
<path d="M9237 12233 c-9 -9 -9 -53 1 -53 4 0 7 14 7 30 0 17 0 30 -1 30 0 0
-4 -3 -7 -7z"/>
<path d="M9268 12213 c3 -18 7 -21 13 -11 12 18 11 25 -4 31 -10 4 -13 -2 -9
-20z"/>
<path d="M9319 12212 c-3 -20 -2 -29 4 -23 5 5 7 19 5 32 -3 20 -5 19 -9 -9z"/>
<path d="M9352 12210 c0 -19 2 -27 5 -17 2 9 2 25 0 35 -3 9 -5 1 -5 -18z"/>
<path d="M9390 12210 c0 -16 4 -30 8 -30 5 0 9 14 9 30 0 17 -4 30 -9 30 -4 0
-8 -13 -8 -30z"/>
<path d="M9430 12213 c0 -22 2 -25 10 -13 13 20 13 40 0 40 -5 0 -10 -12 -10
-27z"/>
<path d="M9481 12228 c0 -9 -4 -25 -7 -35 -5 -17 -5 -17 6 0 6 10 9 25 7 35
-4 15 -5 15 -6 0z"/>
<path d="M9510 12210 c0 -16 2 -30 4 -30 2 0 6 14 8 30 3 17 1 30 -4 30 -4 0
-8 -13 -8 -30z"/>
<path d="M9550 12231 c0 -5 -3 -16 -6 -24 -3 -8 1 -17 9 -20 10 -4 14 3 13 24
-1 16 -4 29 -8 29 -5 0 -8 -4 -8 -9z"/>
<path d="M9592 12215 c0 -16 2 -22 5 -12 2 9 2 23 0 30 -3 6 -5 -1 -5 -18z"/>
<path d="M9625 12230 c-3 -6 1 -7 9 -4 18 7 21 14 7 14 -6 0 -13 -4 -16 -10z"/>
<path d="M9672 12216 c1 -15 6 -26 10 -26 12 0 10 38 -2 45 -6 4 -9 -5 -8 -19z"/>
<path d="M9716 12225 c-3 -9 -6 -22 -5 -28 0 -7 5 -1 10 12 5 13 8 26 5 28 -2
2 -6 -3 -10 -12z"/>
<path d="M9992 12215 c-6 -14 -7 -25 -2 -25 9 0 25 39 18 46 -3 2 -10 -7 -16
-21z"/>
<path d="M10232 12220 c0 -14 2 -19 5 -12 2 6 2 18 0 25 -3 6 -5 1 -5 -13z"/>
<path d="M10291 12224 c0 -11 3 -14 6 -6 3 7 2 16 -1 19 -3 4 -6 -2 -5 -13z"/>
<path d="M10705 12230 c-3 -5 -1 -10 4 -10 6 0 11 5 11 10 0 6 -2 10 -4 10 -3
0 -8 -4 -11 -10z"/>
<path d="M11201 12224 c0 -11 3 -14 6 -6 3 7 2 16 -1 19 -3 4 -6 -2 -5 -13z"/>
<path d="M11711 12224 c0 -11 3 -14 6 -6 3 7 2 16 -1 19 -3 4 -6 -2 -5 -13z"/>
<path d="M12037 12229 c7 -7 15 -10 18 -7 3 3 -2 9 -12 12 -14 6 -15 5 -6 -5z"/>
<path d="M12125 12230 c-3 -5 -1 -10 4 -10 6 0 11 5 11 10 0 6 -2 10 -4 10 -3
0 -8 -4 -11 -10z"/>
<path d="M12490 12230 c0 -5 5 -10 11 -10 5 0 7 5 4 10 -3 6 -8 10 -11 10 -2
0 -4 -4 -4 -10z"/>
<path d="M8986 12215 c-9 -26 -7 -32 5 -12 6 10 9 21 6 23 -2 3 -7 -2 -11 -11z"/>
<path d="M9050 12211 c0 -11 4 -22 9 -25 4 -3 6 6 3 19 -5 30 -12 33 -12 6z"/>
<path d="M9112 12210 c0 -14 2 -19 5 -12 2 6 2 18 0 25 -3 6 -5 1 -5 -13z"/>
<path d="M10511 12214 c0 -11 3 -14 6 -6 3 7 2 16 -1 19 -3 4 -6 -2 -5 -13z"/>
<path d="M10991 12214 c0 -11 3 -14 6 -6 3 7 2 16 -1 19 -3 4 -6 -2 -5 -13z"/>
<path d="M11070 12214 c0 -8 5 -12 10 -9 6 4 8 11 5 16 -9 14 -15 11 -15 -7z"/>
<path d="M10675 12210 c-3 -5 -1 -10 4 -10 6 0 11 5 11 10 0 6 -2 10 -4 10 -3
0 -8 -4 -11 -10z"/>
<path d="M9785 12200 c-3 -5 -1 -10 4 -10 6 0 11 5 11 10 0 6 -2 10 -4 10 -3
0 -8 -4 -11 -10z"/>
<path d="M10265 12200 c-3 -5 -1 -10 4 -10 6 0 11 5 11 10 0 6 -2 10 -4 10 -3
0 -8 -4 -11 -10z"/>
<path d="M10391 12064 c0 -11 3 -14 6 -6 3 7 2 16 -1 19 -3 4 -6 -2 -5 -13z"/>
<path d="M10431 12064 c0 -11 3 -14 6 -6 3 7 2 16 -1 19 -3 4 -6 -2 -5 -13z"/>
<path d="M9952 12050 c0 -14 2 -19 5 -12 2 6 2 18 0 25 -3 6 -5 1 -5 -13z"/>
<path d="M12842 11800 c0 -19 2 -27 5 -17 2 9 2 25 0 35 -3 9 -5 1 -5 -18z"/>
<path d="M11672 11790 c0 -19 2 -27 5 -17 2 9 2 25 0 35 -3 9 -5 1 -5 -18z"/>
<path d="M11842 11790 c0 -19 2 -27 5 -17 2 9 2 25 0 35 -3 9 -5 1 -5 -18z"/>
<path d="M12040 11790 c0 -16 4 -30 8 -30 5 0 7 14 4 30 -2 17 -6 30 -8 30 -2
0 -4 -13 -4 -30z"/>
<path d="M12161 11804 c0 -11 3 -14 6 -6 3 7 2 16 -1 19 -3 4 -6 -2 -5 -13z"/>
<path d="M12232 11795 c0 -16 2 -22 5 -12 2 9 2 23 0 30 -3 6 -5 -1 -5 -18z"/>
<path d="M12272 11790 c0 -19 2 -27 5 -17 2 9 2 25 0 35 -3 9 -5 1 -5 -18z"/>
<path d="M12400 11795 c0 -14 2 -25 4 -25 2 0 6 11 8 25 3 14 1 25 -3 25 -5 0
-9 -11 -9 -25z"/>
<path d="M12462 11795 c0 -16 2 -22 5 -12 2 9 2 23 0 30 -3 6 -5 -1 -5 -18z"/>
<path d="M12485 11789 c0 -16 3 -29 8 -29 4 0 7 11 7 24 0 14 -3 27 -7 29 -5
3 -8 -8 -8 -24z"/>
<path d="M12516 11805 c-9 -26 -7 -32 5 -12 6 10 9 21 6 23 -2 3 -7 -2 -11
-11z"/>
<path d="M12550 11804 c0 -8 5 -12 10 -9 6 4 8 11 5 16 -9 14 -15 11 -15 -7z"/>
<path d="M12698 11795 c2 -14 6 -25 8 -25 2 0 4 11 4 25 0 14 -4 25 -9 25 -4
0 -6 -11 -3 -25z"/>
<path d="M12729 11788 c4 -28 6 -29 9 -9 2 13 0 27 -5 32 -6 6 -7 -3 -4 -23z"/>
<path d="M12782 11795 c0 -16 2 -22 5 -12 2 9 2 23 0 30 -3 6 -5 -1 -5 -18z"/>
<path d="M12940 11811 c0 -6 4 -13 10 -16 6 -3 7 1 4 9 -7 18 -14 21 -14 7z"/>
<path d="M9070 11790 c0 -11 2 -20 4 -20 2 0 6 9 9 20 3 11 1 20 -4 20 -5 0
-9 -9 -9 -20z"/>
<path d="M9113 11803 c4 -3 2 -12 -4 -20 -9 -9 -8 -13 0 -13 6 0 11 2 11 4 0
2 3 11 6 20 4 10 1 16 -7 16 -7 0 -9 -3 -6 -7z"/>
<path d="M9152 11780 c0 -19 2 -27 5 -17 2 9 2 25 0 35 -3 9 -5 1 -5 -18z"/>
<path d="M9201 11788 c-1 -16 -6 -28 -13 -28 -6 0 -9 -3 -5 -6 14 -14 33 12
26 36 l-7 25 -1 -27z"/>
<path d="M9232 11781 c1 -17 5 -28 10 -25 11 7 10 41 -1 49 -5 3 -9 -8 -9 -24z"/>
<path d="M9470 11780 c0 -16 2 -30 4 -30 2 0 6 14 8 30 3 17 1 30 -4 30 -4 0
-8 -13 -8 -30z"/>
<path d="M9682 11790 c0 -14 2 -19 5 -12 2 6 2 18 0 25 -3 6 -5 1 -5 -13z"/>
<path d="M9716 11795 c4 -8 8 -15 10 -15 2 0 4 7 4 15 0 8 -4 15 -10 15 -5 0
-7 -7 -4 -15z"/>
<path d="M9792 11785 c0 -16 2 -22 5 -12 2 9 2 23 0 30 -3 6 -5 -1 -5 -18z"/>
<path d="M9960 11800 c0 -8 5 -22 10 -30 9 -13 10 -13 10 0 0 8 -5 22 -10 30
-9 13 -10 13 -10 0z"/>
<path d="M10037 11803 c-9 -9 -9 -41 1 -46 4 -3 7 8 7 24 0 16 0 29 -1 29 0 0
-4 -3 -7 -7z"/>
<path d="M10076 11783 c7 -39 14 -42 14 -5 0 18 -4 32 -9 32 -5 0 -7 -12 -5
-27z"/>
<path d="M10110 11780 c0 -16 2 -30 4 -30 2 0 6 14 8 30 3 17 1 30 -4 30 -4 0
-8 -13 -8 -30z"/>
<path d="M10147 11798 c-2 -7 -1 -22 4 -33 6 -16 8 -14 8 13 1 33 -4 41 -12
20z"/>
<path d="M10271 11794 c0 -11 3 -14 6 -6 3 7 2 16 -1 19 -3 4 -6 -2 -5 -13z"/>
<path d="M10382 11780 c0 -19 2 -27 5 -17 2 9 2 25 0 35 -3 9 -5 1 -5 -18z"/>
<path d="M10441 11794 c0 -11 3 -14 6 -6 3 7 2 16 -1 19 -3 4 -6 -2 -5 -13z"/>
<path d="M10602 11780 c0 -19 2 -27 5 -17 2 9 2 25 0 35 -3 9 -5 1 -5 -18z"/>
<path d="M10717 11796 c-4 -10 -7 -25 -6 -34 0 -11 4 -9 10 7 5 13 8 29 6 35
-2 5 -6 2 -10 -8z"/>
<path d="M10755 11780 c0 -15 3 -26 8 -23 4 2 7 13 7 23 0 10 -3 21 -7 23 -5
3 -8 -8 -8 -23z"/>
<path d="M10792 11780 c0 -19 2 -27 5 -17 2 9 2 25 0 35 -3 9 -5 1 -5 -18z"/>
<path d="M10832 11790 c0 -14 2 -19 5 -12 2 6 2 18 0 25 -3 6 -5 1 -5 -13z"/>
<path d="M10872 11785 c0 -16 2 -22 5 -12 2 9 2 23 0 30 -3 6 -5 -1 -5 -18z"/>
<path d="M10992 11785 c0 -16 2 -22 5 -12 2 9 2 23 0 30 -3 6 -5 -1 -5 -18z"/>
<path d="M11025 11789 c-4 -12 -2 -26 4 -32 8 -8 11 -2 11 21 0 37 -6 41 -15
11z"/>
<path d="M11099 11782 c-3 -20 -2 -29 4 -23 5 5 7 19 5 32 -3 20 -5 19 -9 -9z"/>
<path d="M11230 11786 c0 -14 4 -27 8 -30 5 -3 6 8 4 25 -5 35 -12 38 -12 5z"/>
<path d="M11272 11785 c0 -16 2 -22 5 -12 2 9 2 23 0 30 -3 6 -5 -1 -5 -18z"/>
<path d="M11312 11780 c0 -19 2 -27 5 -17 2 9 2 25 0 35 -3 9 -5 1 -5 -18z"/>
<path d="M11352 11785 c0 -16 2 -22 5 -12 2 9 2 23 0 30 -3 6 -5 -1 -5 -18z"/>
<path d="M11390 11798 c0 -7 5 -20 10 -28 8 -12 10 -9 10 13 0 15 -4 27 -10
27 -5 0 -10 -6 -10 -12z"/>
<path d="M11442 11779 c6 -16 12 -29 13 -27 6 6 -8 58 -16 58 -4 0 -3 -14 3
-31z"/>
<path d="M11475 11800 c3 -5 8 -10 11 -10 2 0 4 5 4 10 0 6 -5 10 -11 10 -5 0
-7 -4 -4 -10z"/>
<path d="M11550 11793 c0 -10 5 -25 10 -33 7 -11 9 -6 7 17 -2 34 -17 47 -17
16z"/>
<path d="M11590 11791 c0 -11 5 -23 10 -26 6 -4 10 5 10 19 0 14 -4 26 -10 26
-5 0 -10 -9 -10 -19z"/>
<path d="M11632 11785 c0 -16 2 -22 5 -12 2 9 2 23 0 30 -3 6 -5 -1 -5 -18z"/>
<path d="M11758 11785 c2 -14 6 -25 8 -25 2 0 4 11 4 25 0 14 -4 25 -9 25 -4
0 -6 -11 -3 -25z"/>
<path d="M11798 11785 c2 -14 6 -25 8 -25 2 0 4 11 4 25 0 14 -4 25 -9 25 -4
0 -6 -11 -3 -25z"/>
<path d="M11912 11790 c0 -14 2 -19 5 -12 2 6 2 18 0 25 -3 6 -5 1 -5 -13z"/>
<path d="M11950 11785 c0 -14 4 -25 9 -25 4 0 6 11 3 25 -2 14 -6 25 -8 25 -2
0 -4 -11 -4 -25z"/>
<path d="M12012 11785 c0 -16 2 -22 5 -12 2 9 2 23 0 30 -3 6 -5 -1 -5 -18z"/>
<path d="M12202 11785 c0 -16 2 -22 5 -12 2 9 2 23 0 30 -3 6 -5 -1 -5 -18z"/>
<path d="M12342 11785 c0 -16 2 -22 5 -12 2 9 2 23 0 30 -3 6 -5 -1 -5 -18z"/>
<path d="M12602 11790 c0 -14 2 -19 5 -12 2 6 2 18 0 25 -3 6 -5 1 -5 -13z"/>
<path d="M12672 11790 c0 -14 2 -19 5 -12 2 6 2 18 0 25 -3 6 -5 1 -5 -13z"/>
<path d="M9272 11775 c0 -16 2 -22 5 -12 2 9 2 23 0 30 -3 6 -5 -1 -5 -18z"/>
<path d="M9342 11775 c0 -16 2 -22 5 -12 2 9 2 23 0 30 -3 6 -5 -1 -5 -18z"/>
<path d="M9390 11775 c0 -14 4 -25 9 -25 4 0 6 11 3 25 -2 14 -6 25 -8 25 -2
0 -4 -11 -4 -25z"/>
<path d="M9552 11775 c0 -16 2 -22 5 -12 2 9 2 23 0 30 -3 6 -5 -1 -5 -18z"/>
<path d="M9582 11780 c0 -14 2 -19 5 -12 2 6 2 18 0 25 -3 6 -5 1 -5 -13z"/>
<path d="M9632 11780 c0 -14 2 -19 5 -12 2 6 2 18 0 25 -3 6 -5 1 -5 -13z"/>
<path d="M10192 11778 c2 -16 6 -24 11 -19 5 5 5 17 -2 28 -9 16 -10 15 -9 -9z"/>
<path d="M10302 11775 c0 -16 2 -22 5 -12 2 9 2 23 0 30 -3 6 -5 -1 -5 -18z"/>
<path d="M10482 11780 c0 -14 2 -19 5 -12 2 6 2 18 0 25 -3 6 -5 1 -5 -13z"/>
<path d="M10581 11784 c0 -11 3 -14 6 -6 3 7 2 16 -1 19 -3 4 -6 -2 -5 -13z"/>
<path d="M10682 11775 c0 -16 2 -22 5 -12 2 9 2 23 0 30 -3 6 -5 -1 -5 -18z"/>
<path d="M11062 11775 c0 -16 2 -22 5 -12 2 9 2 23 0 30 -3 6 -5 -1 -5 -18z"/>
<path d="M11152 11780 c0 -14 2 -19 5 -12 2 6 2 18 0 25 -3 6 -5 1 -5 -13z"/>
<path d="M11192 11780 c0 -14 2 -19 5 -12 2 6 2 18 0 25 -3 6 -5 1 -5 -13z"/>
<path d="M12911 11784 c0 -11 3 -14 6 -6 3 7 2 16 -1 19 -3 4 -6 -2 -5 -13z"/>
<path d="M13015 11789 c-4 -6 -5 -12 -2 -15 2 -3 7 2 10 11 7 17 1 20 -8 4z"/>
<path d="M9512 11770 c0 -14 2 -19 5 -12 2 6 2 18 0 25 -3 6 -5 1 -5 -13z"/>
<path d="M9747 11769 c4 -13 8 -18 11 -10 2 7 -1 18 -6 23 -8 8 -9 4 -5 -13z"/>
<path d="M9841 11774 c0 -11 3 -14 6 -6 3 7 2 16 -1 19 -3 4 -6 -2 -5 -13z"/>
<path d="M10241 11774 c0 -11 3 -14 6 -6 3 7 2 16 -1 19 -3 4 -6 -2 -5 -13z"/>
<path d="M10332 11770 c0 -14 2 -19 5 -12 2 6 2 18 0 25 -3 6 -5 1 -5 -13z"/>
<path d="M10552 11770 c0 -14 2 -19 5 -12 2 6 2 18 0 25 -3 6 -5 1 -5 -13z"/>
<path d="M10942 11770 c0 -14 2 -19 5 -12 2 6 2 18 0 25 -3 6 -5 1 -5 -13z"/>
<path d="M11501 11774 c0 -11 3 -14 6 -6 3 7 2 16 -1 19 -3 4 -6 -2 -5 -13z"/>
<path d="M11716 11775 c-3 -8 -1 -15 4 -15 6 0 10 7 10 15 0 8 -2 15 -4 15 -2
0 -6 -7 -10 -15z"/>
<path d="M12141 11774 c0 -11 3 -14 6 -6 3 7 2 16 -1 19 -3 4 -6 -2 -5 -13z"/>
<path d="M12571 11774 c0 -11 3 -14 6 -6 3 7 2 16 -1 19 -3 4 -6 -2 -5 -13z"/>
<path d="M12631 11774 c0 -11 3 -14 6 -6 3 7 2 16 -1 19 -3 4 -6 -2 -5 -13z"/>
<path d="M9300 11771 c0 -6 4 -13 10 -16 6 -3 7 1 4 9 -7 18 -14 21 -14 7z"/>
<path d="M9650 11764 c0 -8 5 -12 10 -9 6 3 10 10 10 16 0 5 -4 9 -10 9 -5 0
-10 -7 -10 -16z"/>
<path d="M9881 11764 c0 -11 3 -14 6 -6 3 7 2 16 -1 19 -3 4 -6 -2 -5 -13z"/>
<path d="M9365 11760 c-3 -5 -1 -10 4 -10 6 0 11 5 11 10 0 6 -2 10 -4 10 -3
0 -8 -4 -11 -10z"/>
<path d="M10112 11564 c-1 -26 1 -44 4 -42 6 7 8 77 2 83 -3 3 -6 -15 -6 -41z"/>
<path d="M10154 11559 c-1 -21 2 -39 6 -39 7 0 7 66 -1 74 -2 3 -5 -13 -5 -35z"/>
<path d="M10522 11588 c-7 -7 -11 -23 -11 -37 l2 -26 4 25 c3 14 10 31 15 38
13 15 6 16 -10 0z"/>
<path d="M10837 11593 c-4 -3 -7 -20 -6 -37 l1 -31 8 35 c9 36 8 45 -3 33z"/>
<path d="M11673 11565 c0 -22 2 -30 4 -17 2 12 2 30 0 40 -3 9 -5 -1 -4 -23z"/>
<path d="M11705 11590 c-3 -5 -2 -10 4 -10 5 0 13 5 16 10 3 6 2 10 -4 10 -5
0 -13 -4 -16 -10z"/>
<path d="M11752 11570 c0 -19 2 -27 5 -17 2 9 2 25 0 35 -3 9 -5 1 -5 -18z"/>
<path d="M11833 11565 c0 -22 2 -30 4 -17 2 12 2 30 0 40 -3 9 -5 -1 -4 -23z"/>
<path d="M11877 11593 c-4 -3 -7 -20 -7 -36 0 -39 13 -27 14 13 1 16 1 30 0
30 0 0 -4 -3 -7 -7z"/>
<path d="M9893 11555 c0 -22 2 -30 4 -17 2 12 2 30 0 40 -3 9 -5 -1 -4 -23z"/>
<path d="M9922 11565 c0 -16 2 -22 5 -12 2 9 2 23 0 30 -3 6 -5 -1 -5 -18z"/>
<path d="M9955 11580 c3 -5 8 -10 11 -10 2 0 4 5 4 10 0 6 -5 10 -11 10 -5 0
-7 -4 -4 -10z"/>
<path d="M10075 11580 c-3 -5 -1 -10 4 -10 6 0 11 5 11 10 0 6 -2 10 -4 10 -3
0 -8 -4 -11 -10z"/>
<path d="M10194 11576 c-3 -8 -4 -25 -2 -38 3 -17 5 -13 9 15 5 38 2 47 -7 23z"/>
<path d="M10270 11560 c0 -16 3 -30 8 -30 4 0 7 14 7 30 0 17 -3 30 -7 30 -5
0 -8 -13 -8 -30z"/>
<path d="M10319 11558 c4 -28 6 -29 9 -9 2 13 0 27 -5 32 -6 6 -7 -3 -4 -23z"/>
<path d="M10350 11580 c0 -5 5 -10 10 -10 6 0 10 5 10 10 0 6 -4 10 -10 10 -5
0 -10 -4 -10 -10z"/>
<path d="M10396 11581 c-4 -5 -2 -20 3 -33 8 -21 9 -20 9 10 -1 34 -3 38 -12
23z"/>
<path d="M10554 11576 c-3 -8 -4 -23 -2 -33 3 -11 6 -6 9 15 6 34 2 42 -7 18z"/>
<path d="M10598 11560 c-3 -16 -1 -30 4 -30 4 0 8 14 8 30 0 17 -2 30 -4 30
-2 0 -6 -13 -8 -30z"/>
<path d="M10672 11560 c0 -19 2 -27 5 -17 2 9 2 25 0 35 -3 9 -5 1 -5 -18z"/>
<path d="M10710 11560 c0 -16 2 -30 4 -30 2 0 6 14 8 30 3 17 1 30 -4 30 -4 0
-8 -13 -8 -30z"/>
<path d="M10757 11583 c-9 -9 -9 -53 1 -53 4 0 7 14 8 30 1 32 1 33 -9 23z"/>
<path d="M10792 11560 c0 -19 2 -27 5 -17 2 9 2 25 0 35 -3 9 -5 1 -5 -18z"/>
<path d="M10870 11560 c0 -16 2 -30 4 -30 2 0 6 14 8 30 3 17 1 30 -4 30 -4 0
-8 -13 -8 -30z"/>
<path d="M10910 11560 c0 -16 3 -30 8 -30 4 0 7 14 7 30 0 17 -3 30 -7 30 -5
0 -8 -13 -8 -30z"/>
<path d="M10950 11560 c0 -16 2 -30 4 -30 2 0 6 14 8 30 3 17 1 30 -4 30 -4 0
-8 -13 -8 -30z"/>
<path d="M10990 11560 c0 -16 3 -30 8 -30 4 0 7 14 7 30 0 17 -3 30 -7 30 -5
0 -8 -13 -8 -30z"/>
<path d="M11032 11558 c-3 -37 2 -35 12 5 3 15 3 27 -2 27 -4 0 -9 -14 -10
-32z"/>
<path d="M11070 11560 c0 -16 3 -30 8 -30 4 0 7 14 7 30 0 17 -3 30 -7 30 -5
0 -8 -13 -8 -30z"/>
<path d="M11113 11557 c-2 -23 0 -28 7 -17 12 18 13 50 3 50 -5 0 -9 -15 -10
-33z"/>
<path d="M11150 11560 c0 -16 2 -30 4 -30 2 0 6 14 8 30 3 17 1 30 -4 30 -4 0
-8 -13 -8 -30z"/>
<path d="M11190 11558 c0 -36 4 -35 14 5 4 16 2 27 -4 27 -5 0 -10 -14 -10
-32z"/>
<path d="M11230 11560 c0 -16 3 -30 8 -30 4 0 7 14 7 30 0 17 -3 30 -7 30 -5
0 -8 -13 -8 -30z"/>
<path d="M11274 11559 c-1 -20 2 -26 7 -17 11 16 12 48 2 48 -5 0 -8 -14 -9
-31z"/>
<path d="M11310 11560 c0 -16 2 -30 4 -30 2 0 6 14 8 30 3 17 1 30 -4 30 -4 0
-8 -13 -8 -30z"/>
<path d="M11352 11560 c0 -19 2 -27 5 -17 2 9 2 25 0 35 -3 9 -5 1 -5 -18z"/>
<path d="M11390 11560 c0 -16 2 -30 4 -30 2 0 6 14 8 30 3 17 1 30 -4 30 -4 0
-8 -13 -8 -30z"/>
<path d="M11432 11560 c0 -19 2 -27 5 -17 2 9 2 25 0 35 -3 9 -5 1 -5 -18z"/>
<path d="M11472 11560 c0 -19 2 -27 5 -17 2 9 2 25 0 35 -3 9 -5 1 -5 -18z"/>
<path d="M11510 11580 c0 -5 5 -10 10 -10 6 0 10 5 10 10 0 6 -4 10 -10 10 -5
0 -10 -4 -10 -10z"/>
<path d="M11550 11566 c0 -14 4 -27 9 -30 4 -3 8 8 7 24 -1 36 -16 41 -16 6z"/>
<path d="M11592 11565 c0 -16 2 -22 5 -12 2 9 2 23 0 30 -3 6 -5 -1 -5 -18z"/>
<path d="M11630 11565 c0 -14 2 -25 4 -25 2 0 6 11 8 25 3 14 1 25 -3 25 -5 0
-9 -11 -9 -25z"/>
<path d="M11995 11565 c0 -14 3 -25 8 -25 4 0 7 11 7 25 0 14 -3 25 -7 25 -5
0 -8 -11 -8 -25z"/>
<path d="M12030 11575 c0 -8 2 -15 4 -15 2 0 6 7 10 15 3 8 1 15 -4 15 -6 0
-10 -7 -10 -15z"/>
<path d="M12071 11567 c17 -32 19 -33 19 -10 0 12 -7 23 -15 27 -13 5 -14 2
-4 -17z"/>
<path d="M12157 11570 c3 -11 7 -20 9 -20 2 0 4 9 4 20 0 11 -4 20 -9 20 -5 0
-7 -9 -4 -20z"/>
<path d="M12194 11575 c-3 -8 -4 -20 -2 -27 3 -7 7 -1 10 15 6 29 1 36 -8 12z"/>
<path d="M12228 11564 c2 -13 8 -21 13 -18 14 8 11 31 -4 37 -10 4 -13 -2 -9
-19z"/>
<path d="M12308 11563 c5 -21 7 -23 10 -9 2 10 0 22 -6 28 -6 6 -7 0 -4 -19z"/>
<path d="M9990 11555 c1 -26 2 -28 11 -12 8 14 8 22 0 30 -8 8 -11 3 -11 -18z"/>
<path d="M10042 11550 c0 -19 2 -27 5 -17 2 9 2 25 0 35 -3 9 -5 1 -5 -18z"/>
<path d="M10232 11550 c0 -19 2 -27 5 -17 2 9 2 25 0 35 -3 9 -5 1 -5 -18z"/>
<path d="M10435 11555 c0 -14 3 -25 8 -25 4 0 7 11 7 25 0 14 -3 25 -7 25 -5
0 -8 -11 -8 -25z"/>
<path d="M10478 11555 c-3 -14 -1 -25 3 -25 5 0 9 11 9 25 0 14 -2 25 -4 25
-2 0 -6 -11 -8 -25z"/>
<path d="M11952 11560 c0 -14 2 -19 5 -12 2 6 2 18 0 25 -3 6 -5 1 -5 -13z"/>
<path d="M9591 11554 c0 -11 3 -14 6 -6 3 7 2 16 -1 19 -3 4 -6 -2 -5 -13z"/>
<path d="M10632 11550 c0 -14 2 -19 5 -12 2 6 2 18 0 25 -3 6 -5 1 -5 -13z"/>
<path d="M11912 11550 c0 -14 2 -19 5 -12 2 6 2 18 0 25 -3 6 -5 1 -5 -13z"/>
<path d="M12261 11554 c0 -11 3 -14 6 -6 3 7 2 16 -1 19 -3 4 -6 -2 -5 -13z"/>
<path d="M9957 11539 c4 -13 8 -18 11 -10 2 7 -1 18 -6 23 -8 8 -9 4 -5 -13z"/>
<path d="M10361 11544 c0 -11 3 -14 6 -6 3 7 2 16 -1 19 -3 4 -6 -2 -5 -13z"/>
<path d="M11501 11544 c0 -11 3 -14 6 -6 3 7 2 16 -1 19 -3 4 -6 -2 -5 -13z"/>
<path d="M11700 11551 c0 -10 19 -25 25 -20 1 2 -3 10 -11 17 -8 7 -14 8 -14
3z"/>
<path d="M9741 11534 c0 -11 3 -14 6 -6 3 7 2 16 -1 19 -3 4 -6 -2 -5 -13z"/>
<path d="M10802 10130 c0 -14 2 -19 5 -12 2 6 2 18 0 25 -3 6 -5 1 -5 -13z"/>
<path d="M10992 10130 c0 -14 2 -19 5 -12 2 6 2 18 0 25 -3 6 -5 1 -5 -13z"/>
<path d="M10592 10120 c0 -14 2 -19 5 -12 2 6 2 18 0 25 -3 6 -5 1 -5 -13z"/>
<path d="M11192 10115 c0 -16 2 -22 5 -12 2 9 2 23 0 30 -3 6 -5 -1 -5 -18z"/>
<path d="M10921 10104 c0 -11 3 -14 6 -6 3 7 2 16 -1 19 -3 4 -6 -2 -5 -13z"/>
<path d="M10550 9530 l0 -40 165 -2 c91 -1 188 -2 217 -2 28 -1 53 4 55 9 2 6
-68 11 -193 12 -178 2 -232 8 -196 20 18 7 15 21 -5 27 -10 3 76 4 191 2 115
-1 200 1 190 5 -11 4 -110 8 -221 8 l-203 1 0 -40z"/>
<path d="M10948 9523 c6 -2 18 -2 25 0 6 3 1 5 -13 5 -14 0 -19 -2 -12 -5z"/>
<path d="M9650 8555 c0 -8 5 -15 10 -15 6 0 10 7 10 15 0 8 -4 15 -10 15 -5 0
-10 -7 -10 -15z"/>
<path d="M9745 8543 c-12 -28 -14 -43 -5 -43 5 0 12 5 15 10 11 18 26 10 23
-12 -2 -14 -11 -24 -24 -26 -21 -3 -27 -11 -59 -89 -10 -24 -21 -43 -25 -43
-14 0 -39 -76 -44 -132 -3 -45 -1 -58 9 -58 16 0 29 35 19 51 -3 6 -1 15 6 19
8 5 14 24 14 44 1 20 6 36 13 36 15 0 103 151 103 177 0 68 -27 107 -45 66z"/>
<path d="M9967 8553 c-11 -3 -16 -11 -13 -19 4 -9 -7 -20 -32 -32 -20 -9 -38
-25 -40 -36 -2 -10 -15 -28 -29 -40 -24 -21 -25 -23 -8 -39 13 -14 14 -21 5
-32 -6 -8 -9 -18 -6 -24 4 -5 -3 -12 -14 -16 -11 -3 -20 -10 -20 -15 0 -4 -9
-10 -21 -13 -11 -3 -23 -15 -26 -26 -5 -21 -33 -30 -33 -11 0 6 -5 10 -11 10
-8 0 -8 -4 1 -15 9 -11 5 -26 -25 -74 -20 -32 -45 -61 -55 -64 -19 -5 -30 -61
-29 -150 0 -27 -2 -87 -6 -133 l-7 -84 27 10 c45 17 85 50 85 69 0 10 10 26
23 34 l22 16 -32 7 c-18 3 -33 12 -33 18 0 12 50 53 59 48 3 -2 9 5 13 15 9
20 4 -9 -9 -57 -6 -24 -6 -25 18 -8 13 9 23 21 22 26 -1 6 6 8 16 5 13 -3 33
9 60 36 23 23 48 41 56 41 8 0 15 4 15 10 0 12 74 89 86 91 56 9 62 6 58 -30
-2 -23 3 -43 14 -56 17 -20 17 -20 -5 -2 -22 19 -41 8 -27 -15 4 -7 4 -10 -1
-6 -5 5 -13 -2 -19 -15 -7 -13 -21 -22 -36 -23 -39 0 -61 -18 -65 -49 -2 -27
-14 -41 -61 -73 -17 -11 -17 -12 6 -6 13 4 36 8 50 9 15 1 32 5 37 8 6 4 17 5
25 2 19 -7 53 41 62 87 7 39 26 62 26 32 0 -12 10 -7 40 20 40 36 193 119 203
110 2 -3 38 2 79 11 42 8 82 13 91 9 13 -5 13 1 5 41 -11 51 -8 58 24 60 12 1
23 6 25 12 4 10 -48 23 -112 28 -16 1 -36 3 -42 4 -7 0 -13 14 -13 30 0 17 -5
33 -10 36 -6 4 -8 10 -5 15 3 5 1 19 -4 32 -8 22 -1 98 14 145 6 20 3 21 -67
27 -107 8 -330 14 -351 9z m-8 -220 c-7 -12 -23 -20 -40 -20 l-29 0 38 23 c42
25 49 25 31 -3z m463 -145 c-7 -7 -12 -8 -12 -2 0 14 12 26 19 19 2 -3 -1 -11
-7 -17z m-43 -20 c-8 -14 -14 -18 -17 -10 -4 13 17 46 25 38 3 -2 -1 -15 -8
-28z m-239 8 c0 -3 -4 -8 -10 -11 -5 -3 -10 -1 -10 4 0 6 5 11 10 11 6 0 10
-2 10 -4z m-497 -198 c-8 -46 -13 -48 -13 -5 0 21 4 37 10 37 5 0 7 -14 3 -32z
m149 -20 c-7 -7 -12 -8 -12 -2 0 14 12 26 19 19 2 -3 -1 -11 -7 -17z m38 -7
c0 -6 -4 -13 -10 -16 -5 -3 -10 1 -10 9 0 9 5 16 10 16 6 0 10 -4 10 -9z
m-178 -80 c2 -16 -3 -24 -14 -26 -19 -3 -24 10 -9 19 5 3 7 16 4 29 -4 16 -3
19 5 12 6 -6 13 -21 14 -34z"/>
<path d="M10408 8515 c5 -28 17 -33 26 -10 3 8 -2 19 -13 24 -16 9 -17 7 -13
-14z"/>
<path d="M10520 8505 c0 -16 6 -25 15 -25 8 0 15 7 15 15 0 8 4 15 9 15 6 0 8
-25 5 -57 l-4 -58 17 30 18 30 3 -28 c3 -25 5 -27 16 -12 6 9 20 17 31 19 13
2 20 11 21 27 0 13 4 32 8 42 8 17 9 17 21 0 7 -10 11 -21 9 -25 -6 -9 38 -98
48 -98 4 0 8 34 8 75 l0 75 -120 0 -120 0 0 -25z m119 -41 c-17 -21 -31 -17
-19 6 6 11 15 18 21 14 6 -4 6 -11 -2 -20z"/>
<path d="M11023 8513 c15 -2 39 -2 55 0 15 2 2 4 -28 4 -30 0 -43 -2 -27 -4z"/>
<path d="M11120 8511 c0 -6 5 -11 10 -11 13 0 13 -37 1 -45 -6 -3 -13 -26 -17
-50 -6 -43 -8 -45 -40 -45 -19 0 -34 -3 -34 -8 0 -4 -10 -12 -22 -17 -12 -6
-23 -19 -24 -30 -7 -49 -7 -72 0 -102 10 -41 40 -48 131 -29 39 7 108 19 155
26 91 12 109 18 212 62 43 18 111 35 185 46 l118 18 5 82 5 82 -30 5 c-16 2
-129 7 -250 10 -121 3 -262 8 -312 11 -66 5 -93 3 -93 -5z"/>
<path d="M9640 8360 c0 -5 5 -10 11 -10 5 0 7 5 4 10 -3 6 -8 10 -11 10 -2 0
-4 -4 -4 -10z"/>
<path d="M10415 8350 c-16 -7 -12 -9 18 -9 23 -1 36 3 32 9 -7 12 -23 12 -50
0z"/>
<path d="M10480 8350 c0 -5 9 -10 20 -10 11 0 20 5 20 10 0 6 -9 10 -20 10
-11 0 -20 -4 -20 -10z"/>
<path d="M10610 8337 c0 -9 -7 -17 -15 -17 -20 0 -19 -39 1 -47 20 -7 32 11
28 44 -3 29 -14 44 -14 20z"/>
<path d="M10491 8311 c-9 -6 -10 -11 -2 -15 13 -8 31 1 31 15 0 11 -11 11 -29
0z"/>
<path d="M10636 8281 c-4 -7 -5 -15 -2 -18 9 -9 19 4 14 18 -4 11 -6 11 -12 0z"/>
<path d="M10585 8214 c-10 -15 -14 -32 -9 -42 6 -14 8 -13 11 6 3 12 8 22 13
22 4 0 10 9 13 20 7 28 -7 25 -28 -6z"/>
<path d="M11678 8123 c-32 -2 -58 -8 -58 -12 0 -19 30 -33 60 -26 21 5 35 2
46 -9 24 -24 54 -20 54 7 0 25 -18 48 -34 45 -6 -1 -37 -3 -68 -5z"/>
<path d="M11762 7990 c0 -19 2 -27 5 -17 2 9 2 25 0 35 -3 9 -5 1 -5 -18z"/>
<path d="M11750 7905 c0 -8 2 -15 4 -15 2 0 6 7 10 15 3 8 1 15 -4 15 -6 0
-10 -7 -10 -15z"/>
<path d="M9830 7829 c0 -5 5 -7 10 -4 6 3 10 8 10 11 0 2 -4 4 -10 4 -5 0 -10
-5 -10 -11z"/>
<path d="M9758 7823 c6 -2 12 -12 12 -21 0 -13 3 -13 12 -4 10 10 10 15 -2 22
-8 5 -19 9 -25 9 -5 0 -4 -3 3 -6z"/>
<path d="M7560 13590 c0 -5 5 -10 11 -10 5 0 7 5 4 10 -3 6 -8 10 -11 10 -2 0
-4 -4 -4 -10z"/>
<path d="M7398 13594 c-5 -4 -8 -16 -8 -28 0 -14 3 -17 11 -9 6 6 9 19 7 28
-1 9 -6 13 -10 9z"/>
<path d="M10680 7360 c0 -5 5 -10 10 -10 6 0 10 5 10 10 0 6 -4 10 -10 10 -5
0 -10 -4 -10 -10z"/>
<path d="M16750 15215 c13 -14 19 -25 12 -25 -6 0 5 -23 24 -51 18 -28 44 -81
56 -117 19 -60 21 -86 20 -247 -1 -99 -6 -270 -12 -380 -5 -110 -17 -348 -25
-530 -8 -181 -19 -411 -25 -510 -17 -309 -29 -573 -50 -1080 -27 -662 -27
-661 -39 -815 -12 -161 -34 -576 -61 -1170 -11 -239 -24 -507 -30 -595 -5 -88
-14 -288 -20 -445 -6 -157 -15 -357 -20 -445 -5 -88 -9 -215 -10 -282 0 -67
-4 -155 -10 -195 -10 -75 -18 -233 -45 -863 -8 -198 -20 -452 -26 -565 -9
-178 -10 -585 -1 -522 2 12 7 22 12 22 15 0 19 52 30 359 6 162 15 351 20 420
8 117 11 183 25 571 10 266 35 783 45 920 10 136 31 618 50 1135 6 154 17 379
25 500 8 121 16 270 19 330 21 417 26 529 36 765 6 146 15 333 20 415 9 133
22 418 60 1250 6 132 20 386 31 565 25 432 43 886 43 1150 l1 215 -37 77 c-22
46 -55 94 -83 122 -48 48 -76 64 -35 21z"/>
<path d="M5735 6574 c-21 -5 -67 -21 -100 -34 -11 -5 -57 -16 -102 -26 -85
-20 -90 -33 -13 -35 25 0 63 -7 85 -15 l40 -14 -35 5 c-19 2 -29 1 -22 -2 6
-2 12 -9 12 -15 0 -11 -330 0 -345 13 -9 7 -74 -4 -115 -19 -8 -3 8 -9 35 -12
35 -4 7 -7 -95 -11 -138 -6 -200 -19 -200 -42 0 -9 227 -4 340 7 25 2 32 2 15
-1 -16 -2 -34 -9 -39 -13 -9 -9 65 -13 262 -13 77 1 101 -2 92 -11 -28 -28
-651 -2 -675 29 -8 10 -21 11 -50 4 -22 -5 -57 -11 -79 -15 -74 -11 -20 -23
174 -39 209 -17 245 -22 190 -25 -38 -2 -87 -18 -59 -19 8 -1 24 -10 36 -20
13 -13 29 -17 48 -14 15 3 66 0 114 -7 76 -12 82 -14 56 -22 -40 -12 -617 18
-834 43 -92 11 -183 6 -209 -10 -21 -13 295 -39 752 -62 121 -6 229 -15 240
-19 23 -9 23 -9 -36 -14 -7 -1 -15 -4 -18 -8 -5 -6 -176 -58 -192 -58 -18 0
-6 19 15 23 22 4 22 4 0 6 -12 0 -28 -6 -36 -13 -15 -15 -90 -13 -367 13 -58
6 -152 13 -210 16 -58 3 -186 13 -285 21 -137 12 -202 14 -270 7 -65 -8 -77
-11 -42 -12 26 0 47 -6 47 -11 0 -6 3 -9 8 -8 16 4 132 -14 132 -21 0 -7 -154
-37 -260 -50 -44 -6 -121 -3 -233 8 -93 9 -170 14 -173 12 -7 -8 -4 -50 5 -55
15 -10 352 -36 457 -36 57 0 105 -4 108 -9 6 -8 296 -33 426 -35 41 -1 154
-12 250 -25 96 -12 227 -24 290 -26 63 -2 201 -12 305 -23 105 -12 264 -25
355 -31 91 -6 230 -17 310 -26 243 -26 895 -84 1070 -95 91 -6 257 -20 370
-30 113 -11 378 -33 590 -50 212 -16 430 -34 485 -40 168 -17 433 -37 802 -61
355 -24 378 -23 481 7 19 5 22 3 22 -19 0 -17 7 -27 23 -31 12 -3 135 -12 272
-20 138 -9 278 -18 313 -20 45 -4 80 0 125 14 77 24 77 24 77 0 0 -28 41 -36
285 -54 282 -22 325 -21 409 9 39 13 72 22 75 20 2 -3 0 -5 -6 -5 -19 0 -22
-40 -5 -49 30 -16 320 -43 470 -45 154 -1 155 -1 221 51 6 4 -28 29 -64 47
-28 13 -293 43 -443 48 l-63 3 30 33 c27 28 35 32 68 27 65 -9 553 -45 613
-45 37 0 62 -5 69 -14 10 -12 2 -17 -41 -31 -42 -14 -98 -41 -126 -61 -2 -1
-5 -18 -8 -37 -3 -28 0 -37 14 -41 27 -9 468 -46 545 -46 53 0 83 6 138 30 38
16 67 25 64 20 -4 -6 -8 -21 -11 -34 -5 -28 1 -29 166 -46 261 -26 405 -31
477 -19 42 8 75 19 78 26 6 17 -21 60 -45 73 -25 13 -151 27 -377 41 l-203 13
0 23 c0 21 4 23 33 19 17 -3 102 -10 187 -16 85 -6 175 -13 200 -16 280 -33
503 -26 543 17 10 10 25 19 35 19 9 1 33 7 52 14 19 8 85 32 145 54 133 48
268 103 275 113 3 3 21 10 40 14 19 4 64 22 100 40 36 18 91 41 123 51 31 10
57 21 57 26 0 4 18 11 41 14 22 4 46 12 52 19 7 6 30 15 52 19 48 8 138 37
145 45 3 4 18 12 34 19 23 10 31 10 45 0 14 -11 14 -11 4 2 -10 13 -7 18 15
27 15 6 52 16 82 23 30 6 65 16 78 22 23 12 30 28 11 28 -6 0 -23 13 -38 29
-30 32 -27 31 -266 51 -232 18 -291 11 -330 -41 -11 -16 -19 -20 -22 -11 -3 6
-20 12 -39 12 -23 0 -34 5 -34 15 0 8 -10 21 -23 30 -27 17 -167 32 -194 20
-23 -11 -96 -14 -86 -4 5 4 22 9 38 11 17 2 -32 4 -109 5 -121 2 -142 0 -165
-16 -39 -27 -90 -36 -97 -17 -3 8 -16 18 -27 22 -12 4 -27 14 -33 22 -9 13
-42 18 -145 23 -74 4 -177 10 -230 14 -91 7 -98 6 -119 -15 -12 -12 -24 -19
-27 -16 -3 3 -21 -1 -40 -9 -43 -18 -43 -18 -43 -2 0 6 -19 23 -42 36 -36 21
-64 25 -227 37 -252 18 -315 18 -331 -1 -20 -24 -92 -19 -122 9 -30 27 -72 32
-365 42 -182 7 -193 6 -231 -14 -36 -18 -42 -19 -53 -6 -23 28 -75 42 -180 48
-57 4 -159 11 -225 17 -104 8 -129 7 -169 -7 -30 -10 -57 -13 -74 -8 -14 4
-30 6 -35 5 -4 -1 -14 6 -21 15 -10 14 -40 18 -171 25 -87 5 -195 13 -240 18
-53 7 -93 6 -120 -1 -78 -20 -101 -20 -145 0 -45 20 -138 28 -624 53 -99 5
-220 14 -270 19 -49 6 -137 8 -194 5 -77 -4 -107 -2 -119 7 -16 14 -279 31
-502 32 -69 1 -132 5 -140 10 -8 6 -75 11 -149 12 -74 2 -166 8 -205 15 -45 7
-109 9 -177 5 -84 -5 -108 -4 -111 6 -4 10 -37 12 -142 11 -108 -2 -144 1
-167 13 -33 16 -250 27 -504 24 -95 -1 -142 3 -174 15 -32 11 -79 15 -163 14
-65 0 -150 5 -188 12 -57 10 -89 10 -168 -1 -54 -7 -105 -10 -113 -7 -8 3 2 6
21 7 l35 2 -30 10 c-16 6 -120 11 -230 13 -110 1 -222 5 -250 8 -27 3 -59 3
-70 1z m368 -121 c-7 -2 -19 -2 -25 0 -7 3 -2 5 12 5 14 0 19 -2 13 -5z m1480
-10 c-7 -2 -19 -2 -25 0 -7 3 -2 5 12 5 14 0 19 -2 13 -5z m-1278 -13 c4 -6
-6 -10 -24 -10 -16 0 -33 5 -36 10 -4 6 6 10 24 10 16 0 33 -4 36 -10z m52 -6
c-3 -3 -12 -4 -19 -1 -8 3 -5 6 6 6 11 1 17 -2 13 -5z m226 -21 c-7 -2 -21 -2
-30 0 -10 3 -4 5 12 5 17 0 24 -2 18 -5z m2324 -29 c-3 -3 -12 -4 -19 -1 -8 3
-5 6 6 6 11 1 17 -2 13 -5z m-3007 -20 c0 -2 -12 -4 -26 -4 -14 0 -23 4 -20 9
6 8 46 4 46 -5z m1635 6 c3 -5 1 -10 -4 -10 -6 0 -11 5 -11 10 0 6 2 10 4 10
3 0 8 -4 11 -10z m-1045 -21 c0 -5 -4 -7 -10 -4 -5 3 -10 1 -10 -4 0 -6 -10
-11 -22 -11 -23 1 -23 1 2 15 30 17 40 18 40 4z m-750 -10 c-66 -11 -99 -11
-80 1 8 5 40 9 70 9 l55 -2 -45 -8z m904 -4 c3 -8 1 -15 -4 -15 -6 0 -10 7
-10 15 0 8 2 15 4 15 2 0 6 -7 10 -15z m2939 8 c-7 -2 -21 -2 -30 0 -10 3 -4
5 12 5 17 0 24 -2 18 -5z m-2981 -15 c-17 -8 -26 -8 -34 0 -9 9 -4 12 23 11
32 0 33 -1 11 -11z m95 -4 c-3 -3 -12 -4 -19 -1 -8 3 -5 6 6 6 11 1 17 -2 13
-5z m1536 -11 c-7 -2 -19 -2 -25 0 -7 3 -2 5 12 5 14 0 19 -2 13 -5z m-2633
-23 c0 -5 -7 -10 -15 -10 -8 0 -15 5 -15 10 0 6 7 10 15 10 8 0 15 -4 15 -10z
m4587 4 c-3 -3 -12 -4 -19 -1 -8 3 -5 6 6 6 11 1 17 -2 13 -5z m-4547 -16 c0
-9 4 -8 10 2 7 10 13 11 18 5 4 -6 36 -19 72 -29 36 -10 70 -20 75 -21 6 -2
-16 -4 -47 -4 -34 -1 -58 3 -58 9 0 7 -34 9 -97 7 -54 -3 -78 -2 -53 0 32 3
40 7 30 13 -12 8 -10 10 8 10 13 0 20 4 17 10 -3 6 1 10 9 10 9 0 16 -6 16
-12z m1559 8 c-9 -10 -89 -14 -95 -5 -3 5 18 9 47 9 29 0 50 -2 48 -4z m58 -2
c-3 -3 -12 -4 -19 -1 -8 3 -5 6 6 6 11 1 17 -2 13 -5z m1703 -18 c0 -2 -13 -3
-30 -4 -19 0 -30 4 -30 13 0 11 6 12 30 4 17 -6 30 -12 30 -13z m565 -6 c-27
-12 -35 -12 -35 0 0 6 12 10 28 9 24 0 25 -1 7 -9z m1341 2 c-5 -8 -76 -4 -76
4 0 2 18 4 41 4 22 0 38 -4 35 -8z m-4581 -17 c6 -2 -12 -4 -40 -4 -27 0 -56
3 -63 8 -13 8 79 4 103 -4z m1448 -2 c-7 -2 -19 -2 -25 0 -7 3 -2 5 12 5 14 0
19 -2 13 -5z m1760 -10 c-7 -2 -21 -2 -30 0 -10 3 -4 5 12 5 17 0 24 -2 18 -5z
m-3055 -28 c3 -3 -28 -5 -69 -5 -67 0 -72 2 -49 13 23 12 104 7 118 -8z m1375
18 c-13 -2 -33 -2 -45 0 -13 2 -3 4 22 4 25 0 35 -2 23 -4z m78 -12 c-8 -5
-20 -7 -28 -4 -21 8 -15 13 15 13 20 0 23 -3 13 -9z m3647 2 c-16 -2 -40 -2
-55 0 -16 2 -3 4 27 4 30 0 43 -2 28 -4z m-6020 -10 c-10 -2 -26 -2 -35 0 -10
3 -2 5 17 5 19 0 27 -2 18 -5z m97 -2 c-14 -13 -93 -25 -80 -13 6 6 21 12 35
15 44 8 54 7 45 -2z m882 3 c-3 -3 -12 -4 -19 -1 -8 3 -5 6 6 6 11 1 17 -2 13
-5z m1908 -4 c-3 -5 -14 -10 -23 -10 -15 0 -15 2 -2 10 20 13 33 13 25 0z
m-2960 -10 c-3 -5 -14 -10 -23 -9 -14 0 -13 2 3 9 27 11 27 11 20 0z m3105
-10 c0 -13 -30 -13 -50 0 -11 7 -7 10 18 10 17 0 32 -4 32 -10z m3645 1 c22
-7 25 -10 10 -11 -49 -5 -87 -2 -96 7 -12 12 48 15 86 4z m-3592 -8 c-7 -2
-21 -2 -30 0 -10 3 -4 5 12 5 17 0 24 -2 18 -5z m-1678 -13 c-3 -5 -21 -9 -38
-9 l-32 1 30 8 c43 11 47 11 40 0z m170 0 c-7 -12 -45 -13 -63 -2 -8 6 3 9 28
10 25 1 39 -2 35 -8z m-1489 -15 c-3 -10 1 -15 12 -16 18 -2 28 -3 102 -18
l45 -8 -40 -3 c-39 -2 -39 -2 -10 -10 18 -5 -23 -8 -105 -7 -141 1 -171 8
-163 38 5 19 30 26 113 32 25 2 47 4 49 5 2 1 1 -5 -3 -13z m3464 5 c0 -5 -5
-10 -11 -10 -5 0 -7 5 -4 10 3 6 8 10 11 10 2 0 4 -4 4 -10z m-5133 -6 c-3 -3
-12 -4 -19 -1 -8 3 -5 6 6 6 11 1 17 -2 13 -5z m46 -11 c-7 -2 -19 -2 -25 0
-7 3 -2 5 12 5 14 0 19 -2 13 -5z m1447 0 c-8 -3 -18 -10 -21 -15 -3 -5 -9 -3
-12 6 -5 12 0 16 21 15 16 0 21 -3 12 -6z m7440 -1 c0 -4 -17 -6 -37 -4 -65 6
-70 10 -15 11 28 0 52 -3 52 -7z m-8815 -12 c-3 -5 -15 -10 -26 -10 -10 0 -19
5 -19 10 0 6 12 10 26 10 14 0 23 -4 19 -10z m3615 -1 c0 -3 -22 -11 -50 -16
-54 -11 -60 -8 -32 13 17 13 82 16 82 3z m-3383 -15 c-7 -7 -148 -6 -155 1 -3
3 32 5 78 5 46 0 81 -3 77 -6z m6088 -4 c-27 -12 -43 -12 -25 0 8 5 22 9 30 9
10 0 8 -3 -5 -9z m842 4 c-3 -3 -12 -4 -19 -1 -8 3 -5 6 6 6 11 1 17 -2 13 -5z
m2323 -14 c0 -4 -15 -6 -32 -5 -62 5 -64 6 -44 14 22 8 76 2 76 -9z m-9110 -1
c0 -5 -6 -7 -12 -3 -9 5 -9 2 1 -9 16 -20 22 -22 19 -4 -2 8 14 13 47 15 47 3
180 -7 173 -12 -2 -2 -23 -6 -48 -10 -31 -4 -40 -3 -30 4 20 13 15 13 -76 -5
-47 -9 -82 -11 -87 -6 -5 5 -16 7 -23 4 -10 -4 -12 0 -8 11 4 12 0 16 -15 16
-12 0 -21 -4 -21 -10 0 -5 -9 -10 -20 -10 -11 0 -20 4 -20 10 0 5 7 7 15 4 8
-4 15 -1 15 5 0 6 19 11 45 11 25 0 45 -5 45 -11z m800 1 c0 -5 -2 -10 -4 -10
-3 0 -8 5 -11 10 -3 6 -1 10 4 10 6 0 11 -4 11 -10z m2970 0 l25 -8 -25 0
c-14 0 -34 3 -45 8 l-20 9 20 -1 c11 0 31 -4 45 -8z m-3916 -15 c-4 -8 -16
-16 -28 -16 -16 -1 -17 -2 -3 -6 9 -2 17 -9 17 -15 0 -7 25 -9 78 -5 l77 5
-60 -15 c-48 -12 -94 -13 -225 -8 -91 4 -183 10 -205 14 -40 7 -39 7 45 27 57
13 119 20 188 19 56 0 102 3 102 7 0 5 4 8 10 8 5 0 7 -7 4 -15z m2044 8 c-21
-2 -55 -2 -75 0 -21 2 -4 4 37 4 41 0 58 -2 38 -4z m1982 -9 c0 -2 -19 -4 -42
-3 -35 1 -38 2 -18 8 23 7 60 4 60 -5z m-3210 -30 c41 -8 76 -17 78 -19 5 -4
-122 -33 -237 -52 -86 -15 -115 -15 -273 -3 -98 7 -178 16 -178 19 0 5 162 48
285 75 36 8 249 -6 325 -20z m1255 16 c-11 -5 -36 -8 -55 -8 l-35 1 35 7 c19
4 44 8 55 8 l20 1 -20 -9z m2095 6 c0 -11 -19 -15 -25 -6 -3 5 1 10 9 10 9 0
16 -2 16 -4z m-2213 -12 c-3 -3 -12 -4 -19 -1 -8 3 -5 6 6 6 11 1 17 -2 13 -5z
m633 -4 c0 -5 -15 -10 -32 -9 -31 1 -32 1 -8 9 35 11 40 11 40 0z m-2363 -6
c-3 -3 -12 -4 -19 -1 -8 3 -5 6 6 6 11 1 17 -2 13 -5z m893 -4 c20 -6 21 -8 5
-8 -11 -1 -38 3 -60 7 l-40 9 35 0 c19 0 46 -4 60 -8z m-943 -6 c-3 -3 -12 -4
-19 -1 -8 3 -5 6 6 6 11 1 17 -2 13 -5z m1056 -1 c-25 -10 -12 -23 22 -23 33
0 34 -1 18 -19 -9 -11 -22 -17 -30 -14 -8 3 -11 0 -8 -9 7 -17 10 -16 138 7
49 9 94 14 100 12 18 -6 -140 -55 -213 -67 -81 -12 -214 -12 -344 0 -54 5
-121 11 -148 11 -27 1 -45 6 -41 10 12 11 200 56 263 63 l55 6 -70 -18 c-45
-12 -63 -20 -50 -23 11 -3 27 -1 36 4 21 13 92 0 83 -15 -5 -8 3 -9 27 -5 34
7 34 6 9 -8 l-25 -15 30 6 c17 4 37 10 45 15 12 7 11 8 -5 9 -17 0 -17 2 -5
10 12 8 12 10 1 10 -8 0 -12 2 -10 5 8 7 49 -7 44 -15 -3 -5 -1 -11 4 -14 19
-12 19 24 1 37 -11 8 -17 17 -14 20 4 3 13 0 21 -8 20 -20 54 -20 47 0 -5 11
-10 13 -19 5 -9 -8 -15 -8 -20 0 -3 5 -1 10 5 10 6 0 8 5 5 10 -4 6 7 10 27 9
18 0 27 -3 21 -6z m264 -19 c-3 -3 -12 -4 -19 -1 -8 3 -5 6 6 6 11 1 17 -2 13
-5z m38 -14 c-11 -5 -27 -9 -35 -9 -9 0 -8 4 5 9 11 5 27 9 35 9 9 0 8 -4 -5
-9z m3962 -6 c-3 -3 -12 -4 -19 -1 -8 3 -5 6 6 6 11 1 17 -2 13 -5z m1953 2
c0 -2 -8 -10 -17 -17 -16 -13 -17 -12 -4 4 13 16 21 21 21 13z m880 -4 c0 -12
-70 -41 -76 -31 -3 5 2 9 11 9 9 0 14 4 10 9 -3 5 3 12 12 14 30 8 43 7 43 -1z
m-7273 -8 c-3 -3 -12 -4 -19 -1 -8 3 -5 6 6 6 11 1 17 -2 13 -5z m1113 2 c0
-2 -7 -7 -16 -10 -8 -3 -12 -2 -9 4 6 10 25 14 25 6z m1180 -6 c0 -14 -38 -27
-70 -25 -14 1 -35 3 -48 3 -13 1 -20 6 -17 12 4 6 14 9 23 6 10 -3 33 -1 52 3
49 12 60 12 60 1z m584 -22 c-6 -10 -4 -10 7 -2 8 5 32 11 54 13 28 1 36 -1
26 -8 -8 -5 -20 -7 -27 -4 -6 2 -15 -1 -19 -6 -3 -6 -10 -9 -15 -6 -5 3 -11 1
-15 -5 -3 -5 -15 -10 -26 -10 -17 0 -18 3 -7 20 7 11 16 20 21 20 4 0 5 -6 1
-12z m2141 -38 c-3 -5 -11 -10 -16 -10 -6 0 -7 5 -4 10 3 6 11 10 16 10 6 0 7
-4 4 -10z m738 -27 c-7 -2 -19 -2 -25 0 -7 3 -2 5 12 5 14 0 19 -2 13 -5z
m1550 0 c-7 -2 -21 -2 -30 0 -10 3 -4 5 12 5 17 0 24 -2 18 -5z m-3699 -12 c7
-11 -18 -21 -54 -21 -36 0 -49 17 -18 23 41 8 67 7 72 -2z m3606 -18 c-8 -3
-24 -10 -35 -15 -20 -9 -20 -9 -1 6 11 9 27 16 35 15 14 0 14 -1 1 -6z m-540
-26 c14 -2 -2 -5 -35 -5 -55 -2 -58 -1 -35 12 14 7 30 9 35 5 6 -4 21 -9 35
-12z m-2440 3 c0 -5 -12 -10 -26 -10 -14 0 -23 4 -19 10 3 6 15 10 26 10 10 0
19 -4 19 -10z m3568 -4 c-2 -1 -12 -8 -22 -16 -18 -14 -18 -14 -6 7 8 12 18
19 23 16 4 -3 7 -6 5 -7z m659 -12 c-3 -3 -12 -4 -19 -1 -8 3 -5 6 6 6 11 1
17 -2 13 -5z m-4672 -44 c3 -6 -1 -7 -9 -4 -18 7 -21 14 -7 14 6 0 13 -4 16
-10z m1105 0 c-13 -8 -12 -10 3 -10 9 0 17 5 17 10 0 6 5 10 10 10 6 0 10 -7
10 -15 0 -16 -35 -20 -65 -9 -13 5 -14 8 -3 15 7 5 20 9 28 9 13 0 13 -1 0
-10z m83 -7 c-7 -2 -19 -2 -25 0 -7 3 -2 5 12 5 14 0 19 -2 13 -5z m760 -30
c-7 -2 -19 -2 -25 0 -7 3 -2 5 12 5 14 0 19 -2 13 -5z m1896 -23 c-19 -11 -99
-23 -99 -16 0 11 43 24 79 24 23 0 30 -3 20 -8z m-3026 -37 c-7 -2 -19 -2 -25
0 -7 3 -2 5 12 5 14 0 19 -2 13 -5z m2534 -10 c-4 -3 -29 -14 -57 -23 -50 -17
-50 -17 -33 3 18 20 17 20 -10 13 -17 -4 -26 -3 -23 3 3 5 34 9 67 10 34 0 59
-2 56 -6z m1248 -17 c-27 -13 -51 -22 -53 -21 -2 2 3 12 10 24 10 16 23 21 53
21 l40 0 -50 -24z m-1350 -246 c3 -6 -1 -7 -9 -4 -18 7 -21 14 -7 14 6 0 13
-4 16 -10z m638 -77 c-7 -2 -19 -2 -25 0 -7 3 -2 5 12 5 14 0 19 -2 13 -5z
m134 -9 c-3 -3 -12 -4 -19 -1 -8 3 -5 6 6 6 11 1 17 -2 13 -5z"/>
<path d="M5643 6083 c9 -2 23 -2 30 0 6 3 -1 5 -18 5 -16 0 -22 -2 -12 -5z"/>
<path d="M4777 6028 c2 -5 20 -8 39 -8 19 0 33 -4 30 -9 -6 -9 44 -35 52 -26
3 3 1 5 -5 5 -13 0 -12 32 2 42 6 4 -20 6 -57 5 -36 -1 -64 -5 -61 -9z"/>
<path d="M4705 6020 c-19 -8 -19 -9 3 -9 12 -1 22 4 22 9 0 6 -1 10 -2 9 -2 0
-12 -4 -23 -9z"/>
<path d="M5046 6015 c-11 -8 -16 -18 -11 -22 4 -5 9 -3 12 3 2 6 16 10 31 9
19 -2 20 -1 4 2 -12 2 -20 9 -17 14 8 12 3 11 -19 -6z"/>
<path d="M4650 6006 c0 -2 9 -6 20 -9 11 -3 18 -1 14 4 -5 9 -34 13 -34 5z"/>
<path d="M5080 5940 c-20 -6 -15 -8 25 -9 36 0 46 2 35 9 -17 11 -25 11 -60 0z"/>
<path d="M16502 6335 c0 -16 2 -22 5 -12 2 9 2 23 0 30 -3 6 -5 -1 -5 -18z"/>
<path d="M16478 6280 c-2 -22 0 -40 4 -40 5 0 8 18 8 40 0 22 -2 40 -4 40 -2
0 -6 -18 -8 -40z"/>
<path d="M4620 6301 c-18 -6 -7 -8 35 -8 43 -1 53 2 35 7 -31 10 -39 10 -70 1z"/>
<path d="M4518 6293 c6 -2 18 -2 25 0 6 3 1 5 -13 5 -14 0 -19 -2 -12 -5z"/>
<path d="M4940 6290 c14 -4 36 -8 50 -9 20 -1 22 1 10 9 -8 5 -31 9 -50 9 -32
-1 -33 -2 -10 -9z"/>
<path d="M4928 6263 c6 -2 18 -2 25 0 6 3 1 5 -13 5 -14 0 -19 -2 -12 -5z"/>
<path d="M4073 6220 c-28 -4 -62 -15 -75 -25 l-23 -17 25 8 c29 8 132 8 161
-1 10 -4 24 -3 31 1 9 6 5 10 -12 16 -14 4 27 5 90 3 72 -3 103 -1 83 4 -51
13 -223 20 -280 11z"/>
<path d="M5128 6223 c6 -2 18 -2 25 0 6 3 1 5 -13 5 -14 0 -19 -2 -12 -5z"/>
<path d="M4470 6191 c12 -9 10 -11 -10 -12 -21 -1 -22 -2 -5 -6 11 -3 23 -10
26 -15 8 -13 145 -11 167 2 15 8 15 9 -3 10 -12 0 -25 4 -30 9 -6 5 -44 12
-85 16 -53 4 -71 3 -60 -4z"/>
<path d="M4320 6179 c0 -5 5 -7 10 -4 6 3 10 8 10 11 0 2 -4 4 -10 4 -5 0 -10
-5 -10 -11z"/>
<path d="M4830 6166 l35 -14 -45 -4 c-38 -4 -35 -5 20 -6 46 -1 61 1 50 8 -11
7 -3 8 26 4 23 -3 44 -2 47 3 4 6 -18 10 -51 12 -31 1 -70 4 -87 6 -29 5 -28
4 5 -9z"/>
<path d="M4654 6144 c-18 -15 -18 -15 6 -10 14 3 29 6 33 6 5 0 5 5 2 10 -9
14 -18 13 -41 -6z"/>
<path d="M5113 6142 c-8 -5 1 -8 22 -8 21 0 30 3 22 8 -6 4 -16 8 -22 8 -5 0
-16 -4 -22 -8z"/>
<path d="M3828 6123 c7 -3 16 -2 19 1 4 3 -2 6 -13 5 -11 0 -14 -3 -6 -6z"/>
<path d="M15625 5820 c3 -5 10 -10 16 -10 5 0 9 5 9 10 0 6 -7 10 -16 10 -8 0
-12 -4 -9 -10z"/>
<path d="M15361 5804 c0 -11 3 -14 6 -6 3 7 2 16 -1 19 -3 4 -6 -2 -5 -13z"/>
<path d="M16235 5809 c-4 -6 -5 -12 -2 -15 2 -3 7 2 10 11 7 17 1 20 -8 4z"/>
<path d="M15038 5803 c7 -3 16 -2 19 1 4 3 -2 6 -13 5 -11 0 -14 -3 -6 -6z"/>
<path d="M15078 5793 c7 -3 16 -2 19 1 4 3 -2 6 -13 5 -11 0 -14 -3 -6 -6z"/>
<path d="M16005 5739 c-4 -6 -5 -12 -2 -15 2 -3 7 2 10 11 7 17 1 20 -8 4z"/>
<path d="M5468 5663 c7 -3 16 -2 19 1 4 3 -2 6 -13 5 -11 0 -14 -3 -6 -6z"/>
<path d="M5308 5623 c7 -3 16 -2 19 1 4 3 -2 6 -13 5 -11 0 -14 -3 -6 -6z"/>
<path d="M5268 5613 c7 -3 16 -2 19 1 4 3 -2 6 -13 5 -11 0 -14 -3 -6 -6z"/>
<path d="M15395 5599 c-16 -10 -25 -19 -18 -19 19 0 63 22 63 32 0 12 -11 9
-45 -13z"/>
<path d="M5118 5573 c7 -3 16 -2 19 1 4 3 -2 6 -13 5 -11 0 -14 -3 -6 -6z"/>
<path d="M5078 5563 c7 -3 16 -2 19 1 4 3 -2 6 -13 5 -11 0 -14 -3 -6 -6z"/>
<path d="M5028 5553 c7 -3 16 -2 19 1 4 3 -2 6 -13 5 -11 0 -14 -3 -6 -6z"/>
<path d="M4808 5493 c7 -3 16 -2 19 1 4 3 -2 6 -13 5 -11 0 -14 -3 -6 -6z"/>
<path d="M4728 5473 c7 -3 16 -2 19 1 4 3 -2 6 -13 5 -11 0 -14 -3 -6 -6z"/>
<path d="M4688 5463 c7 -3 16 -2 19 1 4 3 -2 6 -13 5 -11 0 -14 -3 -6 -6z"/>
<path d="M4648 5453 c7 -3 16 -2 19 1 4 3 -2 6 -13 5 -11 0 -14 -3 -6 -6z"/>
<path d="M4608 5443 c7 -3 16 -2 19 1 4 3 -2 6 -13 5 -11 0 -14 -3 -6 -6z"/>
<path d="M4487 5418 c-43 -11 -76 -22 -74 -25 5 -4 169 36 176 43 8 8 -24 2
-102 -18z"/>
<path d="M4378 5383 c7 -3 16 -2 19 1 4 3 -2 6 -13 5 -11 0 -14 -3 -6 -6z"/>
<path d="M4338 5373 c7 -3 16 -2 19 1 4 3 -2 6 -13 5 -11 0 -14 -3 -6 -6z"/>
<path d="M4232 5351 c-34 -10 -66 -22 -70 -26 -4 -5 1 -5 11 -2 10 4 46 14 80
23 34 9 64 18 66 20 9 8 -25 2 -87 -15z"/>
<path d="M5068 5183 c-37 -10 -16 -135 29 -176 19 -17 20 -16 31 20 15 53 32
129 32 147 0 12 -10 16 -37 15 -21 -1 -46 -3 -55 -6z"/>
</g>
</svg>
