<?xml version="1.0" standalone="no"?>
<!DOCTYPE svg PUBLIC "-//W3C//DTD SVG 20010904//EN"
 "http://www.w3.org/TR/2001/REC-SVG-20010904/DTD/svg10.dtd">
<svg version="1.0" xmlns="http://www.w3.org/2000/svg"
 width="2048.000000pt" height="2048.000000pt" viewBox="0 0 2048.000000 2048.000000"
 preserveAspectRatio="xMidYMid meet">

<g transform="translate(0.000000,2048.000000) scale(0.100000,-0.100000)"
fill="#000000" stroke="none">
<path d="M0 10240 l0 -10240 10240 0 10240 0 0 10240 0 10240 -10240 0 -10240
0 0 -10240z m11742 6252 c58 -20 119 -72 147 -126 l25 -49 1 -2296 0 -2296
310 0 310 0 5 1105 5 1105 31 55 c17 30 50 70 73 87 88 68 -77 63 2291 61
l2145 -3 45 -23 c58 -30 96 -67 123 -117 l22 -40 3 -3708 2 -3708 -21 -49
c-12 -28 -42 -69 -69 -94 -86 -81 -2 -76 -1332 -76 l-1178 0 0 -495 0 -495
255 0 256 0 -3 -97 -3 -98 -39 -13 c-30 -10 -469 -12 -2105 -12 -1136 0 -2178
2 -2316 5 -397 9 -530 9 -2855 4 -1213 -3 -2220 -1 -2237 4 -40 10 -45 26 -41
132 l3 80 272 3 273 2 3 293 2 292 3 -297 2 -298 1618 -1 c2742 -1 6896 2
6899 5 2 1 3 1370 4 3042 1 2252 -2 3052 -11 3089 -23 103 -98 189 -194 222
-49 17 -237 18 -4061 17 -3695 -2 -4013 -3 -4050 -18 -54 -23 -101 -60 -136
-109 -63 -86 -58 120 -59 -2850 -1 -1492 -5 -2728 -10 -2747 -5 -23 -7 -1 -4
65 1 55 0 139 -3 187 l-6 88 -1292 0 c-1410 0 -1334 -3 -1410 57 -21 16 -50
56 -68 93 l-32 65 0 3700 0 3700 22 41 c30 56 75 99 137 132 l51 27 2325 0
2325 0 47 -22 48 -22 2 1112 c3 1042 4 1114 21 1144 43 80 110 132 194 152 22
5 710 8 1618 7 1246 -1 1588 -4 1617 -14z m2598 -7984 l0 -2848 -3930 0 -3930
0 0 2845 0 2845 243 2 c133 2 1901 3 3930 4 l3687 1 0 -2849z m-4157 -3405
c-35 -2 -91 -2 -125 0 -35 2 -7 3 62 3 69 0 97 -1 63 -3z m200 0 c-13 -2 -33
-2 -45 0 -13 2 -3 4 22 4 25 0 35 -2 23 -4z m175 0 c-16 -2 -40 -2 -55 0 -16
2 -3 4 27 4 30 0 43 -2 28 -4z"/>
<path d="M8661 16308 c-61 -41 -65 -105 -11 -159 65 -66 170 -20 170 74 0 38
-5 49 -31 71 -17 14 -36 26 -42 26 -7 0 -21 3 -32 6 -12 3 -34 -4 -54 -18z
m88 -67 c7 -13 7 -23 -2 -34 -16 -21 -67 -11 -67 12 0 39 51 56 69 22z"/>
<path d="M10942 16281 c-21 -13 -10 -46 17 -49 43 -7 73 7 69 31 -2 17 -10 23
-38 25 -19 1 -41 -2 -48 -7z"/>
<path d="M11153 16284 c-7 -3 -13 -14 -13 -24 0 -12 10 -20 35 -24 50 -10 77
1 73 27 -2 18 -10 22 -43 24 -22 1 -46 0 -52 -3z"/>
<path d="M11357 16283 c-33 -5 -34 -34 -2 -40 89 -15 105 -15 111 1 14 38 -25
51 -109 39z"/>
<path d="M11617 16283 c-12 -11 -8 -40 8 -53 36 -30 86 15 53 48 -13 13 -50
16 -61 5z"/>
<path d="M11110 16260 c0 -11 5 -20 10 -20 6 0 10 9 10 20 0 11 -4 20 -10 20
-5 0 -10 -9 -10 -20z"/>
<path d="M11080 14553 c-46 -4 -74 -19 -65 -33 3 -5 1 -11 -5 -15 -5 -3 -10
-19 -10 -35 0 -31 14 -40 62 -40 19 0 28 -4 26 -12 -6 -17 -39 -23 -47 -9 -5
7 -17 8 -39 1 -18 -5 -110 -12 -205 -16 -95 -5 -165 -10 -155 -12 9 -1 19 -14
22 -28 5 -18 12 -24 24 -20 29 8 146 11 159 3 6 -4 9 -22 6 -44 -2 -21 -5 -43
-5 -50 -2 -17 -18 -5 -18 13 0 8 -7 14 -15 14 -9 0 -12 6 -8 16 4 12 2 15 -8
12 -8 -3 -15 -22 -17 -47 -2 -27 -8 -41 -15 -38 -6 2 -23 -2 -36 -9 -22 -12
-27 -10 -49 11 -15 15 -36 25 -54 25 l-29 0 7 65 c6 58 5 65 -10 59 -9 -3 -16
-10 -16 -14 0 -5 -7 -15 -15 -24 -20 -20 -114 -14 -131 8 -6 9 -16 16 -23 16
-24 0 -10 29 17 32 l27 4 -25 7 c-14 3 -52 9 -85 13 -33 4 -54 9 -47 11 17 7
4 23 -19 23 -16 0 -19 7 -20 53 0 28 -3 46 -6 40 -2 -7 -11 -13 -19 -13 -9 0
-13 4 -10 9 6 10 -133 26 -155 19 -10 -3 -13 -26 -10 -87 2 -67 0 -86 -14
-102 -14 -15 -17 -35 -16 -106 2 -87 2 -87 -18 -69 -18 16 -23 17 -37 5 -16
-13 -16 -12 -6 8 11 19 10 22 -10 21 -41 -1 -79 -20 -76 -37 2 -9 11 -15 21
-15 9 1 17 -2 17 -7 0 -5 -9 -9 -20 -9 -11 0 -20 -6 -21 -12 0 -7 -2 -23 -3
-35 -1 -12 1 -20 6 -17 14 9 9 -13 -7 -26 -12 -10 -15 -9 -16 6 -1 11 0 24 1
29 1 6 3 27 5 47 l2 37 -51 -35 c-52 -35 -76 -42 -76 -23 0 6 -6 9 -14 6 -10
-4 -12 0 -9 14 6 20 -15 69 -46 109 -10 13 -43 36 -73 50 -29 14 -53 32 -54
40 -2 34 -4 40 -14 40 -6 0 -8 -10 -4 -24 4 -18 1 -25 -15 -29 -12 -3 -21 -11
-21 -19 0 -7 -12 -21 -26 -31 -20 -15 -28 -16 -39 -7 -12 10 -15 9 -15 -6 0
-16 -2 -16 -10 -4 -8 12 -10 12 -16 -3 -3 -9 -2 -23 2 -30 5 -7 2 -6 -6 3 -8
9 -23 27 -32 41 -17 24 -17 24 -17 2 -1 -18 -6 -21 -27 -17 -22 4 -25 2 -19
-16 5 -15 3 -19 -9 -14 -18 7 -22 49 -6 59 7 4 8 21 4 43 -4 20 -7 45 -6 54 0
10 -4 21 -10 24 -7 5 -8 2 -3 -6 5 -9 4 -11 -4 -6 -7 5 -8 13 -2 23 6 12 -1
29 -26 62 -20 25 -43 49 -53 53 -9 3 -52 8 -96 10 l-79 3 -3 -460 c-1 -253 0
-470 3 -482 4 -17 13 -23 33 -23 22 0 24 2 12 11 -12 9 -11 9 5 4 42 -15 200
-32 212 -22 9 6 15 4 19 -7 9 -23 34 -1 34 30 0 13 9 28 20 34 23 12 26 -2 10
-44 -8 -22 -5 -29 16 -49 21 -20 41 -25 107 -31 135 -10 139 -10 131 17 -4 12
-11 25 -16 28 -9 6 58 27 92 29 107 7 129 12 123 28 -3 12 -2 13 4 5 9 -13 55
-14 47 -2 -2 4 3 14 12 23 8 9 13 20 10 25 -3 5 2 12 11 15 14 6 14 8 -3 21
-18 13 -17 15 21 49 22 19 35 35 28 36 -6 0 -15 -4 -18 -10 -3 -5 -15 -10 -26
-10 -10 0 -18 -5 -16 -11 1 -6 -7 -12 -18 -14 -75 -7 -96 -17 -120 -55 -13
-21 -29 -41 -35 -45 -15 -9 -13 -28 3 -19 6 4 5 -1 -4 -10 -20 -22 -73 -12
-64 12 3 8 -3 20 -12 27 -17 12 -16 15 10 35 28 22 36 57 15 65 -7 3 -26 7
-43 9 -16 2 -43 7 -59 11 -22 6 -27 5 -21 -5 5 -8 3 -11 -5 -8 -20 6 -21 38
-2 38 9 0 41 20 71 44 77 60 122 86 151 87 17 1 19 3 8 6 -13 3 -18 15 -18 41
0 30 2 33 13 20 26 -33 78 -60 110 -57 63 4 76 0 92 -31 8 -16 15 -45 15 -65
0 -24 4 -35 15 -35 17 0 20 38 6 88 -9 30 -8 32 15 32 15 0 24 -6 24 -16 0
-14 2 -15 17 -3 15 12 16 12 10 -4 -4 -10 -7 -21 -7 -23 0 -3 -4 -2 -10 1 -18
11 -10 -42 10 -68 20 -26 28 -77 11 -77 -5 0 -12 -9 -16 -19 -3 -11 -12 -21
-20 -23 -10 -2 -12 -7 -5 -18 9 -13 11 -13 20 0 5 8 10 13 10 10 1 -3 3 -29 5
-59 2 -30 9 -59 15 -65 5 -5 10 -25 10 -43 0 -29 3 -33 28 -34 52 -2 1077 3
1079 5 1 1 3 243 3 537 l1 534 -23 1 c-13 0 -43 -1 -68 -3z m-650 -245 c0 -11
-28 -10 -35 1 -3 6 4 9 15 8 11 -1 20 -5 20 -9z m-305 -148 c3 -5 1 -10 -4
-10 -6 0 -11 5 -11 10 0 6 2 10 4 10 3 0 8 -4 11 -10z m-550 -50 c4 -13 -1
-30 -14 -46 -12 -15 -21 -33 -21 -40 0 -30 -32 -11 -52 31 -12 25 -26 45 -30
45 -4 0 -8 4 -8 9 0 13 25 8 46 -9 16 -14 17 -13 12 8 -12 45 52 48 67 2z
m556 16 c5 3 9 -2 9 -10 0 -9 -4 -16 -10 -16 -5 0 -10 2 -10 4 0 2 -2 10 -3
18 -2 7 -2 10 0 5 3 -4 9 -5 14 -1z m-758 -17 c-6 -6 -9 -18 -6 -25 3 -8 0
-14 -6 -14 -6 0 -11 11 -11 25 0 17 6 25 17 25 13 0 14 -3 6 -11z m802 -9 c-3
-5 -11 -10 -16 -10 -6 0 -7 5 -4 10 3 6 11 10 16 10 6 0 7 -4 4 -10z m443 -8
c3 -9 -3 -13 -19 -10 -12 1 -24 9 -27 16 -3 9 3 13 19 10 12 -1 24 -9 27 -16z
m-1015 -17 c-3 -9 -8 -14 -10 -11 -3 3 -2 9 2 15 9 16 15 13 8 -4z m-506 -17
c7 -6 13 -21 13 -34 0 -12 5 -26 10 -29 15 -9 12 -25 -5 -25 -8 0 -19 9 -25
19 -19 36 -42 53 -65 47 -17 -4 -22 -2 -21 12 2 31 60 38 93 10z m1197 -5 c7
-16 -14 -29 -23 -15 -4 7 -23 11 -43 10 -28 -1 -38 -6 -42 -22 -9 -35 18 -46
105 -40 81 5 113 -1 88 -17 -21 -13 -163 -11 -177 3 -9 9 -12 9 -12 -1 0 -9
-8 -11 -26 -7 -15 4 -23 3 -20 -2 3 -6 -3 -12 -14 -15 -18 -5 -20 0 -20 38 0
38 4 45 32 62 37 22 145 26 152 6z m-224 -74 c0 -44 -3 -78 -7 -76 -8 5 -5
157 3 157 2 0 4 -36 4 -81z m-484 34 c-2 -9 -8 -19 -14 -21 -21 -7 -13 -25 8
-19 17 4 20 0 20 -26 0 -26 -6 -35 -30 -45 -17 -8 -37 -21 -45 -29 -16 -15
-13 -20 -45 63 -7 19 -15 24 -27 19 -10 -3 -14 -3 -11 1 4 3 1 13 -7 21 -8 8
-15 22 -14 31 0 13 3 12 11 -4 18 -38 50 -45 83 -18 16 12 33 21 37 18 4 -3
11 2 14 10 8 21 23 20 20 -1z m664 7 c0 -5 -4 -10 -9 -10 -6 0 -13 5 -16 10
-3 6 1 10 9 10 9 0 16 -4 16 -10z m-1081 -69 c7 -5 10 -14 7 -20 -11 -17 -24
-13 -36 9 -12 22 3 27 29 11z m1294 2 c-7 -2 -19 -2 -25 0 -7 3 -2 5 12 5 14
0 19 -2 13 -5z m47 -13 c13 -8 13 -10 -2 -10 -9 0 -20 5 -23 10 -8 13 5 13 25
0z m-1020 -80 c0 -5 -4 -10 -10 -10 -5 0 -10 5 -10 10 0 6 5 10 10 10 6 0 10
-4 10 -10z m1497 -56 c3 -8 2 -38 -3 -66 -8 -45 -12 -52 -36 -55 -21 -3 -27 1
-30 19 -2 13 -7 22 -11 20 -4 -2 -19 3 -32 12 -20 13 -25 13 -35 1 -6 -7 -18
-11 -26 -8 -8 3 -15 -1 -16 -8 0 -8 -4 9 -7 36 -4 28 -5 53 -3 58 2 4 46 7 98
7 77 0 96 -3 101 -16z m-833 -19 c-6 -16 -34 -21 -34 -7 0 13 11 22 26 22 8 0
11 -6 8 -15z m244 -37 c-11 -60 -18 -74 -18 -36 0 16 -8 29 -22 35 l-23 11 27
10 c14 6 29 16 33 21 12 20 12 11 3 -41z m252 32 c0 -12 5 -17 13 -14 8 3 14
-1 14 -8 0 -7 3 -23 7 -35 6 -17 3 -23 -8 -23 -9 0 -16 6 -16 13 0 8 -4 7 -10
-3 -5 -8 -10 -10 -10 -5 0 6 -4 3 -9 -4 -6 -10 -8 0 -4 28 7 48 -4 61 -48 61
-24 0 -27 -5 -33 -45 -6 -36 -11 -45 -27 -45 -10 0 -19 6 -20 13 -1 6 -2 19
-3 27 -2 8 -3 24 -4 35 -2 12 -5 16 -10 9 -4 -6 -19 -13 -34 -16 -22 -4 -28
-1 -28 13 0 17 10 19 115 19 108 0 115 -1 115 -20z m-520 -66 c0 -2 -14 -4
-31 -4 -16 0 -28 4 -25 9 5 8 56 3 56 -5z m617 -16 c-3 -8 -6 -5 -6 6 -1 11 2
17 5 13 3 -3 4 -12 1 -19z m-570 -44 c-3 -3 -12 -4 -19 -1 -8 3 -5 6 6 6 11 1
17 -2 13 -5z m593 -23 c0 -6 -4 -13 -10 -16 -5 -3 -10 1 -10 9 0 9 5 16 10 16
6 0 10 -4 10 -9z"/>
<path d="M9520 14121 c0 -5 9 -7 20 -4 11 3 20 7 20 9 0 2 -9 4 -20 4 -11 0
-20 -4 -20 -9z"/>
<path d="M10510 13755 c0 -19 4 -35 8 -35 4 0 8 16 8 35 0 19 -4 35 -8 35 -4
0 -8 -16 -8 -35z"/>
<path d="M10701 14244 c0 -11 3 -14 6 -6 3 7 2 16 -1 19 -3 4 -6 -2 -5 -13z"/>
<path d="M3660 13911 c0 -6 5 -13 10 -16 6 -3 10 -12 10 -18 0 -7 -7 -4 -15 7
-17 22 -35 13 -35 -19 0 -43 66 -77 114 -59 23 9 21 69 -4 94 -20 20 -80 28
-80 11z m45 -20 c3 -5 1 -12 -5 -16 -5 -3 -10 1 -10 9 0 18 6 21 15 7z"/>
<path d="M12896 13904 c-3 -9 -6 -30 -6 -49 0 -27 5 -35 31 -45 63 -27 103 14
85 86 -6 21 -12 24 -55 24 -35 0 -51 -4 -55 -16z m72 -16 c14 -18 1 -43 -24
-45 -17 -2 -20 2 -16 27 4 31 22 39 40 18z"/>
<path d="M3980 13883 c0 -10 -3 -28 -6 -40 -4 -13 -2 -23 4 -23 5 0 9 8 8 18
0 10 5 16 14 14 12 -3 12 -1 3 9 -6 6 -9 18 -6 25 3 8 0 14 -6 14 -6 0 -11 -8
-11 -17z"/>
<path d="M4020 13872 c0 -15 -5 -33 -12 -40 -9 -9 -9 -12 0 -12 7 0 12 6 12
13 0 8 3 8 9 -2 6 -10 9 -1 8 27 -2 46 -17 59 -17 14z"/>
<path d="M13250 13890 c-13 -8 -12 -10 3 -10 9 0 17 5 17 10 0 12 -1 12 -20 0z"/>
<path d="M16963 13889 c-27 -10 -29 -31 -7 -54 10 -10 24 -13 38 -9 28 8 68
46 59 55 -14 12 -68 17 -90 8z"/>
<path d="M4070 13870 c-18 -18 -19 -22 -6 -35 8 -8 20 -15 26 -15 7 0 5 6 -4
16 -17 17 -22 39 -7 30 5 -4 11 -1 13 6 8 23 30 -4 24 -28 -4 -14 -2 -24 4
-24 7 0 10 14 8 32 -4 40 -28 48 -58 18z"/>
<path d="M4188 13855 c-2 -19 0 -35 4 -35 4 0 8 16 8 35 0 19 -2 35 -4 35 -2
0 -6 -16 -8 -35z"/>
<path d="M4273 13879 c0 -8 -1 -22 -1 -32 -3 -27 -35 -17 -42 13 -3 14 -9 20
-12 15 -3 -6 -2 -20 3 -32 12 -34 55 -31 63 3 4 15 3 31 -3 37 -6 6 -9 4 -8
-4z"/>
<path d="M4300 13855 c0 -46 15 -46 16 0 0 19 -3 35 -8 35 -4 0 -8 -16 -8 -35z"/>
<path d="M4340 13875 c0 -8 2 -15 4 -15 2 0 6 7 10 15 3 8 1 15 -4 15 -6 0
-10 -7 -10 -15z"/>
<path d="M7984 13875 c-10 -25 6 -35 57 -35 28 0 48 4 44 9 -3 5 -1 12 5 16
24 15 6 25 -45 25 -39 0 -57 -4 -61 -15z"/>
<path d="M16114 13875 c-34 -25 14 -43 94 -36 14 1 16 27 3 35 -21 13 -80 14
-97 1z m89 -20 c-3 -9 -8 -14 -10 -11 -3 3 -2 9 2 15 9 16 15 13 8 -4z"/>
<path d="M4146 13865 c-6 -17 2 -45 13 -45 4 0 6 14 3 30 -5 34 -7 36 -16 15z"/>
<path d="M4390 13863 c0 -10 5 -25 10 -33 7 -11 10 -7 10 18 0 17 -4 32 -10
32 -5 0 -10 -8 -10 -17z"/>
<path d="M4432 13850 c0 -19 2 -27 5 -17 2 9 2 25 0 35 -3 9 -5 1 -5 -18z"/>
<path d="M4466 13864 c-8 -22 -8 -44 2 -44 4 0 7 14 8 30 1 34 -1 37 -10 14z"/>
<path d="M4495 13850 c0 -35 15 -41 16 -7 0 22 0 22 10 -2 12 -30 21 -23 11
10 -11 36 -37 36 -37 -1z"/>
<path d="M13325 13865 c-16 -50 -16 -51 -1 -32 12 15 14 16 20 2 3 -8 11 -15
18 -15 10 0 10 2 0 9 -7 4 -14 18 -15 29 -1 25 -15 29 -22 7z"/>
<path d="M13388 13855 c2 -14 6 -25 8 -25 2 0 4 11 4 25 0 14 -4 25 -9 25 -4
0 -6 -11 -3 -25z"/>
<path d="M13418 13850 c2 -16 6 -30 8 -30 2 0 4 14 4 30 0 17 -4 30 -8 30 -5
0 -7 -13 -4 -30z"/>
<path d="M13500 13861 c0 -25 6 -27 13 -6 4 8 2 17 -3 20 -6 4 -10 -3 -10 -14z"/>
<path d="M13530 13871 c0 -5 5 -13 10 -16 6 -3 10 -2 10 4 0 5 -4 13 -10 16
-5 3 -10 2 -10 -4z"/>
<path d="M13562 13850 c0 -19 2 -27 5 -17 2 9 2 25 0 35 -3 9 -5 1 -5 -18z"/>
<path d="M13593 13870 c2 -8 12 -16 23 -17 13 -2 15 -1 4 4 -8 3 -19 11 -23
17 -6 7 -7 6 -4 -4z"/>
<path d="M16381 13864 c0 -11 3 -14 6 -6 3 7 2 16 -1 19 -3 4 -6 -2 -5 -13z"/>
<path d="M16522 13860 c0 -14 2 -19 5 -12 2 6 2 18 0 25 -3 6 -5 1 -5 -13z"/>
<path d="M16551 13864 c0 -11 3 -14 6 -6 3 7 2 16 -1 19 -3 4 -6 -2 -5 -13z"/>
<path d="M16595 13860 c-11 -12 -13 -20 -6 -20 6 0 14 7 17 15 4 8 11 12 17 8
6 -3 7 -1 3 5 -9 16 -10 15 -31 -8z"/>
<path d="M16760 13860 c0 -11 4 -20 9 -20 5 0 7 9 4 20 -3 11 -7 20 -9 20 -2
0 -4 -9 -4 -20z"/>
<path d="M13240 13843 c0 -29 12 -24 17 7 2 11 -2 20 -7 20 -6 0 -10 -12 -10
-27z"/>
<path d="M4371 13844 c0 -11 3 -14 6 -6 3 7 2 16 -1 19 -3 4 -6 -2 -5 -13z"/>
<path d="M13291 13844 c0 -11 3 -14 6 -6 3 7 2 16 -1 19 -3 4 -6 -2 -5 -13z"/>
<path d="M13440 13855 c0 -5 5 -17 10 -25 5 -8 10 -10 10 -5 0 6 -5 17 -10 25
-5 8 -10 11 -10 5z"/>
<path d="M4330 13835 c0 -8 4 -15 10 -15 5 0 7 7 4 15 -4 8 -8 15 -10 15 -2 0
-4 -7 -4 -15z"/>
<path d="M13535 13830 c-3 -5 -1 -10 4 -10 6 0 11 5 11 10 0 6 -2 10 -4 10 -3
0 -8 -4 -11 -10z"/>
<path d="M13590 13836 c0 -2 7 -7 16 -10 8 -3 12 -2 9 4 -6 10 -25 14 -25 6z"/>
<path d="M9925 13695 c30 -25 51 -33 40 -16 -3 6 -20 17 -38 25 l-32 16 30
-25z"/>
<path d="M8990 13428 l0 -52 20 22 c12 12 33 22 48 22 16 0 32 4 38 10 12 12
99 29 199 40 54 6 28 8 -117 9 l-188 1 0 -52z"/>
<path d="M9597 13460 c3 -11 9 -20 13 -20 5 0 12 -26 15 -57 4 -32 9 -66 11
-75 3 -10 1 -18 -5 -18 -6 0 -11 7 -11 15 0 21 -14 19 -36 -6 -19 -22 -19 -22
5 -14 17 5 22 4 18 -6 -2 -8 -10 -13 -16 -11 -11 2 -15 -10 -12 -35 1 -7 -6
-13 -15 -13 -12 0 -15 6 -12 25 7 32 -15 33 -45 2 -12 -13 -31 -27 -42 -31
-11 -5 -122 -8 -247 -7 l-228 1 0 -396 0 -397 525 5 c289 2 528 7 531 10 3 4
7 73 9 155 2 81 4 153 4 159 1 6 20 11 43 12 23 1 45 7 49 13 8 13 19 -13 19
-47 0 -30 22 -32 50 -4 11 11 20 22 20 25 0 3 -9 5 -20 5 -28 0 -25 19 6 30
34 13 44 6 44 -36 0 -37 6 -41 34 -19 15 11 23 12 33 3 11 -9 23 -9 49 1 18 7
38 10 43 6 5 -3 12 -1 16 5 3 5 23 10 44 10 25 0 44 7 56 20 16 18 16 20 2 20
-10 0 -17 5 -17 10 0 6 4 10 9 10 5 0 12 19 16 43 12 80 17 97 26 91 16 -10
11 -155 -7 -175 -14 -16 -13 -17 23 -23 21 -4 75 -7 121 -8 l82 -2 0 -29 c0
-25 2 -28 15 -17 13 10 15 9 15 -9 0 -12 -4 -20 -9 -17 -5 4 -7 -3 -4 -14 5
-17 0 -20 -28 -21 -19 0 -28 -3 -21 -6 10 -4 9 -8 -5 -18 -13 -10 -20 -10 -25
-2 -4 7 -14 2 -27 -14 -16 -19 -23 -21 -29 -11 -5 8 -12 14 -15 13 -4 0 -22 6
-41 14 -40 17 -58 19 -36 5 12 -8 12 -10 1 -10 -8 0 -19 7 -25 14 -8 12 -23
13 -65 8 -52 -7 -54 -8 -37 -24 10 -11 32 -18 53 -18 l36 0 -27 -25 c-14 -13
-26 -31 -26 -40 0 -8 -4 -15 -10 -15 -15 0 -12 -32 6 -55 14 -19 28 -20 324
-22 170 -1 318 1 329 4 18 5 20 15 23 117 5 186 -2 377 -14 370 -6 -4 -5 2 2
16 14 26 13 27 -20 33 -14 2 -19 2 -13 0 8 -3 4 -13 -12 -31 -23 -24 -23 -27
-7 -34 13 -5 14 -7 2 -7 -9 -1 -16 -11 -17 -23 -2 -17 0 -19 7 -8 5 8 12 11
17 7 9 -9 -8 -39 -25 -45 -7 -2 -16 8 -22 23 -5 14 -14 23 -20 20 -6 -4 -6
-12 2 -24 13 -22 2 -94 -15 -88 -6 2 -12 20 -13 40 -2 20 -7 45 -13 55 -6 11
-8 31 -5 46 2 15 -2 48 -10 74 -13 46 -10 122 8 150 4 7 1 12 -8 12 -9 0 -15
-3 -15 -7 4 -22 -2 -43 -12 -43 -6 0 -8 9 -4 20 5 17 2 20 -26 20 -27 0 -30 2
-19 15 11 13 8 15 -14 15 -32 0 -38 -13 -28 -60 6 -28 13 -35 40 -41 43 -9 49
-16 34 -40 -7 -11 -10 -29 -7 -40 9 -26 -21 -26 -35 1 -6 11 -8 21 -5 21 3 1
10 2 15 3 6 0 10 4 10 9 0 4 0 10 0 14 0 4 -5 2 -12 -5 -8 -8 -18 -7 -39 5
-35 21 -58 6 -57 -36 1 -16 -2 -33 -6 -40 -11 -17 -45 -13 -73 9 -34 26 -45
25 -37 -4 5 -21 3 -24 -15 -19 -16 4 -21 1 -20 -13 0 -12 3 -14 6 -6 4 10 8 9
19 -5 11 -15 14 -15 15 -3 2 18 16 -36 18 -67 1 -20 -4 -23 -38 -23 -22 0 -42
4 -45 9 -3 4 -3 39 1 76 5 54 10 69 25 73 19 5 21 14 12 50 -7 23 -7 23 -24
-6 -24 -39 -57 -48 -63 -16 -2 12 0 27 6 33 12 12 1 45 -13 36 -5 -3 -10 1
-10 9 0 9 -8 16 -19 16 -27 0 -35 -17 -14 -29 10 -6 15 -11 10 -11 -4 0 -1
-13 7 -29 15 -27 14 -29 -7 -35 -65 -17 -115 2 -100 39 5 15 2 17 -15 13 -24
-7 -62 31 -62 59 0 13 3 13 24 0 23 -15 36 -13 36 4 0 5 -19 18 -42 29 l-43
21 -23 -28 c-13 -15 -34 -44 -47 -64 -19 -29 -29 -36 -54 -34 -40 2 -59 -19
-71 -83 -5 -29 -14 -61 -20 -72 -5 -10 -10 -27 -10 -38 0 -22 -26 -47 -56 -54
-19 -5 -21 -2 -17 24 2 16 10 46 17 66 20 60 0 170 -24 131 -4 -5 -5 57 -3
138 2 126 5 150 20 160 9 7 25 13 35 13 10 0 18 5 18 10 0 6 19 10 41 10 36 0
41 2 36 20 -3 11 -1 23 4 26 13 8 11 84 -2 84 -6 0 -9 -7 -5 -15 3 -8 1 -15
-4 -15 -6 0 -10 7 -10 15 0 8 -4 15 -10 15 -5 0 -10 -4 -10 -10 0 -5 -7 -10
-16 -10 -8 0 -12 5 -9 10 4 6 -5 10 -20 10 -17 0 -24 -4 -19 -12 5 -8 2 -9 -9
-5 -14 5 -15 2 -7 -19 13 -33 13 -34 -5 -34 -11 0 -15 12 -15 45 l0 45 -234 0
c-229 0 -234 0 -229 -20z m586 -77 c-7 -2 -13 -11 -13 -18 0 -12 -21 -25 -41
-25 -17 0 -9 38 9 43 24 6 60 7 45 0z m-90 -32 c3 -12 -1 -22 -10 -25 -21 -8
-23 -8 -23 9 0 8 6 15 13 15 8 0 7 4 -3 10 -13 8 -13 10 1 10 9 0 19 -9 22
-19z m-443 -86 c0 -8 -2 -15 -4 -15 -2 0 -6 7 -10 15 -3 8 -1 15 4 15 6 0 10
-7 10 -15z m-237 -80 c1 -6 -10 -11 -25 -13 -31 -4 -39 14 -10 21 23 6 33 4
35 -8z m568 -138 c-13 -13 -15 11 -4 40 7 16 8 15 11 -6 2 -13 -1 -28 -7 -34z
m362 -12 c23 -49 21 -72 -9 -91 -20 -14 -27 -15 -37 -4 -9 10 -9 11 2 5 10 -6
12 -1 6 26 -4 22 -3 29 3 21 7 -11 10 -9 15 7 3 12 1 19 -4 15 -5 -3 -9 9 -9
25 0 41 12 39 33 -4z m-896 9 c3 -8 -2 -23 -11 -32 -11 -11 -16 -12 -16 -4 0
7 -4 11 -8 8 -4 -2 -9 6 -10 20 -1 18 3 24 18 24 12 0 23 -7 27 -16z m67 -76
c6 -4 12 -44 12 -95 2 -122 -2 -127 -125 -142 -101 -13 -121 -11 -121 14 0 8
-12 21 -27 29 -25 14 -26 15 -7 16 19 0 22 8 27 65 7 77 11 85 40 85 12 0 51
9 87 20 36 11 66 20 67 20 1 0 3 -8 6 -17 3 -13 6 -10 12 12 5 19 10 24 13 15
3 -8 10 -18 16 -22z m896 0 c0 -5 -4 -7 -9 -4 -5 4 -12 0 -14 -6 -3 -7 -6 -3
-6 9 -1 16 3 21 14 17 8 -4 15 -10 15 -16z m40 -43 c0 -5 -5 -3 -10 5 -5 8
-10 20 -10 25 0 6 5 3 10 -5 5 -8 10 -19 10 -25z m530 -28 c0 -5 -7 -4 -15 3
-8 7 -15 9 -15 4 0 -4 -6 -2 -12 4 -10 10 -10 15 2 22 15 10 40 -11 40 -33z
m-993 11 c-3 -8 -6 -5 -6 6 -1 11 2 17 5 13 3 -3 4 -12 1 -19z m297 -53 c-4
-9 0 -15 9 -15 8 0 18 6 20 13 3 6 6 2 6 -10 1 -25 16 -38 26 -22 5 7 14 3 27
-10 10 -12 23 -19 27 -17 4 3 13 30 20 61 7 30 15 55 17 55 19 0 35 -33 29
-61 -5 -23 -10 -28 -18 -20 -9 9 -8 17 1 31 7 11 8 20 3 20 -12 0 -30 -48 -33
-89 -3 -33 -4 -34 -52 -35 -48 -1 -49 0 -71 44 -12 25 -22 61 -23 80 0 30 1
32 9 12 4 -12 6 -29 3 -37z m46 29 c0 -8 -4 -14 -10 -14 -5 0 -10 9 -10 21 0
11 5 17 10 14 6 -3 10 -13 10 -21z m470 4 c0 -6 -6 -5 -15 2 -8 7 -15 14 -15
16 0 2 7 1 15 -2 8 -4 15 -11 15 -16z m43 8 c4 -10 1 -13 -9 -9 -15 6 -19 23
-5 23 5 0 11 -7 14 -14z m102 -63 c1 -52 0 -53 -28 -53 -27 0 -29 2 -23 30 3
17 1 30 -4 30 -6 0 -10 12 -10 26 0 23 3 25 33 22 32 -3 32 -4 32 -55z m-996
-60 c-20 -51 -35 -52 -42 -2 -4 34 -1 48 16 69 l22 27 9 -28 c6 -20 4 -40 -5
-66z m-381 55 c-2 -7 16 -17 42 -24 43 -11 44 -12 20 -21 -19 -8 -30 -6 -52
10 -29 21 -33 29 -21 40 10 10 13 8 11 -5z m1434 -40 c-25 -10 -32 -9 -32 2 0
6 7 10 15 10 8 0 15 6 15 13 0 8 3 7 10 -3 7 -11 5 -17 -8 -22z m94 4 c-3 -5
-6 -25 -8 -45 -2 -33 -18 -44 -18 -12 0 19 18 65 25 65 4 0 4 -4 1 -8z m37 -7
c-3 -9 -8 -14 -10 -11 -3 3 -2 9 2 15 9 16 15 13 8 -4z m-138 -25 c-3 -5 -12
-10 -18 -10 -7 0 -6 4 3 10 19 12 23 12 15 0z m-130 -25 c-49 -30 -55 -30 -55
-6 0 14 8 21 28 24 63 9 67 7 27 -18z m-1398 -11 c-3 -3 -12 -4 -19 -1 -8 3
-5 6 6 6 11 1 17 -2 13 -5z m1528 -4 c-3 -5 -13 -10 -21 -10 -8 0 -12 5 -9 10
3 6 13 10 21 10 8 0 12 -4 9 -10z m-72 -17 c-7 -2 -21 -2 -30 0 -10 3 -4 5 12
5 17 0 24 -2 18 -5z m-913 -23 c13 -9 13 -11 0 -20 -18 -12 -80 -13 -80 -2 0
27 50 41 80 22z m1127 4 c-3 -3 -12 -4 -19 -1 -8 3 -5 6 6 6 11 1 17 -2 13 -5z
m-1277 -24 c0 -5 -2 -10 -4 -10 -3 0 -8 5 -11 10 -3 6 -1 10 4 10 6 0 11 -4
11 -10z m-340 -20 c0 -11 -4 -20 -10 -20 -5 0 -9 3 -9 8 3 17 -2 26 -9 15 -4
-6 -58 -16 -122 -22 -63 -7 -123 -14 -132 -17 -10 -3 -18 -1 -18 4 0 14 96 32
176 32 43 0 74 4 74 10 0 6 11 10 25 10 18 0 25 -5 25 -20z m508 -50 c-6 -30
-18 -73 -27 -95 -9 -22 -15 -43 -13 -47 3 -12 -36 -10 -43 2 -3 6 -30 10 -58
11 -55 1 -54 4 3 13 28 5 38 13 48 38 7 18 18 41 23 51 6 11 6 17 -1 17 -14 0
-12 13 4 36 12 15 17 17 27 7 18 -18 27 -16 34 8 12 36 13 16 3 -41z m-190 -3
c3 -22 -1 -27 -18 -27 -19 0 -22 13 -11 58 1 2 7 2 14 0 6 -3 13 -17 15 -31z
m1118 16 c-10 -10 -46 -11 -46 -1 0 4 12 8 27 8 14 0 23 -3 19 -7z m-1050 -37
c16 -17 19 -46 4 -46 -5 0 -10 9 -10 19 0 21 -19 40 -21 22 -3 -26 -4 -30 -11
-37 -5 -4 -8 4 -8 19 0 21 8 31 28 36 2 1 10 -5 18 -13z m1064 4 c0 -5 -9 -10
-20 -10 -11 0 -20 5 -20 10 0 6 9 10 20 10 11 0 20 -4 20 -10z m-1148 -37 c5
-25 -3 -73 -12 -73 -4 0 -8 20 -8 45 -1 44 13 63 20 28z m91 -35 c-2 -5 -15
-8 -29 -8 -13 0 -24 3 -24 8 0 4 13 7 29 7 16 0 27 -3 24 -7z"/>
<path d="M10138 13363 c7 -3 16 -2 19 1 4 3 -2 6 -13 5 -11 0 -14 -3 -6 -6z"/>
<path d="M9354 12912 c-17 -11 -25 -67 -11 -82 9 -10 9 -11 0 -6 -9 5 -13 0
-13 -13 0 -14 6 -21 19 -21 11 0 23 -4 26 -10 3 -5 20 -10 36 -10 34 0 49 27
43 77 -2 19 2 36 11 43 8 7 15 16 15 21 0 11 -110 12 -126 1z"/>
<path d="M10830 13445 c0 -8 8 -15 18 -14 10 0 12 3 4 6 -6 2 -10 9 -6 14 3 5
0 9 -5 9 -6 0 -11 -7 -11 -15z"/>
<path d="M10510 13399 c0 -22 25 -54 33 -42 4 6 -2 22 -13 34 -14 18 -19 20
-20 8z"/>
<path d="M10410 13368 c0 -13 4 -30 9 -37 6 -9 6 -22 1 -31 -6 -12 -3 -30 11
-56 34 -65 82 -91 108 -60 14 17 7 38 -20 54 -27 17 -46 5 -22 -15 17 -14 17
-14 0 -9 -10 3 -26 6 -34 6 -13 0 -15 11 -11 63 6 72 3 84 -23 97 -16 9 -19 7
-19 -12z"/>
<path d="M8991 13324 c0 -11 3 -14 6 -6 3 7 2 16 -1 19 -3 4 -6 -2 -5 -13z"/>
<path d="M10560 13310 c0 -5 7 -10 16 -10 11 0 14 -6 9 -21 -5 -15 -4 -19 4
-15 16 11 13 43 -5 50 -21 8 -24 8 -24 -4z"/>
<path d="M3975 13290 c-3 -5 -1 -10 4 -10 6 0 11 5 11 10 0 6 -2 10 -4 10 -3
0 -8 -4 -11 -10z"/>
<path d="M4110 13280 c0 -11 4 -20 9 -20 5 0 7 9 4 20 -3 11 -7 20 -9 20 -2 0
-4 -9 -4 -20z"/>
<path d="M4301 13284 c0 -11 3 -14 6 -6 3 7 2 16 -1 19 -3 4 -6 -2 -5 -13z"/>
<path d="M4460 13286 c0 -8 4 -17 9 -20 5 -4 7 3 4 14 -6 23 -13 26 -13 6z"/>
<path d="M10852 13288 c-17 -17 -15 -55 3 -62 8 -3 15 -17 15 -31 0 -14 6 -25
13 -25 6 0 21 -3 33 -6 19 -5 21 -2 20 50 -1 31 -4 56 -8 56 -5 0 -8 -4 -8
-10 0 -5 -4 -10 -8 -10 -5 0 -8 10 -8 23 1 25 -32 35 -52 15z m65 -93 c-4 -8
-13 -15 -22 -15 -13 0 -12 3 2 20 19 22 29 19 20 -5z"/>
<path d="M4621 13274 c0 -11 3 -14 6 -6 3 7 2 16 -1 19 -3 4 -6 -2 -5 -13z"/>
<path d="M4831 13274 c0 -11 3 -14 6 -6 3 7 2 16 -1 19 -3 4 -6 -2 -5 -13z"/>
<path d="M5371 13274 c0 -11 3 -14 6 -6 3 7 2 16 -1 19 -3 4 -6 -2 -5 -13z"/>
<path d="M4075 13270 c-3 -5 -1 -10 4 -10 6 0 11 5 11 10 0 6 -2 10 -4 10 -3
0 -8 -4 -11 -10z"/>
<path d="M10615 13190 c4 -6 11 -7 17 -4 7 5 9 1 5 -9 -5 -14 0 -17 33 -17 21
0 41 4 44 8 2 4 -11 6 -30 4 -26 -3 -34 -1 -34 12 0 9 -8 16 -21 16 -11 0 -17
-5 -14 -10z"/>
<path d="M14850 13168 l-35 -11 45 -10 c52 -10 66 -20 73 -49 4 -15 3 -18 -5
-10 -8 8 -15 7 -24 -3 -20 -20 -18 -22 21 -27 21 -2 34 0 34 7 -3 23 2 35 12
35 8 0 8 -5 -1 -15 -10 -12 -9 -15 5 -15 14 0 16 6 12 30 -5 23 -3 28 8 24 8
-4 12 -11 8 -17 -4 -6 -1 -7 6 -2 19 11 -25 53 -68 65 -42 12 -45 12 -91 -2z"/>
<path d="M10450 13116 c0 -8 5 -18 10 -21 6 -3 10 3 10 14 0 12 -4 21 -10 21
-5 0 -10 -6 -10 -14z"/>
<path d="M15010 13085 c-1 -5 -2 -19 -1 -30 1 -12 -1 -16 -6 -10 -7 10 -21 11
-40 5 -5 -1 -11 -2 -14 -2 -4 1 -5 -8 -2 -18 8 -31 61 -27 69 4 3 14 4 33 1
43 -3 10 -6 14 -7 8z m-25 -44 c3 -5 2 -12 -3 -15 -5 -3 -9 1 -9 9 0 17 3 19
12 6z"/>
<path d="M10687 13064 c-4 -4 -3 -12 1 -18 4 -6 7 -15 7 -21 0 -16 48 -35 85
-33 28 1 30 2 9 5 -17 3 -29 12 -32 24 -4 15 -12 20 -29 17 -17 -2 -22 1 -20
15 3 17 -9 23 -21 11z"/>
<path d="M14870 12993 c-44 -13 -45 -14 -31 -22 11 -7 9 -10 -8 -16 -11 -3
-25 -4 -30 0 -5 3 -13 0 -17 -6 -3 -6 -1 -15 6 -19 7 -4 9 -13 6 -19 -5 -7 1
-11 13 -11 12 0 21 -4 21 -10 0 -20 37 -10 47 13 10 22 9 23 -21 19 -38 -5
-25 15 14 21 17 3 24 10 23 23 -1 11 0 13 3 6 3 -6 10 -10 15 -6 5 3 9 0 9 -7
0 -10 3 -10 11 -2 6 6 17 9 24 7 7 -3 15 1 18 9 3 7 0 15 -6 16 -36 6 -84 8
-97 4z"/>
<path d="M4049 12862 c-186 -97 -186 -357 0 -454 72 -38 146 -38 219 -2 163
81 191 302 54 426 -73 66 -182 78 -273 30z m201 -121 c0 -5 -7 -14 -15 -21 -8
-7 -15 -20 -14 -29 0 -13 2 -14 6 -1 8 20 24 30 51 30 27 0 28 -13 2 -31 -16
-11 -21 -26 -22 -74 0 -33 1 -67 3 -75 6 -22 -59 -27 -68 -5 -3 10 -1 20 4 24
6 3 9 15 6 26 -10 55 -10 121 1 127 7 5 7 8 -3 8 -11 0 -11 3 -1 15 13 16 50
21 50 6z m-72 -15 c3 -3 -6 -6 -19 -6 -38 0 -52 -14 -44 -41 5 -13 15 -29 24
-36 15 -11 15 -12 0 -13 -17 0 -25 -50 -8 -50 5 0 9 -8 9 -17 1 -17 1 -17 14
0 21 27 26 20 10 -12 -14 -28 -18 -29 -74 -27 -32 1 -62 5 -66 8 -3 4 1 22 11
40 21 42 33 134 17 124 -7 -4 -12 -17 -13 -29 -1 -18 -2 -17 -9 7 -11 34 -6
44 24 56 22 9 114 5 124 -4z"/>
<path d="M4220 12594 c0 -8 5 -12 10 -9 6 3 10 10 10 16 0 5 -4 9 -10 9 -5 0
-10 -7 -10 -16z"/>
<path d="M4076 12695 c-3 -9 -6 -26 -6 -38 0 -19 2 -18 15 7 9 17 12 33 7 38
-6 6 -12 3 -16 -7z"/>
<path d="M4093 12600 c3 -11 1 -23 -4 -26 -16 -9 -10 -32 9 -30 9 2 17 8 16
14 -1 7 -2 23 -2 37 -1 14 -7 25 -13 25 -6 0 -9 -9 -6 -20z"/>
<path d="M4046 12563 c-6 -14 -5 -15 5 -6 7 7 10 15 7 18 -3 3 -9 -2 -12 -12z"/>
<path d="M14888 12793 c7 -3 16 -2 19 1 4 3 -2 6 -13 5 -11 0 -14 -3 -6 -6z"/>
<path d="M10290 12683 l-35 -14 34 6 c18 3 37 5 42 5 5 0 9 5 9 10 0 12 -5 11
-50 -7z"/>
<path d="M4614 12666 c-9 -23 0 -51 15 -51 8 0 15 6 17 13 1 7 0 8 -3 2 -11
-23 -25 -9 -19 20 6 31 0 41 -10 16z"/>
<path d="M4700 12656 c0 -22 11 -46 21 -46 6 0 5 9 -1 20 -6 11 -8 25 -5 30 3
6 1 10 -4 10 -6 0 -11 -6 -11 -14z"/>
<path d="M4752 12640 c0 -19 2 -27 5 -17 2 9 2 25 0 35 -3 9 -5 1 -5 -18z"/>
<path d="M4781 12658 c0 -7 4 -22 9 -33 7 -16 8 -14 7 12 -1 18 -5 33 -9 33
-5 0 -8 -6 -7 -12z"/>
<path d="M4916 12645 c8 -37 14 -45 14 -19 0 10 -5 26 -10 34 -8 11 -9 7 -4
-15z"/>
<path d="M4950 12659 c0 -5 5 -7 10 -4 6 3 10 8 10 11 0 2 -4 4 -10 4 -5 0
-10 -5 -10 -11z"/>
<path d="M5075 12640 c0 -15 3 -26 8 -23 4 2 7 13 7 23 0 10 -3 21 -7 23 -5 3
-8 -8 -8 -23z"/>
<path d="M5110 12646 c0 -14 4 -27 8 -30 5 -3 6 8 4 25 -5 35 -12 38 -12 5z"/>
<path d="M5155 12640 c0 -15 3 -26 8 -23 4 2 7 13 7 23 0 10 -3 21 -7 23 -5 3
-8 -8 -8 -23z"/>
<path d="M5262 12650 c0 -14 2 -19 5 -12 2 6 2 18 0 25 -3 6 -5 1 -5 -13z"/>
<path d="M5422 12650 c0 -14 2 -19 5 -12 2 6 2 18 0 25 -3 6 -5 1 -5 -13z"/>
<path d="M5500 12661 c0 -5 9 -7 20 -4 11 3 20 7 20 9 0 2 -9 4 -20 4 -11 0
-20 -4 -20 -9z"/>
<path d="M10316 12659 c3 -5 16 -9 30 -9 14 0 23 4 20 9 -3 5 -17 9 -31 9 -13
0 -22 -4 -19 -9z"/>
<path d="M4836 12635 c-9 -26 -7 -32 5 -12 6 10 9 21 6 23 -2 3 -7 -2 -11 -11z"/>
<path d="M5023 12636 c1 -11 9 -21 17 -23 10 -3 11 -2 4 4 -6 4 -14 15 -17 23
-5 11 -6 9 -4 -4z"/>
<path d="M10508 12643 c7 -3 16 -2 19 1 4 3 -2 6 -13 5 -11 0 -14 -3 -6 -6z"/>
<path d="M4671 12624 c0 -11 3 -14 6 -6 3 7 2 16 -1 19 -3 4 -6 -2 -5 -13z"/>
<path d="M4862 12628 c2 -6 10 -14 16 -16 7 -2 10 2 6 12 -7 18 -28 22 -22 4z"/>
<path d="M4951 12624 c0 -11 3 -14 6 -6 3 7 2 16 -1 19 -3 4 -6 -2 -5 -13z"/>
<path d="M5346 12625 c4 -8 8 -15 10 -15 2 0 4 7 4 15 0 8 -4 15 -10 15 -5 0
-7 -7 -4 -15z"/>
<path d="M5501 12624 c0 -11 3 -14 6 -6 3 7 2 16 -1 19 -3 4 -6 -2 -5 -13z"/>
<path d="M10692 12629 c18 -7 33 -7 45 0 14 8 9 10 -27 10 -42 -1 -43 -1 -18
-10z"/>
<path d="M5385 12620 c-3 -5 -1 -10 4 -10 6 0 11 5 11 10 0 6 -2 10 -4 10 -3
0 -8 -4 -11 -10z"/>
<path d="M5528 12623 c7 -3 16 -2 19 1 4 3 -2 6 -13 5 -11 0 -14 -3 -6 -6z"/>
<path d="M10668 12603 c7 -3 16 -2 19 1 4 3 -2 6 -13 5 -11 0 -14 -3 -6 -6z"/>
<path d="M4275 11929 c0 -16 3 -29 8 -29 4 0 7 11 7 24 0 14 -3 27 -7 29 -5 3
-8 -8 -8 -24z"/>
<path d="M4118 11925 c-3 -14 -1 -25 3 -25 5 0 9 11 9 25 0 14 -2 25 -4 25 -2
0 -6 -11 -8 -25z"/>
<path d="M4202 11925 c0 -16 2 -22 5 -12 2 9 2 23 0 30 -3 6 -5 -1 -5 -18z"/>
<path d="M4241 11934 c0 -11 3 -14 6 -6 3 7 2 16 -1 19 -3 4 -6 -2 -5 -13z"/>
<path d="M4310 11931 c0 -11 3 -22 8 -24 4 -3 7 6 7 19 0 13 -3 24 -7 24 -5 0
-8 -9 -8 -19z"/>
<path d="M4358 11925 c2 -14 6 -25 8 -25 2 0 4 11 4 25 0 14 -4 25 -9 25 -4 0
-6 -11 -3 -25z"/>
<path d="M4441 11934 c0 -11 3 -14 6 -6 3 7 2 16 -1 19 -3 4 -6 -2 -5 -13z"/>
<path d="M4522 11925 c0 -16 2 -22 5 -12 2 9 2 23 0 30 -3 6 -5 -1 -5 -18z"/>
<path d="M4630 11925 c0 -14 4 -25 9 -25 4 0 6 11 3 25 -2 14 -6 25 -8 25 -2
0 -4 -11 -4 -25z"/>
<path d="M4682 11925 c0 -16 2 -22 5 -12 2 9 2 23 0 30 -3 6 -5 -1 -5 -18z"/>
<path d="M4756 11937 c3 -10 9 -15 12 -12 3 3 0 11 -7 18 -10 9 -11 8 -5 -6z"/>
<path d="M4821 11926 c7 -15 15 -23 17 -16 3 7 -3 19 -13 28 -15 16 -16 15 -4
-12z"/>
<path d="M4954 11939 c-3 -6 2 -18 12 -27 17 -16 17 -16 5 0 -7 9 -10 22 -6
28 3 5 4 10 1 10 -3 0 -8 -5 -12 -11z"/>
<path d="M5021 11934 c0 -11 3 -14 6 -6 3 7 2 16 -1 19 -3 4 -6 -2 -5 -13z"/>
<path d="M5102 11925 c0 -16 2 -22 5 -12 2 9 2 23 0 30 -3 6 -5 -1 -5 -18z"/>
<path d="M5170 11936 c0 -8 4 -17 8 -20 4 -2 8 4 8 15 0 10 -4 19 -8 19 -4 0
-8 -6 -8 -14z"/>
<path d="M4030 11929 c0 -5 5 -7 10 -4 6 3 10 8 10 11 0 2 -4 4 -10 4 -5 0
-10 -5 -10 -11z"/>
<path d="M4922 11920 c0 -14 2 -19 5 -12 2 6 2 18 0 25 -3 6 -5 1 -5 -13z"/>
<path d="M5072 11920 c0 -14 2 -19 5 -12 2 6 2 18 0 25 -3 6 -5 1 -5 -13z"/>
<path d="M4081 11914 c0 -11 3 -14 6 -6 3 7 2 16 -1 19 -3 4 -6 -2 -5 -13z"/>
<path d="M4150 11910 c0 -5 5 -10 11 -10 5 0 7 5 4 10 -3 6 -8 10 -11 10 -2 0
-4 -4 -4 -10z"/>
<path d="M4470 11910 c0 -5 5 -10 11 -10 5 0 7 5 4 10 -3 6 -8 10 -11 10 -2 0
-4 -4 -4 -10z"/>
<path d="M4710 11910 c0 -5 5 -10 11 -10 5 0 7 5 4 10 -3 6 -8 10 -11 10 -2 0
-4 -4 -4 -10z"/>
<path d="M14745 11518 c2 -23 8 -34 21 -36 15 -3 17 -1 7 9 -18 18 -16 39 3
39 8 0 12 5 9 10 -3 6 -14 10 -24 10 -15 0 -18 -7 -16 -32z"/>
<path d="M14852 11541 c-18 -11 -19 -53 -2 -59 12 -4 13 -3 3 10 -10 12 -10
19 1 34 13 17 15 17 21 3 3 -9 5 -22 3 -29 -2 -7 2 -14 8 -17 7 -2 9 8 6 26
-4 31 -21 44 -40 32z"/>
<path d="M14960 11530 c-1 -23 -2 -24 -14 -7 -19 25 -25 21 -24 -15 1 -18 3
-27 5 -20 3 6 11 12 19 12 8 0 14 -6 15 -12 0 -7 5 0 10 17 5 18 5 33 -1 39
-7 7 -10 1 -10 -14z"/>
<path d="M15120 11525 c-15 -40 -12 -47 18 -43 23 2 27 8 27 33 0 40 -31 47
-45 10z m38 -13 c3 -17 -2 -22 -17 -22 -12 0 -21 5 -21 10 0 6 4 10 10 10 5 0
7 7 3 16 -4 12 -2 15 8 12 8 -2 15 -14 17 -26z"/>
<path d="M15193 11534 c-3 -8 -1 -25 4 -37 8 -18 10 -16 9 16 -1 41 -4 45 -13
21z"/>
<path d="M15347 11543 c-3 -4 -3 -20 0 -36 4 -20 11 -27 29 -27 41 0 37 29 -6
43 -8 2 -2 3 13 1 20 -3 27 0 25 9 -5 14 -54 22 -61 10z m40 -49 c-3 -3 -12
-4 -19 -1 -8 3 -5 6 6 6 11 1 17 -2 13 -5z"/>
<path d="M14991 11524 c0 -11 3 -14 6 -6 3 7 2 16 -1 19 -3 4 -6 -2 -5 -13z"/>
<path d="M15031 11510 c0 -25 2 -31 8 -21 8 12 12 12 25 2 13 -11 16 -11 16 3
0 9 -3 15 -7 15 -21 -3 -32 3 -36 19 -3 9 -5 1 -6 -18z"/>
<path d="M15310 11516 c0 -14 4 -27 9 -30 4 -3 8 8 7 24 -1 36 -16 41 -16 6z"/>
<path d="M14800 11509 c0 -11 4 -18 10 -14 5 3 7 12 3 20 -7 21 -13 19 -13 -6z"/>
<path d="M15229 11518 c-6 -21 -5 -38 2 -38 5 0 9 9 9 20 0 16 -7 28 -11 18z"/>
<path d="M15270 11514 c0 -13 18 -39 24 -34 2 3 -2 14 -10 24 -8 11 -14 16
-14 10z"/>
<path d="M4156 11429 c-168 -41 -223 -234 -99 -351 42 -40 94 -58 170 -58 137
0 233 89 233 215 -1 65 -62 154 -125 180 -43 18 -133 25 -179 14z m114 -123
c0 -8 -12 -17 -27 -20 -95 -23 -98 -25 -98 -51 0 -14 3 -25 8 -25 4 0 7 11 7
25 0 25 0 25 71 20 45 -3 77 -1 85 6 10 8 17 7 29 -4 13 -14 13 -17 -1 -31 -8
-9 -14 -26 -12 -38 2 -17 -3 -24 -19 -26 -18 -3 -23 2 -24 20 0 20 -1 20 -8 5
-6 -16 -19 -19 -90 -19 -60 -1 -85 3 -91 12 -5 8 -6 18 -4 22 3 5 6 26 6 49 0
27 6 43 16 47 9 3 18 0 20 -6 5 -17 22 -15 22 2 0 17 19 23 73 25 25 1 37 -3
37 -13z"/>
<path d="M4731 11278 c1 -18 2 -19 6 -5 2 9 9 14 15 11 7 -4 8 -2 4 4 -12 20
-26 13 -25 -10z"/>
<path d="M14715 11069 c-4 -6 -5 -12 -2 -15 2 -3 7 2 10 11 7 17 1 20 -8 4z"/>
<path d="M14751 11063 c-1 -28 15 -37 36 -21 23 17 27 38 9 38 -8 0 -16 -10
-19 -22 -4 -23 -4 -23 -15 2 -10 24 -11 24 -11 3z"/>
<path d="M14872 11060 c0 -14 2 -19 5 -12 2 6 2 18 0 25 -3 6 -5 1 -5 -13z"/>
<path d="M14995 11056 c0 -13 3 -22 8 -19 4 2 7 13 7 24 0 10 -3 19 -7 19 -5
0 -8 -11 -8 -24z"/>
<path d="M15072 11055 c0 -16 2 -22 5 -12 2 9 2 23 0 30 -3 6 -5 -1 -5 -18z"/>
<path d="M15152 11055 c0 -16 2 -22 5 -12 2 9 2 23 0 30 -3 6 -5 -1 -5 -18z"/>
<path d="M15263 11065 c-3 -9 -3 -18 -1 -21 3 -3 8 4 11 16 6 23 -1 27 -10 5z"/>
<path d="M15398 11057 c-3 -19 -2 -25 4 -19 6 6 8 18 6 28 -3 14 -5 12 -10 -9z"/>
<path d="M15591 11064 c0 -11 3 -14 6 -6 3 7 2 16 -1 19 -3 4 -6 -2 -5 -13z"/>
<path d="M15300 11065 c0 -5 5 -17 10 -25 5 -8 10 -10 10 -5 0 6 -5 17 -10 25
-5 8 -10 11 -10 5z"/>
<path d="M15341 11054 c0 -11 3 -14 6 -6 3 7 2 16 -1 19 -3 4 -6 -2 -5 -13z"/>
<path d="M15562 11050 c0 -14 2 -19 5 -12 2 6 2 18 0 25 -3 6 -5 1 -5 -13z"/>
<path d="M15661 11054 c0 -11 3 -14 6 -6 3 7 2 16 -1 19 -3 4 -6 -2 -5 -13z"/>
<path d="M15711 11054 c0 -11 3 -14 6 -6 3 7 2 16 -1 19 -3 4 -6 -2 -5 -13z"/>
<path d="M14831 11044 c0 -11 3 -14 6 -6 3 7 2 16 -1 19 -3 4 -6 -2 -5 -13z"/>
<path d="M14911 11044 c0 -11 3 -14 6 -6 3 7 2 16 -1 19 -3 4 -6 -2 -5 -13z"/>
<path d="M15421 11044 c0 -11 3 -14 6 -6 3 7 2 16 -1 19 -3 4 -6 -2 -5 -13z"/>
<path d="M15771 11044 c0 -11 3 -14 6 -6 3 7 2 16 -1 19 -3 4 -6 -2 -5 -13z"/>
<path d="M4720 10501 c0 -17 4 -32 8 -35 4 -2 6 11 4 30 -5 42 -12 45 -12 5z"/>
<path d="M4754 10517 c13 -10 17 -20 12 -33 -5 -14 -4 -16 4 -8 17 17 8 48
-15 52 -20 4 -20 3 -1 -11z"/>
<path d="M4807 10523 c-10 -9 -9 -51 1 -57 5 -3 8 11 8 29 -1 19 -1 35 -2 35
0 0 -4 -3 -7 -7z"/>
<path d="M5100 10500 c0 -16 3 -30 8 -30 4 0 7 14 7 30 0 17 -3 30 -7 30 -5 0
-8 -13 -8 -30z"/>
<path d="M4911 10504 c0 -11 3 -14 6 -6 3 7 2 16 -1 19 -3 4 -6 -2 -5 -13z"/>
<path d="M5181 10493 c-1 -25 3 -33 17 -33 11 0 13 3 6 8 -7 4 -14 18 -17 32
-4 21 -4 20 -6 -7z"/>
<path d="M5261 10484 c0 -11 3 -14 6 -6 3 7 2 16 -1 19 -3 4 -6 -2 -5 -13z"/>
<path d="M4870 10475 c0 -8 4 -15 10 -15 5 0 7 7 4 15 -4 8 -8 15 -10 15 -2 0
-4 -7 -4 -15z"/>
<path d="M4835 10470 c-3 -5 -1 -10 4 -10 6 0 11 5 11 10 0 6 -2 10 -4 10 -3
0 -8 -4 -11 -10z"/>
<path d="M14811 10184 c0 -11 3 -14 6 -6 3 7 2 16 -1 19 -3 4 -6 -2 -5 -13z"/>
<path d="M4740 9793 c0 -14 2 -15 9 -4 5 8 14 10 21 6 9 -5 11 -4 6 3 -11 18
-36 14 -36 -5z"/>
<path d="M5110 9775 c0 -14 2 -25 4 -25 2 0 6 11 8 25 3 14 1 25 -3 25 -5 0
-9 -11 -9 -25z"/>
<path d="M5239 9768 c4 -28 6 -29 9 -9 2 13 0 27 -5 32 -6 6 -7 -3 -4 -23z"/>
<path d="M5324 9786 c-3 -8 -4 -25 -2 -38 3 -17 5 -13 9 15 5 38 2 47 -7 23z"/>
<path d="M5573 9784 c-3 -8 -2 -19 3 -24 5 -5 9 1 9 16 0 28 -3 30 -12 8z"/>
<path d="M5650 9789 c0 -5 5 -7 10 -4 6 3 10 8 10 11 0 2 -4 4 -10 4 -5 0 -10
-5 -10 -11z"/>
<path d="M5391 9774 c0 -11 3 -14 6 -6 3 7 2 16 -1 19 -3 4 -6 -2 -5 -13z"/>
<path d="M5001 9764 c0 -11 3 -14 6 -6 3 7 2 16 -1 19 -3 4 -6 -2 -5 -13z"/>
<path d="M5500 9761 c0 -11 4 -22 9 -25 4 -3 6 6 3 19 -5 30 -12 33 -12 6z"/>
<path d="M4766 9753 c-6 -14 -5 -15 5 -6 7 7 10 15 7 18 -3 3 -9 -2 -12 -12z"/>
<path d="M4833 9755 c-3 -9 -3 -18 -1 -21 3 -3 8 4 11 16 6 23 -1 27 -10 5z"/>
<path d="M5361 9754 c0 -11 3 -14 6 -6 3 7 2 16 -1 19 -3 4 -6 -2 -5 -13z"/>
<path d="M5547 9751 c-4 -17 -3 -21 5 -13 5 5 8 16 6 23 -3 8 -7 3 -11 -10z"/>
<path d="M5668 9763 c7 -3 16 -2 19 1 4 3 -2 6 -13 5 -11 0 -14 -3 -6 -6z"/>
<path d="M5675 9740 c-16 -7 -17 -9 -3 -9 9 -1 20 4 23 9 7 11 7 11 -20 0z"/>
<path d="M4038 9178 c-13 -13 -17 -18 -8 -12 8 6 24 16 35 22 11 6 15 12 8 12
-7 0 -22 -10 -35 -22z"/>
<path d="M4767 9103 c-10 -9 -9 -63 1 -63 5 0 6 14 4 32 -4 28 -2 30 17 25 11
-3 19 -1 15 4 -6 11 -28 12 -37 2z"/>
<path d="M4870 9075 c0 -14 2 -25 4 -25 2 0 6 11 8 25 3 14 1 25 -3 25 -5 0
-9 -11 -9 -25z"/>
<path d="M4957 9079 c4 -13 8 -18 11 -10 2 7 -1 18 -6 23 -8 8 -9 4 -5 -13z"/>
<path d="M5273 9085 c-3 -9 -3 -18 -1 -21 3 -3 8 4 11 16 6 23 -1 27 -10 5z"/>
<path d="M5322 9070 c0 -19 2 -27 5 -17 2 9 2 25 0 35 -3 9 -5 1 -5 -18z"/>
<path d="M5581 9084 c0 -11 3 -14 6 -6 3 7 2 16 -1 19 -3 4 -6 -2 -5 -13z"/>
<path d="M5637 9085 c-4 -8 -2 -17 3 -20 6 -4 10 3 10 14 0 25 -6 27 -13 6z"/>
<path d="M5158 9067 c-3 -19 -2 -25 4 -19 6 6 8 18 6 28 -3 14 -5 12 -10 -9z"/>
<path d="M5238 9067 c-3 -19 -2 -25 4 -19 6 6 8 18 6 28 -3 14 -5 12 -10 -9z"/>
<path d="M5002 9060 c0 -14 2 -19 5 -12 2 6 2 18 0 25 -3 6 -5 1 -5 -13z"/>
<path d="M5076 9067 c3 -10 9 -15 12 -12 3 3 0 11 -7 18 -10 9 -11 8 -5 -6z"/>
<path d="M5501 9054 c0 -11 3 -14 6 -6 3 7 2 16 -1 19 -3 4 -6 -2 -5 -13z"/>
<path d="M4915 9050 c-3 -5 -1 -10 4 -10 6 0 11 5 11 10 0 6 -2 10 -4 10 -3 0
-8 -4 -11 -10z"/>
<path d="M4472 9010 c0 -19 2 -27 5 -17 2 9 2 25 0 35 -3 9 -5 1 -5 -18z"/>
<path d="M4333 8873 c9 -2 25 -2 35 0 9 3 1 5 -18 5 -19 0 -27 -2 -17 -5z"/>
<path d="M4288 8433 c6 -2 18 -2 25 0 6 3 1 5 -13 5 -14 0 -19 -2 -12 -5z"/>
<path d="M4338 8433 c6 -2 18 -2 25 0 6 3 1 5 -13 5 -14 0 -19 -2 -12 -5z"/>
<path d="M4019 7438 c8 -11 25 -17 45 -17 l31 2 -30 4 c-16 3 -37 10 -45 16
-13 10 -13 10 -1 -5z"/>
<path d="M4447 7444 c-3 -4 -21 -10 -39 -14 l-33 -8 31 -1 c17 -1 37 6 44 14
12 14 10 21 -3 9z"/>
<path d="M14704 7279 c-4 -8 -3 -9 4 -5 7 4 12 1 12 -6 0 -16 37 -21 45 -7 4
5 12 6 18 3 8 -5 9 -4 2 3 -17 18 -72 26 -81 12z"/>
<path d="M14695 7200 c-3 -5 -1 -10 4 -10 6 0 11 5 11 10 0 6 -2 10 -4 10 -3
0 -8 -4 -11 -10z"/>
<path d="M16665 7170 c-3 -5 -1 -10 4 -10 6 0 11 5 11 10 0 6 -2 10 -4 10 -3
0 -8 -4 -11 -10z"/>
<path d="M16660 7120 c0 -5 5 -10 11 -10 5 0 7 5 4 10 -3 6 -8 10 -11 10 -2 0
-4 -4 -4 -10z"/>
<path d="M6772 11169 c-81 -46 -103 -118 -53 -174 28 -31 32 -73 9 -95 -19
-18 -18 -18 52 -30 66 -11 75 -10 128 11 58 23 81 43 82 69 0 8 12 24 27 36
24 19 27 27 24 70 -3 60 -32 104 -67 104 l-26 0 31 -31 c58 -58 29 -145 -34
-103 -14 9 -25 22 -25 29 0 15 -56 75 -71 75 -6 0 -9 8 -7 18 3 14 13 17 53
15 l50 -1 -45 18 c-60 25 -67 25 -128 -11z m29 -44 c0 -5 7 -14 15 -18 25 -14
17 -61 -16 -85 -35 -26 -53 -28 -70 -6 -20 24 -16 71 9 98 22 23 61 30 62 11z
m72 -146 c43 -23 49 -57 15 -89 -31 -29 -63 -25 -106 14 -34 32 -36 36 -21 51
9 10 32 21 50 25 19 4 35 8 37 9 2 1 13 -4 25 -10z"/>
<path d="M14046 11084 c-20 -19 -21 -31 -2 -15 9 8 16 8 20 2 4 -5 1 -13 -4
-16 -8 -5 -5 -14 7 -28 10 -11 12 -17 6 -13 -7 4 -13 2 -13 -3 0 -18 24 -12
43 9 25 30 21 59 -9 70 -32 13 -30 13 -48 -6z m59 -24 c3 -5 -1 -10 -10 -10
-9 0 -13 5 -10 10 3 6 8 10 10 10 2 0 7 -4 10 -10z"/>
<path d="M7210 11079 c0 -6 6 -9 14 -6 14 6 26 -12 26 -38 0 -7 -7 -16 -15
-18 -11 -4 -10 -4 2 -3 22 2 29 41 13 62 -15 17 -40 19 -40 3z"/>
<path d="M7307 11058 c-6 -22 10 -64 20 -54 3 3 0 12 -6 20 -9 11 -10 20 -1
35 6 12 7 21 2 21 -6 0 -12 -10 -15 -22z"/>
<path d="M7344 11068 c-4 -7 -3 -8 4 -4 8 5 12 -3 12 -26 0 -21 3 -28 9 -20 9
16 2 62 -10 62 -4 0 -11 -5 -15 -12z"/>
<path d="M7469 11063 c6 -12 9 -30 6 -40 -3 -10 0 -8 6 5 10 19 10 26 -5 40
-17 16 -18 16 -7 -5z"/>
<path d="M7553 11043 c-1 -33 0 -35 8 -15 5 13 5 30 1 38 -5 9 -8 1 -9 -23z"/>
<path d="M7583 11045 c0 -22 2 -30 4 -17 2 12 2 30 0 40 -3 9 -5 -1 -4 -23z"/>
<path d="M7715 11044 c0 -19 5 -34 10 -34 6 0 10 13 10 30 0 16 -4 32 -10 34
-5 2 -10 -12 -10 -30z"/>
<path d="M7402 11040 c0 -19 2 -27 5 -17 2 9 2 25 0 35 -3 9 -5 1 -5 -18z"/>
<path d="M7428 11053 c-5 -20 0 -43 10 -43 4 0 7 14 7 30 0 33 -10 40 -17 13z"/>
<path d="M7500 11056 c0 -26 12 -46 27 -46 12 0 12 3 -2 16 -9 9 -14 23 -11
30 3 8 1 14 -4 14 -6 0 -10 -6 -10 -14z"/>
<path d="M7662 11040 c0 -19 2 -27 5 -17 2 9 2 25 0 35 -3 9 -5 1 -5 -18z"/>
<path d="M7641 11043 c-1 -12 -9 -24 -18 -26 -17 -4 -17 -5 0 -6 19 -1 32 21
24 41 -3 7 -6 3 -6 -9z"/>
<path d="M7281 11024 c0 -11 3 -14 6 -6 3 7 2 16 -1 19 -3 4 -6 -2 -5 -13z"/>
<path d="M8721 10622 c-1 -19 3 -23 21 -20 13 2 23 11 24 21 1 12 1 13 -3 2
-6 -21 -30 -19 -36 3 -3 12 -5 11 -6 -6z"/>
<path d="M8850 10628 c0 -9 -6 -19 -12 -21 -10 -4 -10 -6 0 -6 14 -1 28 26 18
36 -3 4 -6 -1 -6 -9z"/>
<path d="M8943 10625 c-3 -9 -3 -19 1 -22 3 -4 6 1 6 11 0 9 5 14 10 11 6 -3
10 -1 10 4 0 17 -20 13 -27 -4z"/>
<path d="M9351 10624 c0 -11 3 -14 6 -6 3 7 2 16 -1 19 -3 4 -6 -2 -5 -13z"/>
<path d="M9472 10620 c0 -14 2 -19 5 -12 2 6 2 18 0 25 -3 6 -5 1 -5 -13z"/>
<path d="M9506 10627 c3 -10 9 -15 12 -12 3 3 0 11 -7 18 -10 9 -11 8 -5 -6z"/>
<path d="M10191 10624 c0 -11 3 -14 6 -6 3 7 2 16 -1 19 -3 4 -6 -2 -5 -13z"/>
<path d="M10911 10624 c0 -11 3 -14 6 -6 3 7 2 16 -1 19 -3 4 -6 -2 -5 -13z"/>
<path d="M11901 10624 c0 -11 3 -14 6 -6 3 7 2 16 -1 19 -3 4 -6 -2 -5 -13z"/>
<path d="M8785 10621 c-3 -5 -2 -12 3 -15 5 -3 9 1 9 9 0 17 -3 19 -12 6z"/>
<path d="M8876 10617 c3 -10 9 -15 12 -12 3 3 0 11 -7 18 -10 9 -11 8 -5 -6z"/>
<path d="M9581 10614 c0 -11 3 -14 6 -6 3 7 2 16 -1 19 -3 4 -6 -2 -5 -13z"/>
<path d="M10000 10621 c0 -6 4 -13 10 -16 6 -3 7 1 4 9 -7 18 -14 21 -14 7z"/>
<path d="M10960 10621 c0 -6 4 -13 10 -16 6 -3 7 1 4 9 -7 18 -14 21 -14 7z"/>
<path d="M11121 10614 c0 -11 3 -14 6 -6 3 7 2 16 -1 19 -3 4 -6 -2 -5 -13z"/>
<path d="M11871 10614 c0 -11 3 -14 6 -6 3 7 2 16 -1 19 -3 4 -6 -2 -5 -13z"/>
<path d="M8673 10468 c-2 -16 1 -18 10 -9 7 7 8 14 1 21 -6 6 -10 2 -11 -12z"/>
<path d="M8700 10473 c0 -14 2 -15 9 -4 7 11 10 11 14 -3 5 -15 5 -15 3 0 -2
24 -26 30 -26 7z"/>
<path d="M8751 10466 c0 -12 3 -15 6 -8 2 6 9 10 14 6 5 -3 9 1 10 8 0 7 5 4
10 -7 8 -19 9 -19 6 -1 -3 28 -47 30 -46 2z"/>
<path d="M8831 10474 c0 -11 3 -14 6 -6 3 7 2 16 -1 19 -3 4 -6 -2 -5 -13z"/>
<path d="M8635 9912 c-7 -7 -6 -47 1 -66 7 -18 49 -22 59 -6 4 7 -2 9 -19 4
-24 -6 -26 -4 -26 25 0 29 2 31 21 21 22 -12 35 -8 25 8 -7 11 -53 22 -61 14z"/>
<path d="M8714 9876 c-8 -32 2 -46 32 -46 25 0 31 20 18 54 -10 25 -43 19 -50
-8z m41 -11 c0 -10 -6 -20 -12 -22 -8 -3 -13 5 -13 22 0 17 5 25 13 23 6 -3
12 -13 12 -23z"/>
<path d="M8790 9865 c0 -19 3 -35 8 -35 4 0 7 16 7 35 0 19 -3 35 -7 35 -5 0
-8 -16 -8 -35z"/>
<path d="M8828 9865 c2 -19 6 -35 8 -35 2 0 4 16 4 35 0 19 -4 35 -8 35 -4 0
-6 -16 -4 -35z"/>
<path d="M8863 9865 c-2 -23 1 -35 10 -35 9 0 12 11 9 35 -5 45 -16 45 -19 0z"/>
<path d="M8904 9884 c3 -9 6 -24 6 -35 0 -10 4 -19 8 -19 4 0 6 16 4 35 -2 19
-9 35 -14 35 -6 0 -7 -7 -4 -16z"/>
<path d="M8940 9865 c0 -19 4 -35 9 -35 5 0 11 16 13 35 3 24 0 35 -9 35 -8 0
-13 -13 -13 -35z"/>
<path d="M8978 9888 c-8 -22 4 -58 19 -58 10 0 11 4 3 19 -5 11 -7 27 -4 35 3
9 2 16 -4 16 -6 0 -12 -5 -14 -12z"/>
<path d="M9031 9868 c-1 -29 3 -38 15 -38 12 0 14 3 6 13 -5 6 -12 23 -15 37
-3 18 -5 15 -6 -12z"/>
<path d="M9065 9883 c4 -10 7 -26 7 -35 0 -10 3 -18 9 -18 10 0 11 15 3 48 -4
12 -11 22 -16 22 -6 0 -7 -8 -3 -17z"/>
<path d="M9098 9865 c5 -40 22 -48 22 -10 0 14 6 25 13 26 6 0 3 4 -8 9 -31
13 -31 12 -27 -25z"/>
<path d="M9180 9871 c0 -17 5 -33 10 -36 6 -4 9 8 8 29 -4 43 -18 48 -18 7z"/>
<path d="M9228 9893 c-5 -26 -2 -63 4 -63 5 0 8 16 6 35 -2 33 -6 44 -10 28z"/>
<path d="M9261 9865 c1 -40 1 -40 11 -12 7 21 7 32 -1 40 -8 8 -11 0 -10 -28z"/>
<path d="M9294 9893 c10 -11 37 -12 30 -2 -3 5 -12 9 -21 9 -9 0 -13 -3 -9 -7z"/>
<path d="M9341 9863 c1 -35 1 -36 9 -11 4 14 11 31 15 37 3 6 -1 11 -9 11 -12
0 -16 -10 -15 -37z"/>
<path d="M9380 9884 c0 -8 5 -12 10 -9 6 4 8 11 5 16 -9 14 -15 11 -15 -7z"/>
<path d="M9420 9865 c0 -46 15 -46 16 0 0 19 -3 35 -8 35 -4 0 -8 -16 -8 -35z"/>
<path d="M9462 9868 c3 -29 7 -33 33 -35 28 -2 28 -1 5 5 -37 11 -34 48 3 45
15 -1 25 2 22 8 -4 5 -20 9 -36 9 -28 0 -30 -2 -27 -32z"/>
<path d="M9490 9866 c0 -2 7 -7 16 -10 8 -3 12 -2 9 4 -6 10 -25 14 -25 6z"/>
<path d="M9151 9844 c0 -11 3 -14 6 -6 3 7 2 16 -1 19 -3 4 -6 -2 -5 -13z"/>
<path d="M9290 9852 c0 -12 19 -26 26 -19 2 2 -2 10 -11 17 -9 8 -15 8 -15 2z"/>
<path d="M9360 9851 c0 -6 4 -13 10 -16 6 -3 7 1 4 9 -7 18 -14 21 -14 7z"/>
<path d="M9390 9840 c0 -5 5 -10 11 -10 5 0 7 5 4 10 -3 6 -8 10 -11 10 -2 0
-4 -4 -4 -10z"/>
<path d="M8641 9314 c0 -11 3 -14 6 -6 3 7 2 16 -1 19 -3 4 -6 -2 -5 -13z"/>
<path d="M8682 9300 c0 -14 2 -19 5 -12 2 6 2 18 0 25 -3 6 -5 1 -5 -13z"/>
<path d="M8706 9305 c-9 -26 -7 -32 5 -12 6 10 9 21 6 23 -2 3 -7 -2 -11 -11z"/>
<path d="M8882 9300 c0 -14 2 -19 5 -12 2 6 2 18 0 25 -3 6 -5 1 -5 -13z"/>
<path d="M8951 9304 c0 -11 3 -14 6 -6 3 7 2 16 -1 19 -3 4 -6 -2 -5 -13z"/>
<path d="M9032 9300 c0 -14 2 -19 5 -12 2 6 2 18 0 25 -3 6 -5 1 -5 -13z"/>
<path d="M9078 9297 c-3 -19 -2 -25 4 -19 6 6 8 18 6 28 -3 14 -5 12 -10 -9z"/>
<path d="M9182 9300 c0 -14 2 -19 5 -12 2 6 2 18 0 25 -3 6 -5 1 -5 -13z"/>
<path d="M9242 9300 c0 -14 2 -19 5 -12 2 6 2 18 0 25 -3 6 -5 1 -5 -13z"/>
<path d="M9317 9299 c4 -13 8 -18 11 -10 2 7 -1 18 -6 23 -8 8 -9 4 -5 -13z"/>
<path d="M9392 9295 c0 -16 2 -22 5 -12 2 9 2 23 0 30 -3 6 -5 -1 -5 -18z"/>
<path d="M11308 9313 c7 -3 16 -2 19 1 4 3 -2 6 -13 5 -11 0 -14 -3 -6 -6z"/>
<path d="M11351 9304 c0 -11 3 -14 6 -6 3 7 2 16 -1 19 -3 4 -6 -2 -5 -13z"/>
<path d="M11502 9295 c0 -16 2 -22 5 -12 2 9 2 23 0 30 -3 6 -5 -1 -5 -18z"/>
<path d="M9271 9294 c0 -11 3 -14 6 -6 3 7 2 16 -1 19 -3 4 -6 -2 -5 -13z"/>
<path d="M9502 9290 c0 -14 2 -19 5 -12 2 6 2 18 0 25 -3 6 -5 1 -5 -13z"/>
<path d="M11422 9290 c0 -14 2 -19 5 -12 2 6 2 18 0 25 -3 6 -5 1 -5 -13z"/>
<path d="M11572 9290 c0 -14 2 -19 5 -12 2 6 2 18 0 25 -3 6 -5 1 -5 -13z"/>
<path d="M11672 9290 c0 -14 2 -19 5 -12 2 6 2 18 0 25 -3 6 -5 1 -5 -13z"/>
<path d="M11742 9290 c0 -14 2 -19 5 -12 2 6 2 18 0 25 -3 6 -5 1 -5 -13z"/>
<path d="M11822 9290 c0 -14 2 -19 5 -12 2 6 2 18 0 25 -3 6 -5 1 -5 -13z"/>
<path d="M11902 9290 c0 -14 2 -19 5 -12 2 6 2 18 0 25 -3 6 -5 1 -5 -13z"/>
<path d="M11972 9290 c0 -14 2 -19 5 -12 2 6 2 18 0 25 -3 6 -5 1 -5 -13z"/>
<path d="M12062 9290 c0 -14 2 -19 5 -12 2 6 2 18 0 25 -3 6 -5 1 -5 -13z"/>
<path d="M9346 9287 c3 -10 9 -15 12 -12 3 3 0 11 -7 18 -10 9 -11 8 -5 -6z"/>
<path d="M8612 8323 l3 -638 733 -3 732 -3 0 641 0 640 -736 0 -735 0 3 -637z
m1248 602 c0 -28 -20 -35 -20 -7 -1 15 -2 15 -15 -2 -16 -21 -31 -16 -22 8 3
8 16 16 29 19 13 2 24 5 26 6 1 0 2 -10 2 -24z m2 -50 c13 -17 9 -21 -22 -23
-16 -1 -30 2 -30 8 0 5 5 10 11 10 5 0 8 4 5 9 -8 12 27 8 36 -4z m-37 -83
c15 -10 13 -34 -3 -40 -8 -2 -10 2 -6 13 4 10 1 21 -7 26 -8 5 -9 9 -4 9 6 0
15 -4 20 -8z m-366 -61 c11 -7 40 -70 41 -89 0 -1 -12 -1 -27 0 -16 1 -45 -4
-66 -11 -21 -7 -41 -11 -44 -8 -3 3 3 27 13 54 11 26 18 51 16 56 -3 10 50 9
67 -2z m-89 -11 c0 -5 -5 -10 -11 -10 -5 0 -7 5 -4 10 3 6 8 10 11 10 2 0 4
-4 4 -10z m-520 -140 c0 -11 -49 -30 -54 -21 -3 4 2 18 10 30 13 17 19 20 30
10 8 -6 14 -15 14 -19z m615 -1 c5 -14 2 -25 -6 -30 -17 -11 -35 -5 -31 10 1
6 -2 11 -8 11 -5 0 -10 4 -10 9 0 8 15 15 42 20 4 0 10 -9 13 -20z m48 -39
c-5 -19 -39 -26 -35 -7 1 4 2 16 2 27 0 17 3 19 19 10 13 -6 17 -17 14 -30z
m-633 -4 c0 -7 -7 -19 -15 -26 -12 -10 -18 -10 -31 1 -14 12 -14 14 2 26 23
17 44 17 44 -1z m447 -8 c-3 -8 -6 -5 -6 6 -1 11 2 17 5 13 3 -3 4 -12 1 -19z
m503 1 c0 -5 -4 -7 -10 -4 -5 3 -10 1 -10 -5 0 -7 8 -9 20 -5 12 4 20 2 20 -4
0 -6 -13 -10 -28 -9 -33 2 -44 38 -11 38 10 0 19 -5 19 -11z m-70 -14 c0 -8
-4 -15 -9 -15 -5 0 -14 7 -21 15 -10 13 -9 15 9 15 12 0 21 -6 21 -15z m-326
-1 c25 -10 19 -24 -9 -22 -14 1 -25 8 -25 15 0 14 10 16 34 7z m-192 -25 c16
-9 19 -17 14 -44 -4 -19 -2 -36 4 -40 5 -3 10 -14 10 -23 0 -13 -2 -14 -9 -3
-6 10 -13 11 -27 3 -41 -23 -66 61 -31 106 12 15 13 15 39 1z m266 -1 c21 -21
13 -38 -18 -38 -26 0 -30 -4 -30 -26 0 -14 -4 -23 -9 -20 -14 9 -1 68 17 83
21 16 25 16 40 1z m-118 -39 c0 -5 5 -7 10 -4 6 3 10 1 10 -4 0 -6 -4 -11 -10
-11 -5 0 -10 -7 -10 -15 0 -18 -24 -30 -40 -20 -7 4 -5 16 7 36 17 29 33 38
33 18z m365 1 c-3 -5 1 -10 10 -10 9 0 14 -4 10 -10 -8 -13 -35 -1 -35 16 0 8
5 14 11 14 5 0 7 -4 4 -10z m-833 -69 c2 -17 1 -28 -4 -25 -4 3 -8 0 -8 -6 0
-6 -9 -20 -19 -32 l-20 -20 6 21 c4 15 1 21 -11 21 -16 0 -21 12 -9 23 3 4 12
2 18 -3 9 -8 14 -2 18 20 8 38 23 39 29 1z m896 5 c6 -7 -18 -56 -27 -56 -13
0 -31 33 -31 55 0 14 6 16 27 10 16 -4 29 -8 31 -9z m-862 -21 c-1 -32 -12
-32 -18 0 -3 16 -1 25 7 25 7 0 12 -11 11 -25z m484 -16 c0 -11 5 -17 10 -14
6 3 10 2 10 -3 0 -12 -29 -24 -40 -17 -10 6 0 55 11 55 5 0 9 -9 9 -21z m-176
-4 c-4 -8 -8 -15 -10 -15 -2 0 -4 7 -4 15 0 8 4 15 10 15 5 0 7 -7 4 -15z
m134 -50 c-3 -3 -9 2 -12 12 -6 14 -5 15 5 6 7 -7 10 -15 7 -18z m-168 -9 c0
-18 -16 -29 -30 -21 -13 8 -1 35 16 35 8 0 14 -6 14 -14z m540 -12 c0 -2 -7
-4 -15 -4 -8 0 -15 4 -15 10 0 5 7 7 15 4 8 -4 15 -8 15 -10z m-403 -16 c-3
-8 -6 -5 -6 6 -1 11 2 17 5 13 3 -3 4 -12 1 -19z m95 -18 c-3 -21 -10 -30 -23
-30 -35 0 -24 25 27 59 0 1 -1 -12 -4 -29z m131 -21 c15 -27 21 -30 45 -24 15
4 24 4 20 0 -14 -14 -74 -22 -83 -11 -11 12 -16 66 -6 66 3 0 14 -14 24 -31z
m-47 -16 c-11 -11 -19 6 -11 24 8 17 8 17 12 0 3 -10 2 -21 -1 -24z m-266 11
c0 -8 -4 -12 -10 -9 -5 3 -10 10 -10 16 0 5 5 9 10 9 6 0 10 -7 10 -16z m87
-11 c6 -16 -37 -27 -51 -13 -8 9 -6 11 9 8 13 -2 19 2 17 10 -3 16 20 11 25
-5z m-77 -23 c0 -5 -9 -6 -20 -3 -11 3 -20 9 -20 13 0 5 9 6 20 3 11 -3 20 -9
20 -13z m-410 -10 c0 -5 -2 -10 -4 -10 -3 0 -8 5 -11 10 -3 6 -1 10 4 10 6 0
11 -4 11 -10z m1017 -15 c0 -10 -7 -13 -24 -9 -19 5 -23 2 -23 -16 0 -11 4
-19 9 -16 13 9 41 -4 41 -18 0 -23 -51 -12 -65 14 -25 45 -19 60 23 60 27 0
39 -4 39 -15z m-341 -24 c-9 -15 -101 -24 -158 -16 -40 6 -48 10 -33 15 29 11
197 12 191 1z m-673 -17 c-3 -8 -7 -14 -10 -14 -2 0 -11 6 -18 14 -12 11 -10
14 10 14 16 0 22 -5 18 -14z m437 -14 c0 -5 -9 -10 -21 -10 -11 0 -17 5 -14
10 3 6 13 10 21 10 8 0 14 -4 14 -10z m309 -22 c-8 -14 -14 -17 -22 -9 -7 7
-6 15 3 25 17 22 32 9 19 -16z m-379 12 c13 -8 13 -10 -2 -10 -9 0 -20 5 -23
10 -8 13 5 13 25 0z m584 -72 c-7 -22 -37 -23 -55 -2 -11 14 -10 18 6 30 10 8
22 14 27 14 4 0 7 3 7 8 -5 28 5 30 12 2 4 -19 6 -43 3 -52z m-81 12 c-7 -26
-21 -36 -62 -44 -29 -5 -32 -4 -21 9 18 21 6 30 -14 10 -14 -14 -16 -14 -16
-1 0 19 15 28 65 42 48 12 55 10 48 -16z"/>
<path d="M9430 8670 c-13 -9 -13 -10 0 -10 8 0 22 5 30 10 13 9 13 10 0 10 -8
0 -22 -5 -30 -10z"/>
<path d="M11269 8954 c-3 -5 -3 -293 -1 -639 l4 -631 714 -1 714 -1 0 637 0
636 -232 -5 c-153 -2 -206 -6 -155 -10 l78 -5 -16 -22 c-9 -13 -24 -23 -33
-23 -12 0 -13 -3 -5 -8 17 -11 19 -93 3 -131 -14 -35 -33 -40 -50 -13 -10 15
-11 14 -7 -6 4 -15 -2 -28 -19 -41 -13 -10 -24 -24 -24 -30 0 -6 -7 -8 -15 -5
-9 4 -15 0 -15 -10 0 -8 -11 -18 -25 -22 -14 -3 -22 -10 -19 -15 5 -9 -8 -13
-37 -10 -9 1 -19 -6 -23 -15 -5 -12 -9 -14 -20 -5 -18 15 -123 3 -142 -16 -20
-21 -17 -33 9 -34 21 0 21 -1 2 -9 -11 -5 -15 -9 -10 -9 32 -3 36 -18 14 -59
-13 -23 -26 -42 -30 -42 -5 0 -20 -12 -36 -26 -21 -19 -24 -27 -14 -33 11 -7
8 -21 -15 -67 -16 -33 -31 -63 -33 -67 -1 -5 5 -7 15 -5 13 2 19 -3 19 -17 0
-11 6 -31 14 -44 12 -22 12 -24 -8 -18 -13 3 -21 0 -21 -7 0 -7 -9 -21 -20
-31 -11 -10 -20 -24 -20 -31 0 -7 -3 -14 -7 -16 -5 -1 -22 -20 -40 -40 -17
-20 -34 -34 -37 -31 -3 4 -6 -1 -6 -10 0 -9 -3 -17 -7 -18 -5 0 -18 -2 -31 -5
-16 -3 -21 0 -16 8 4 7 3 8 -5 4 -9 -6 -9 -11 0 -22 9 -11 9 -17 -1 -29 -7 -8
-16 -13 -20 -10 -5 3 -10 -1 -13 -7 -3 -10 -7 -10 -20 0 -14 12 -15 16 -2 36
9 13 36 38 63 56 26 19 54 43 62 55 8 11 29 35 47 53 52 52 55 106 12 209 -20
48 -22 50 -38 35 -12 -12 -15 -22 -10 -34 5 -9 5 -29 0 -45 -5 -15 -12 -53
-16 -85 -5 -45 -11 -60 -32 -75 -14 -10 -34 -26 -45 -35 -19 -19 -24 -9 -9 20
21 37 64 139 76 180 11 35 11 42 -1 42 -8 0 -11 7 -8 18 3 9 -2 6 -10 -8 l-15
-25 -1 28 c0 16 -4 26 -9 23 -4 -3 -16 1 -27 8 -10 8 -24 12 -31 9 -8 -3 -13
3 -13 15 0 15 -8 20 -42 24 -35 4 -53 15 -95 57 -60 59 -70 101 -31 122 20 11
20 13 5 24 -19 13 -23 35 -7 35 6 0 10 -5 10 -11 0 -5 5 -7 11 -4 11 7 119
-45 119 -57 0 -5 7 -8 15 -8 8 0 15 -5 15 -12 0 -6 3 -9 6 -5 4 3 24 -1 45
-10 43 -17 89 -10 56 8 -9 6 -21 8 -26 4 -5 -3 -13 -1 -16 5 -4 6 -23 21 -43
34 -60 38 -115 95 -108 112 3 8 2 13 -2 10 -11 -7 -42 30 -42 50 0 9 -9 18
-20 21 -23 6 -27 33 -5 33 10 0 15 10 15 28 0 15 7 39 14 54 9 16 11 30 5 33
-15 10 -11 23 9 28 9 3 -15 5 -54 6 -39 0 -91 4 -116 7 -25 4 -47 2 -49 -2z
m812 -459 c16 -9 35 -13 41 -9 7 4 8 3 4 -4 -4 -7 -2 -12 3 -12 19 0 12 -27
-15 -54 -15 -14 -30 -26 -35 -26 -4 0 -19 23 -34 51 -34 69 -24 84 36 54z
m129 -85 c0 -16 5 -32 10 -35 6 -3 10 -2 10 4 0 5 9 9 20 8 13 -1 19 -6 15
-15 -3 -8 0 -12 7 -9 7 2 12 9 11 14 -1 6 13 7 38 3 51 -9 88 -43 82 -73 -3
-14 2 -29 11 -36 18 -15 22 -97 6 -121 -8 -13 -11 -13 -19 -1 -7 11 -10 10
-18 -4 -6 -10 -20 -18 -32 -19 -12 0 -21 -4 -21 -8 0 -5 0 -13 0 -19 0 -5 5
-7 10 -4 17 11 11 -13 -20 -80 -17 -36 -36 -65 -42 -65 -9 0 -9 3 0 12 7 7 12
19 12 28 0 9 9 33 20 55 18 35 18 40 4 56 -12 14 -13 22 -4 38 6 12 8 21 4 21
-4 0 4 9 17 20 13 11 30 24 36 30 10 8 9 18 -4 45 -18 37 -15 36 -128 40 -71
3 -81 -1 -62 -23 17 -21 32 -132 17 -132 -5 0 -10 -9 -10 -20 0 -11 -5 -20
-11 -20 -6 0 -8 7 -5 17 6 15 5 16 -11 1 -20 -17 -43 -13 -43 8 0 8 -9 14 -19
14 -11 0 -23 4 -26 10 -4 6 -13 5 -25 -2 -11 -7 -22 -9 -25 -6 -8 7 35 77 59
97 11 9 16 29 16 63 0 47 3 53 51 99 28 27 55 46 60 43 5 -3 9 -18 9 -34z
m-289 -163 c-13 -13 -15 11 -4 40 7 16 8 15 11 -6 2 -13 -1 -28 -7 -34z m196
-171 c-2 -6 -11 -12 -19 -14 -16 -3 -32 44 -20 62 7 12 44 -33 39 -48z m312
-26 c1 -38 -2 -70 -7 -70 -6 0 -12 -10 -16 -22 -5 -19 -8 -21 -16 -8 -8 13
-10 12 -11 -5 0 -12 -5 -7 -12 15 l-10 35 -7 -30 c-7 -27 -8 -28 -9 -5 -1 36
23 112 34 103 4 -4 5 -2 0 6 -5 9 0 20 16 32 13 10 27 19 30 19 3 0 7 -31 8
-70z m-170 -19 c11 -7 10 -14 -8 -40 -12 -17 -27 -31 -32 -31 -16 0 -22 30
-11 56 12 25 27 30 51 15z m-655 -74 c-3 -17 -18 -48 -32 -69 -26 -41 -40 -51
-22 -18 6 11 9 24 6 29 -9 14 34 102 45 95 6 -3 7 -19 3 -37z m661 -84 c-9
-15 -13 -19 -10 -8 4 11 10 29 13 40 3 11 7 14 9 8 3 -7 -3 -24 -12 -40z
m-232 22 c4 -8 2 -17 -3 -20 -6 -4 -10 3 -10 14 0 25 6 27 13 6z m192 -84 c-3
-6 -14 -11 -23 -11 -15 1 -15 2 2 15 21 16 32 13 21 -4z"/>
<path d="M12391 8214 c0 -11 3 -14 6 -6 3 7 2 16 -1 19 -3 4 -6 -2 -5 -13z"/>
<path d="M11920 8921 c0 -17 5 -33 10 -36 6 -3 10 -11 10 -17 0 -6 -7 -5 -16
3 -15 12 -16 11 -10 -8 4 -13 1 -26 -9 -36 -22 -22 -22 -187 0 -187 8 0 15 -7
15 -15 0 -11 13 -15 54 -15 70 0 86 7 86 37 0 14 7 52 16 85 18 71 16 116 -5
141 -9 10 -14 32 -13 48 3 28 2 29 -40 28 -35 0 -40 -2 -26 -11 14 -11 14 -13
-8 -30 -19 -16 -26 -17 -38 -6 -11 11 -10 16 7 30 20 18 20 18 -6 18 -23 0
-27 -4 -27 -29z"/>
<path d="M12298 8903 c7 -3 16 -2 19 1 4 3 -2 6 -13 5 -11 0 -14 -3 -6 -6z"/>
<path d="M11891 8854 c0 -11 3 -14 6 -6 3 7 2 16 -1 19 -3 4 -6 -2 -5 -13z"/>
<path d="M12280 8778 c0 -19 2 -20 10 -8 13 19 13 30 0 30 -5 0 -10 -10 -10
-22z"/>
<path d="M11778 8512 c-12 -2 -18 -13 -18 -33 0 -36 25 -49 45 -23 28 37 14
66 -27 56z"/>
<path d="M11842 8305 c0 -16 2 -22 5 -12 2 9 2 23 0 30 -3 6 -5 -1 -5 -18z"/>
<path d="M8648 7038 c-2 -7 -1 -26 3 -43 4 -16 7 -22 8 -12 1 18 21 25 21 7 0
-5 5 -10 10 -10 18 0 10 22 -10 27 -11 3 -20 12 -20 20 0 10 7 14 20 10 11 -3
18 -1 14 4 -8 13 -41 11 -46 -3z"/>
<path d="M8723 7015 c0 -22 2 -30 4 -17 2 12 2 30 0 40 -3 9 -5 -1 -4 -23z"/>
<path d="M8748 7027 c-6 -33 2 -57 18 -57 8 0 14 5 14 10 0 6 -5 10 -11 10 -7
0 -9 10 -7 25 3 14 2 28 -2 30 -4 3 -10 -5 -12 -18z"/>
<path d="M11307 7043 c-4 -3 -7 -21 -7 -40 0 -34 15 -42 54 -27 19 7 21 45 4
62 -13 13 -41 16 -51 5z m43 -39 c0 -15 -6 -24 -16 -24 -11 0 -14 6 -9 20 4
13 2 20 -7 20 -10 0 -9 3 2 9 19 13 30 4 30 -25z"/>
<path d="M8791 7008 c2 -31 2 -31 6 -5 5 33 23 26 23 -9 0 -13 5 -24 10 -24
15 0 12 22 -6 48 -22 31 -34 27 -33 -10z"/>
<path d="M8910 7010 c0 -16 2 -30 4 -30 2 0 6 14 8 30 3 17 1 30 -4 30 -4 0
-8 -13 -8 -30z"/>
<path d="M8982 7009 c-1 -15 2 -30 7 -33 5 -3 7 2 4 12 -2 11 3 26 11 35 15
14 15 16 -2 14 -12 -1 -19 -10 -20 -28z"/>
<path d="M9038 7009 c4 -24 7 -28 13 -16 5 8 6 22 3 31 -11 27 -21 17 -16 -15z"/>
<path d="M9070 7005 c0 -19 4 -35 9 -35 5 0 9 16 8 35 -3 46 -17 46 -17 0z"/>
<path d="M9110 7008 c0 -23 3 -29 9 -19 8 12 4 51 -5 51 -2 0 -4 -15 -4 -32z"/>
<path d="M9152 7010 c0 -19 2 -27 5 -17 2 9 2 25 0 35 -3 9 -5 1 -5 -18z"/>
<path d="M9182 7015 c0 -16 2 -22 5 -12 2 9 2 23 0 30 -3 6 -5 -1 -5 -18z"/>
<path d="M9206 7025 c-3 -9 -1 -25 4 -36 15 -27 53 -7 48 24 -4 27 -43 36 -52
12z m40 -6 c10 -17 -13 -36 -27 -22 -12 12 -4 33 11 33 5 0 12 -5 16 -11z"/>
<path d="M9270 7033 c0 -4 5 -15 10 -23 8 -13 10 -13 10 2 0 9 -4 20 -10 23
-5 3 -10 3 -10 -2z"/>
<path d="M9306 7014 c-4 -15 -3 -31 2 -36 6 -6 11 4 14 26 5 42 -7 48 -16 10z"/>
<path d="M9356 7018 c5 -22 3 -28 -11 -28 -9 0 -14 -4 -10 -10 7 -12 32 -3 39
15 2 7 -2 21 -10 32 -13 17 -14 16 -8 -9z"/>
<path d="M9390 7011 c0 -16 5 -33 10 -36 6 -4 10 6 10 24 0 16 -4 33 -10 36
-6 4 -10 -6 -10 -24z"/>
<path d="M9430 7008 c0 -36 4 -35 14 5 4 16 2 27 -4 27 -5 0 -10 -14 -10 -32z"/>
<path d="M9471 7003 c2 -31 3 -33 6 -10 2 15 9 27 14 27 6 0 7 5 4 10 -13 22
-25 8 -24 -27z"/>
<path d="M9518 7023 c5 -10 7 -25 5 -33 -3 -11 -1 -11 6 2 12 17 5 48 -10 48
-6 0 -6 -7 -1 -17z"/>
<path d="M9557 7034 c-11 -11 -8 -54 3 -54 5 0 9 10 7 21 -3 31 21 35 26 4 4
-24 4 -24 3 2 -1 27 -24 42 -39 27z"/>
<path d="M9626 7013 c2 -52 64 -54 64 -1 0 17 -4 27 -10 23 -6 -4 -8 -11 -4
-16 3 -6 3 -16 0 -24 -7 -20 -36 -7 -36 15 0 11 -4 21 -8 24 -4 2 -7 -7 -6
-21z"/>
<path d="M9651 7024 c0 -11 3 -14 6 -6 3 7 2 16 -1 19 -3 4 -6 -2 -5 -13z"/>
<path d="M9713 7005 c0 -22 2 -30 4 -17 2 12 2 30 0 40 -3 9 -5 -1 -4 -23z"/>
<path d="M9740 7024 c0 -8 5 -12 10 -9 6 3 10 10 10 16 0 5 -4 9 -10 9 -5 0
-10 -7 -10 -16z"/>
<path d="M9785 7009 c0 -16 3 -29 8 -29 4 0 7 11 7 24 0 14 -3 27 -7 29 -5 3
-8 -8 -8 -24z"/>
<path d="M9827 7033 c-2 -5 -1 -19 4 -33 7 -23 7 -23 8 8 1 31 -3 40 -12 25z"/>
<path d="M9857 7033 c-3 -5 8 -8 25 -9 20 -1 25 2 16 7 -16 11 -35 11 -41 2z"/>
<path d="M11390 7006 c0 -25 5 -35 20 -39 19 -5 50 15 50 33 0 26 -15 40 -41
40 -26 0 -29 -3 -29 -34z m50 9 c15 -18 5 -35 -21 -35 -17 0 -20 14 -10 48 3
7 20 0 31 -13z"/>
<path d="M11471 7003 c0 -31 2 -34 9 -18 12 28 12 55 0 55 -5 0 -10 -17 -9
-37z"/>
<path d="M11508 7028 c-3 -7 -2 -24 2 -38 6 -22 7 -21 11 13 5 35 -4 51 -13
25z"/>
<path d="M11547 7012 c-7 -36 12 -57 36 -40 22 17 27 59 7 66 -12 3 -12 2 -3
-8 8 -9 9 -19 2 -32 -14 -27 -32 -22 -27 7 3 14 2 28 -2 30 -4 3 -10 -8 -13
-23z"/>
<path d="M11625 7020 c-8 -25 3 -62 16 -54 6 4 5 11 -2 20 -9 11 -9 18 -1 26
14 14 15 28 3 28 -5 0 -13 -9 -16 -20z"/>
<path d="M11703 7008 c1 -21 5 -38 10 -38 9 0 8 17 -3 50 -7 21 -8 20 -7 -12z"/>
<path d="M11797 7033 c-6 -11 11 -53 21 -53 15 0 44 38 37 49 -7 12 -52 15
-58 4z m41 -20 c-4 -22 -22 -20 -26 1 -2 10 3 16 13 16 10 0 15 -7 13 -17z"/>
<path d="M11870 7005 c0 -19 2 -35 4 -35 2 0 6 16 8 35 2 19 0 35 -4 35 -4 0
-8 -16 -8 -35z"/>
<path d="M11896 7024 c-12 -32 -6 -54 14 -54 21 0 38 40 25 59 -9 16 -32 13
-39 -5z m32 -16 c-4 -27 -28 -36 -28 -10 0 20 8 32 22 32 5 0 8 -10 6 -22z"/>
<path d="M11957 7033 c-10 -10 -8 -61 2 -67 5 -3 8 8 7 25 0 19 5 34 13 37 10
3 13 -3 9 -27 -5 -35 7 -42 15 -9 9 33 -25 63 -46 41z"/>
<path d="M12028 7005 c2 -19 6 -35 8 -35 2 0 4 16 4 35 0 19 -4 35 -8 35 -4 0
-6 -16 -4 -35z"/>
<path d="M12109 7003 l5 -38 6 30 c7 31 4 45 -9 45 -4 0 -5 -17 -2 -37z"/>
<path d="M12143 7010 c-1 -16 2 -32 7 -35 6 -4 10 5 10 19 0 14 0 29 1 33 0 4
-3 9 -8 10 -4 2 -9 -10 -10 -27z"/>
<path d="M12186 7014 c-4 -15 -3 -31 2 -36 6 -6 11 4 14 26 5 42 -7 48 -16 10z"/>
<path d="M12257 7034 c-4 -4 -7 -20 -7 -36 0 -21 5 -28 19 -28 11 0 22 4 25 9
4 5 -3 7 -14 4 -15 -4 -20 0 -20 16 0 11 5 22 10 23 30 4 35 0 42 -27 6 -29 6
-29 5 5 -2 29 -6 35 -27 38 -14 2 -29 0 -33 -4z"/>
<path d="M12340 7011 c0 -17 4 -32 9 -36 6 -3 9 7 8 22 -2 25 1 28 26 25 15
-1 27 2 27 8 0 5 -16 10 -35 10 -32 0 -35 -2 -35 -29z"/>
<path d="M8860 7005 c0 -14 4 -25 9 -25 4 0 6 11 3 25 -2 14 -6 25 -8 25 -2 0
-4 -11 -4 -25z"/>
<path d="M8943 7000 c0 -16 4 -27 9 -24 4 3 8 14 8 24 0 10 -4 21 -8 24 -5 3
-9 -8 -9 -24z"/>
<path d="M11667 7005 c-2 -14 -1 -28 3 -30 4 -3 10 7 13 20 2 14 1 28 -3 30
-4 3 -10 -7 -13 -20z"/>
<path d="M11754 7000 c-1 -16 3 -27 7 -24 11 6 12 54 2 54 -5 0 -8 -13 -9 -30z"/>
<path d="M12064 7016 c-3 -8 -1 -23 5 -33 9 -15 10 -13 11 15 0 34 -7 42 -16
18z"/>
<path d="M12220 6998 c0 -36 4 -35 14 5 4 16 2 27 -4 27 -5 0 -10 -14 -10 -32z"/>
<path d="M12377 7003 c-15 -14 -6 -33 16 -32 18 1 18 2 4 6 -11 3 -16 11 -13
19 6 15 3 18 -7 7z"/>
<path d="M9746 6992 c-3 -6 -1 -14 5 -17 15 -10 25 3 12 16 -7 7 -13 7 -17 1z"/>
<path d="M9850 6996 c0 -2 8 -10 18 -17 15 -13 16 -12 3 4 -13 16 -21 21 -21
13z"/>
<path d="M9890 6989 c0 -5 5 -7 10 -4 6 3 10 8 10 11 0 2 -4 4 -10 4 -5 0 -10
-5 -10 -11z"/>
<path d="M9010 6980 c0 -5 5 -10 10 -10 6 0 10 5 10 10 0 6 -4 10 -10 10 -5 0
-10 -4 -10 -10z"/>
<path d="M8911 6804 c0 -11 3 -14 6 -6 3 7 2 16 -1 19 -3 4 -6 -2 -5 -13z"/>
<path d="M9661 6804 c0 -11 3 -14 6 -6 3 7 2 16 -1 19 -3 4 -6 -2 -5 -13z"/>
<path d="M11301 6794 c0 -11 3 -14 6 -6 3 7 2 16 -1 19 -3 4 -6 -2 -5 -13z"/>
<path d="M11350 6801 c0 -6 4 -13 10 -16 6 -3 7 1 4 9 -7 18 -14 21 -14 7z"/>
<path d="M8676 6115 c8 -20 93 -20 120 0 17 13 12 14 -53 15 -60 0 -71 -3 -67
-15z"/>
<path d="M11320 6109 c0 -14 6 -16 35 -9 20 4 45 5 57 2 15 -3 19 -2 14 7 -4
6 -12 9 -17 6 -5 -4 -9 -2 -9 4 0 5 -18 9 -40 8 -30 -1 -40 -5 -40 -18z"/>
</g>
</svg>
