<?xml version="1.0" standalone="no"?>
<!DOCTYPE svg PUBLIC "-//W3C//DTD SVG 20010904//EN"
 "http://www.w3.org/TR/2001/REC-SVG-20010904/DTD/svg10.dtd">
<svg version="1.0" xmlns="http://www.w3.org/2000/svg"
 width="2048.000000pt" height="2048.000000pt" viewBox="0 0 2048.000000 2048.000000"
 preserveAspectRatio="xMidYMid meet">

<g transform="translate(0.000000,2048.000000) scale(0.100000,-0.100000)"
fill="#000000" stroke="none">
<path d="M0 10240 l0 -10240 10240 0 10240 0 0 10240 0 10240 -10240 0 -10240
0 0 -10240z m15157 3224 c12 -3 25 -13 29 -22 4 -10 9 -1406 12 -3104 l4
-3086 -848 -4 c-729 -3 -8208 -3 -8781 1 l-203 1 0 3100 c0 2941 1 3100 18
3109 18 11 9728 16 9769 5z"/>
<path d="M5817 13093 l-68 -66 68 -69 c37 -37 72 -68 77 -68 10 0 128 109 135
124 3 8 -128 146 -139 146 -3 0 -36 -30 -73 -67z m144 -27 l42 -47 -53 -54
-53 -54 -38 32 c-20 18 -38 38 -38 45 -1 8 -10 16 -21 19 -11 3 -20 9 -20 13
0 5 24 33 53 63 59 62 59 62 128 -17z"/>
<path d="M5888 13104 c-5 -4 -8 -29 -8 -56 0 -45 -1 -48 -27 -49 -21 -1 -23
-2 -8 -6 11 -3 26 -12 33 -21 11 -14 12 -14 12 1 0 10 13 20 33 26 l32 9 -32
1 c-33 1 -40 9 -25 27 10 11 0 79 -10 68z"/>
<path d="M14630 13111 c-52 -52 -52 -108 1 -160 24 -24 39 -31 70 -31 51 0 75
13 94 50 30 58 13 130 -36 156 -47 24 -97 18 -129 -15z m134 -22 c51 -60 17
-148 -57 -149 -39 0 -64 15 -83 51 -31 60 13 129 81 129 25 0 40 -8 59 -31z"/>
<path d="M7066 13034 c-11 -30 -6 -52 14 -57 28 -7 37 13 14 31 -13 10 -15 16
-6 19 6 3 10 9 6 14 -8 14 -21 11 -28 -7z"/>
<path d="M7122 13010 c0 -19 2 -27 5 -17 2 9 2 25 0 35 -3 9 -5 1 -5 -18z"/>
<path d="M7146 13018 c-8 -33 -8 -38 7 -38 7 0 13 11 12 24 0 34 -11 42 -19
14z"/>
<path d="M7183 13019 c4 -13 7 -27 7 -31 0 -5 5 -8 10 -8 15 0 6 53 -10 58 -9
3 -11 -2 -7 -19z"/>
<path d="M7230 13004 c0 -21 4 -33 10 -29 6 3 10 18 10 33 l1 27 13 -30 13
-30 7 29 c4 15 5 31 1 34 -3 3 -5 -1 -5 -8 0 -11 -3 -11 -12 -2 -23 23 -38 13
-38 -24z"/>
<path d="M7304 13018 c-6 -20 2 -38 16 -38 6 0 9 8 7 18 -1 9 3 18 8 19 6 2
10 -6 10 -17 1 -28 12 -35 20 -10 4 11 1 27 -5 35 -16 19 -49 15 -56 -7z"/>
<path d="M7378 13010 c2 -16 9 -30 14 -30 13 0 6 53 -8 57 -7 2 -9 -8 -6 -27z"/>
<path d="M7414 13024 c3 -9 6 -24 6 -35 0 -10 6 -19 14 -19 19 0 29 17 20 32
-5 8 -10 6 -15 -8 -7 -17 -8 -17 -8 4 -1 13 5 22 14 22 8 0 15 5 15 10 0 6
-12 10 -26 10 -20 0 -25 -4 -20 -16z"/>
<path d="M8489 13038 c-1 -2 -3 -15 -5 -30 -2 -19 2 -28 12 -28 16 0 19 16 4
25 -5 3 -7 12 -3 20 4 12 -3 23 -8 13z"/>
<path d="M9092 13011 c2 -23 7 -28 25 -27 15 1 23 7 23 19 0 9 -4 17 -10 17
-5 0 -10 -4 -10 -10 0 -5 -5 -10 -11 -10 -6 0 -9 9 -6 20 3 11 1 20 -4 20 -5
0 -8 -13 -7 -29z"/>
<path d="M9420 13012 c0 -18 5 -32 10 -32 6 0 8 11 4 28 -10 39 -14 40 -14 4z"/>
<path d="M7860 13005 c0 -25 14 -34 24 -16 4 5 0 12 -6 14 -10 4 -9 8 2 16 13
9 13 11 -2 11 -13 0 -18 -8 -18 -25z"/>
<path d="M7900 13003 c0 -26 1 -26 15 -7 19 25 19 34 0 34 -10 0 -15 -10 -15
-27z"/>
<path d="M7952 13005 c0 -16 2 -22 5 -12 2 9 2 23 0 30 -3 6 -5 -1 -5 -18z"/>
<path d="M7978 13004 c3 -17 7 -22 12 -14 6 9 9 9 13 -1 3 -8 6 0 6 16 1 23
-2 26 -9 15 -6 -10 -10 -11 -10 -2 0 6 -4 12 -9 12 -4 0 -6 -12 -3 -26z"/>
<path d="M8028 13010 c-7 -24 -3 -38 8 -28 3 4 4 17 2 30 l-3 23 -7 -25z"/>
<path d="M8054 13005 c-1 -14 2 -25 7 -25 5 0 9 11 9 25 0 33 -15 33 -16 0z"/>
<path d="M8524 13005 c1 -33 16 -33 16 0 0 14 -4 25 -9 25 -5 0 -8 -11 -7 -25z"/>
<path d="M8554 13005 c-1 -14 2 -25 6 -25 11 0 21 30 14 41 -10 16 -19 9 -20
-16z"/>
<path d="M8590 13005 c0 -14 2 -25 4 -25 2 0 6 11 8 25 3 14 1 25 -3 25 -5 0
-9 -11 -9 -25z"/>
<path d="M8620 13005 c0 -17 5 -25 18 -25 14 0 15 2 2 10 -10 6 -11 10 -2 10
6 0 12 7 12 15 0 8 -7 15 -15 15 -9 0 -15 -9 -15 -25z"/>
<path d="M8665 13010 c2 -31 15 -37 15 -7 0 15 -4 27 -8 27 -5 0 -8 -9 -7 -20z"/>
<path d="M8697 13023 c9 -3 10 -10 3 -24 -8 -15 -7 -19 5 -19 9 0 15 9 15 25
0 17 -5 25 -17 24 -11 0 -13 -3 -6 -6z"/>
<path d="M9150 13019 c0 -8 4 -20 9 -27 7 -11 9 -11 14 1 3 9 -1 21 -9 27 -11
10 -14 10 -14 -1z"/>
<path d="M9185 13012 c3 -7 5 -19 5 -25 1 -13 30 22 30 34 0 4 -9 7 -20 6 -13
-1 -19 -6 -15 -15z"/>
<path d="M9230 13011 c-12 -24 -13 -31 -1 -31 5 0 12 10 14 23 l4 22 2 -22 c0
-13 6 -23 11 -23 11 0 13 11 4 34 -8 21 -21 20 -34 -3z"/>
<path d="M9282 13005 c0 -16 2 -22 5 -12 2 9 2 23 0 30 -3 6 -5 -1 -5 -18z"/>
<path d="M9310 13005 c0 -14 5 -25 10 -25 6 0 10 11 10 25 0 14 -4 25 -10 25
-5 0 -10 -11 -10 -25z"/>
<path d="M9341 13003 l1 -28 7 25 8 25 5 -25 c5 -25 5 -25 7 3 1 18 -4 27 -14
27 -10 0 -15 -9 -14 -27z"/>
<path d="M9391 13003 c0 -25 1 -26 9 -8 12 27 12 35 0 35 -5 0 -10 -12 -9 -27z"/>
<path d="M9441 13020 c0 -8 4 -22 9 -30 12 -18 12 -2 0 25 -6 13 -9 15 -9 5z"/>
<path d="M9470 13007 c0 -15 4 -27 8 -27 10 0 9 36 -1 46 -4 4 -7 -5 -7 -19z"/>
<path d="M9500 13005 c0 -14 5 -25 10 -25 6 0 10 11 10 25 0 14 -4 25 -10 25
-5 0 -10 -11 -10 -25z"/>
<path d="M9562 13005 c0 -16 2 -22 5 -12 2 9 2 23 0 30 -3 6 -5 -1 -5 -18z"/>
<path d="M9587 13023 c-11 -10 -8 -43 3 -43 6 0 10 11 10 25 0 26 -2 29 -13
18z"/>
<path d="M9621 13008 c-1 -19 4 -28 14 -28 8 0 15 5 15 11 0 5 -4 8 -9 4 -5
-3 -12 5 -14 17 -4 20 -4 19 -6 -4z"/>
<path d="M10287 13023 c-4 -3 -7 -14 -7 -24 0 -24 70 -25 71 0 0 12 2 12 8 -4
7 -18 8 -17 13 6 4 22 1 25 -14 21 -10 -2 -18 -12 -19 -21 0 -13 -2 -14 -6 -1
-10 24 -33 36 -46 23z m23 -18 c0 -8 -4 -15 -10 -15 -5 0 -10 7 -10 15 0 8 5
15 10 15 6 0 10 -7 10 -15z"/>
<path d="M10395 13020 c-3 -5 -1 -18 4 -27 9 -16 10 -14 11 10 0 28 -5 34 -15
17z"/>
<path d="M10430 13009 c-7 -11 -9 -23 -7 -26 3 -2 9 6 13 19 l8 23 7 -25 7
-25 1 28 c1 32 -14 35 -29 6z"/>
<path d="M10482 13005 c0 -16 2 -22 5 -12 2 9 2 23 0 30 -3 6 -5 -1 -5 -18z"/>
<path d="M10510 13005 c0 -14 5 -25 10 -25 6 0 10 11 10 25 0 14 -4 25 -10 25
-5 0 -10 -11 -10 -25z"/>
<path d="M10602 13010 c0 -14 2 -19 5 -12 2 6 2 18 0 25 -3 6 -5 1 -5 -13z"/>
<path d="M10620 13018 c0 -7 5 -20 10 -28 8 -12 10 -11 10 7 0 12 -4 25 -10
28 -5 3 -10 0 -10 -7z"/>
<path d="M10656 13013 c-4 -9 -2 -21 4 -27 7 -7 10 -2 10 17 0 31 -5 34 -14
10z"/>
<path d="M10837 13023 c-10 -10 -8 -43 2 -43 5 0 12 10 14 23 l4 22 2 -22 c1
-27 16 -30 25 -6 9 23 -29 45 -47 26z"/>
<path d="M10942 13005 c0 -16 2 -22 5 -12 2 9 2 23 0 30 -3 6 -5 -1 -5 -18z"/>
<path d="M10986 13012 c-4 -13 -5 -26 -2 -29 10 -11 18 4 14 29 l-4 23 -8 -23z"/>
<path d="M11015 13005 c0 -14 3 -25 8 -25 4 0 7 4 7 9 0 5 3 16 6 25 4 10 1
16 -7 16 -8 0 -14 -11 -14 -25z"/>
<path d="M11387 13017 c-9 -24 7 -33 56 -34 37 0 47 3 42 14 -3 8 -5 17 -5 19
0 2 -4 4 -10 4 -5 0 -10 -7 -10 -16 0 -8 -4 -13 -10 -9 -5 3 -7 12 -3 20 3 8
0 15 -5 15 -6 0 -14 -9 -17 -20 -3 -11 -11 -20 -17 -20 -6 0 -8 9 -5 20 6 22
-8 28 -16 7z"/>
<path d="M11490 13014 c0 -9 5 -12 12 -8 8 5 9 2 5 -9 -3 -10 -2 -17 4 -17 16
0 23 31 8 41 -21 13 -29 11 -29 -7z"/>
<path d="M11556 13017 c-10 -8 -16 -20 -13 -28 4 -9 6 -7 6 6 1 16 3 17 11 5
11 -17 23 -8 18 15 -3 14 -5 14 -22 2z"/>
<path d="M11642 13005 c1 -14 6 -25 10 -25 4 0 8 11 8 25 0 14 -4 25 -10 25
-5 0 -9 -11 -8 -25z"/>
<path d="M11670 13006 c0 -14 5 -26 10 -26 6 0 10 9 10 19 0 11 -4 23 -10 26
-6 4 -10 -5 -10 -19z"/>
<path d="M11718 13024 c-5 -4 -8 -19 -8 -33 1 -23 2 -24 11 -8 11 19 9 53 -3
41z"/>
<path d="M11752 13018 c-14 -14 -16 -38 -3 -38 8 0 23 41 17 47 -1 1 -8 -3
-14 -9z"/>
<path d="M11792 13018 c-17 -17 -15 -37 4 -34 18 3 35 26 28 38 -7 11 -18 10
-32 -4z m22 -13 c-4 -8 -8 -15 -10 -15 -2 0 -4 7 -4 15 0 8 4 15 10 15 5 0 7
-7 4 -15z"/>
<path d="M11870 13011 c-13 -25 -13 -28 3 -28 7 0 14 11 15 24 2 28 -4 29 -18
4z"/>
<path d="M12017 13023 c-4 -3 -7 -16 -6 -27 0 -19 1 -19 10 3 10 24 8 36 -4
24z"/>
<path d="M12037 13008 c-6 -21 -2 -36 7 -27 10 11 16 49 8 49 -5 0 -12 -10
-15 -22z"/>
<path d="M12114 13015 c-3 -8 -4 -20 -2 -27 3 -7 7 -1 10 15 6 29 1 36 -8 12z"/>
<path d="M12153 13018 c-19 -25 -24 -38 -14 -38 6 0 11 8 12 18 0 14 2 14 9
-3 8 -18 9 -17 9 8 1 30 -2 33 -16 15z"/>
<path d="M12190 13021 c0 -5 -2 -16 -5 -23 -3 -8 2 -14 13 -15 15 -1 18 4 14
23 -4 23 -22 35 -22 15z"/>
<path d="M12230 13006 c0 -31 6 -34 13 -6 3 11 1 23 -4 26 -5 3 -9 -6 -9 -20z"/>
<path d="M12273 13023 c-15 -5 -18 -43 -4 -43 5 0 12 10 14 23 l4 22 2 -22 c0
-13 6 -23 11 -23 11 0 13 11 4 34 -6 17 -11 18 -31 9z"/>
<path d="M12318 13005 c2 -14 6 -25 8 -25 2 0 4 11 4 25 0 14 -4 25 -9 25 -4
0 -6 -11 -3 -25z"/>
<path d="M12350 13005 c0 -14 5 -25 10 -25 6 0 10 11 10 25 0 14 -4 25 -10 25
-5 0 -10 -11 -10 -25z"/>
<path d="M12392 13005 c0 -16 2 -22 5 -12 2 9 2 23 0 30 -3 6 -5 -1 -5 -18z"/>
<path d="M12426 13013 c-4 -9 -2 -21 4 -27 7 -7 10 -2 10 17 0 31 -5 34 -14
10z"/>
<path d="M12458 13005 c2 -14 6 -25 8 -25 2 0 4 11 4 25 0 14 -4 25 -9 25 -4
0 -6 -11 -3 -25z"/>
<path d="M12488 13010 c-7 -24 -3 -38 8 -28 3 4 4 17 2 30 l-3 23 -7 -25z"/>
<path d="M12510 13005 c0 -16 6 -25 15 -25 9 0 15 9 15 25 0 16 -6 25 -15 25
-9 0 -15 -9 -15 -25z m17 -7 c-3 -8 -6 -5 -6 6 -1 11 2 17 5 13 3 -3 4 -12 1
-19z"/>
<path d="M9530 13001 c0 -12 5 -21 10 -21 6 0 10 6 10 14 0 8 -4 18 -10 21 -5
3 -10 -3 -10 -14z"/>
<path d="M10561 13004 c0 -11 3 -14 6 -6 3 7 2 16 -1 19 -3 4 -6 -2 -5 -13z"/>
<path d="M10680 12998 c0 -19 2 -20 10 -8 13 19 13 30 0 30 -5 0 -10 -10 -10
-22z"/>
<path d="M10710 12999 c0 -11 5 -17 10 -14 6 3 10 13 10 21 0 8 -4 14 -10 14
-5 0 -10 -9 -10 -21z"/>
<path d="M10752 13000 c0 -14 2 -19 5 -12 2 6 2 18 0 25 -3 6 -5 1 -5 -13z"/>
<path d="M10770 13000 c0 -11 5 -20 10 -20 6 0 10 9 10 20 0 11 -4 20 -10 20
-5 0 -10 -9 -10 -20z"/>
<path d="M10800 12998 c0 -19 2 -20 10 -8 13 19 13 30 0 30 -5 0 -10 -10 -10
-22z"/>
<path d="M10910 13000 c0 -11 4 -20 9 -20 5 0 7 9 4 20 -3 11 -7 20 -9 20 -2
0 -4 -9 -4 -20z"/>
<path d="M10962 13000 c0 -14 2 -19 5 -12 2 6 2 18 0 25 -3 6 -5 1 -5 -13z"/>
<path d="M11590 12998 c0 -19 2 -20 10 -8 13 19 13 30 0 30 -5 0 -10 -10 -10
-22z"/>
<path d="M11837 13014 c-4 -4 -7 -14 -7 -23 0 -11 3 -12 11 -4 6 6 10 16 7 23
-2 6 -7 8 -11 4z"/>
<path d="M11912 13000 c0 -14 2 -19 5 -12 2 6 2 18 0 25 -3 6 -5 1 -5 -13z"/>
<path d="M12072 13000 c0 -14 2 -19 5 -12 2 6 2 18 0 25 -3 6 -5 1 -5 -13z"/>
<path d="M8081 12994 c0 -11 3 -14 6 -6 3 7 2 16 -1 19 -3 4 -6 -2 -5 -13z"/>
<path d="M11621 12994 c0 -11 3 -14 6 -6 3 7 2 16 -1 19 -3 4 -6 -2 -5 -13z"/>
<path d="M7920 12990 c0 -5 5 -10 10 -10 6 0 10 5 10 10 0 6 -4 10 -10 10 -5
0 -10 -4 -10 -10z"/>
<path d="M12074 11815 c4 -11 2 -22 -6 -27 -10 -6 -8 -8 5 -8 19 0 24 35 5 46
-8 5 -9 2 -4 -11z"/>
<path d="M12346 11797 c23 -47 31 -47 25 1 -2 20 -6 31 -8 24 -4 -10 -8 -10
-20 -1 -11 10 -10 4 3 -24z"/>
<path d="M12396 11823 c-12 -12 -6 -22 9 -17 11 5 17 -3 21 -25 4 -18 9 -30
11 -27 3 2 2 18 -2 34 -6 29 -27 47 -39 35z"/>
<path d="M12148 11790 c-3 -17 -1 -33 4 -36 4 -3 8 4 8 15 0 10 3 26 6 35 3 9
2 16 -4 16 -5 0 -12 -14 -14 -30z"/>
<path d="M12187 11788 c8 -46 13 -48 13 -5 0 21 -4 37 -10 37 -5 0 -7 -14 -3
-32z"/>
<path d="M12225 11788 c1 -18 7 -34 12 -35 5 -2 9 7 7 19 -1 13 -3 29 -3 36
-1 6 -5 12 -10 12 -5 0 -8 -14 -6 -32z"/>
<path d="M12265 11785 c0 -35 8 -44 20 -24 8 12 -2 59 -13 59 -4 0 -7 -16 -7
-35z"/>
<path d="M12312 11790 c0 -19 2 -27 5 -17 2 9 2 25 0 35 -3 9 -5 1 -5 -18z"/>
<path d="M12457 11814 c-4 -4 -7 -20 -7 -36 0 -22 5 -28 21 -28 17 0 20 5 17
32 -3 31 -17 45 -31 32z m23 -14 c0 -5 -5 -10 -11 -10 -5 0 -7 5 -4 10 3 6 8
10 11 10 2 0 4 -4 4 -10z m0 -30 c0 -5 -4 -10 -10 -10 -5 0 -10 5 -10 10 0 6
5 10 10 10 6 0 10 -4 10 -10z"/>
<path d="M12391 11774 c0 -11 3 -14 6 -6 3 7 2 16 -1 19 -3 4 -6 -2 -5 -13z"/>
<path d="M12070 11760 c19 -13 30 -13 30 0 0 6 -10 10 -22 10 -19 0 -20 -2 -8
-10z"/>
<path d="M9087 10683 c-4 -3 -7 -43 -7 -89 0 -87 4 -94 54 -94 39 0 63 26 69
75 7 63 0 83 -34 100 -29 16 -71 20 -82 8z m82 -47 c4 -11 6 -40 3 -64 -4 -37
-7 -43 -26 -40 -18 3 -21 10 -23 58 -1 30 0 61 2 67 6 18 35 4 44 -21z"/>
<path d="M10098 10653 c4 -21 7 -56 7 -78 0 -34 -3 -40 -22 -43 -28 -4 -39 31
-23 73 8 22 8 30 -2 36 -25 16 -39 -12 -36 -70 l3 -56 52 -3 c60 -4 61 -2 64
103 3 69 2 70 -24 73 -25 3 -26 2 -19 -35z"/>
<path d="M9800 10664 c0 -9 -8 -23 -17 -30 -17 -13 -17 -13 0 -14 15 0 16 -6
11 -42 -7 -43 -20 -61 -37 -51 -4 3 -7 30 -6 61 2 39 -1 57 -10 60 -19 6 -31
-17 -31 -58 0 -71 7 -80 61 -80 32 0 49 4 50 13 8 88 4 157 -8 157 -7 0 -13
-7 -13 -16z"/>
<path d="M9858 10640 c-4 -25 -3 -63 1 -85 6 -39 8 -40 46 -40 32 0 40 4 42
20 2 11 0 14 -3 8 -14 -31 -54 5 -54 48 0 27 2 29 26 23 39 -10 26 18 -14 30
-17 6 -33 17 -35 25 -1 9 -6 -4 -9 -29z"/>
<path d="M10700 10643 c-50 -19 -68 -84 -31 -117 24 -21 96 -19 96 3 0 10 -12
15 -39 15 -22 1 -41 6 -43 13 -3 7 3 9 16 6 11 -3 32 -2 46 1 32 8 34 49 3 70
-24 17 -25 17 -48 9z m34 -29 c25 -10 8 -24 -27 -24 -30 1 -31 1 -13 15 23 17
20 17 40 9z"/>
<path d="M9258 10633 c-14 -3 -18 -15 -18 -52 0 -54 12 -71 52 -71 30 0 31 1
19 73 -8 45 -7 48 13 45 16 -2 22 -11 24 -38 4 -57 12 -80 25 -80 15 0 17 95
4 118 -8 12 -81 15 -119 5z m19 -80 c-3 -10 -5 -4 -5 12 0 17 2 24 5 18 2 -7
2 -21 0 -30z"/>
<path d="M9416 10632 c-2 -4 -1 -32 2 -62 6 -51 9 -55 35 -58 25 -3 39 12 17
20 -16 5 -23 80 -8 89 19 12 28 0 28 -39 0 -37 14 -71 24 -61 9 8 10 94 2 107
-8 13 -92 17 -100 4z"/>
<path d="M9556 10624 c-6 -14 0 -103 9 -141 3 -13 10 -23 16 -23 6 0 9 9 6 20
-4 16 0 20 21 20 40 0 52 12 63 59 14 63 0 82 -61 80 -30 -1 -51 -7 -54 -15z
m74 -16 c0 -9 4 -8 11 2 9 12 9 11 4 -5 -5 -11 -10 -33 -13 -48 -3 -19 -10
-27 -21 -25 -18 4 -25 29 -17 64 7 25 36 34 36 12z"/>
<path d="M10170 10567 c0 -51 3 -68 13 -65 7 3 13 27 15 61 3 57 7 62 36 51
20 -8 21 -44 1 -44 -18 0 -18 -2 -3 -35 6 -14 19 -25 30 -25 16 0 18 9 18 65
l0 65 -55 -2 -55 -3 0 -68z"/>
<path d="M10319 10636 c-2 -2 -2 -32 -1 -65 3 -44 8 -61 18 -61 10 0 14 14 14
50 0 38 4 50 15 50 8 0 15 7 15 15 0 10 -10 15 -28 15 -16 0 -31 -2 -33 -4z"/>
<path d="M10394 10628 c-4 -6 -2 -14 4 -16 7 -2 12 -24 12 -53 0 -40 3 -49 18
-49 14 0 17 10 17 65 0 60 -2 65 -22 65 -12 0 -25 -5 -29 -12z"/>
<path d="M10490 10621 c-13 -25 -13 -118 0 -126 6 -4 7 -12 4 -18 -4 -7 -3 -8
2 -4 5 5 9 14 9 20 0 8 16 11 46 9 55 -4 67 7 69 68 3 73 5 70 -60 70 -48 0
-61 -4 -70 -19z m93 -13 c-2 -5 -3 -24 -3 -44 0 -31 -3 -35 -21 -32 -12 2 -27
11 -33 20 -15 24 11 70 38 66 12 -2 20 -6 19 -10z"/>
<path d="M9931 10574 c0 -11 3 -14 6 -6 3 7 2 16 -1 19 -3 4 -6 -2 -5 -13z"/>
<path d="M9842 10550 c0 -14 2 -19 5 -12 2 6 2 18 0 25 -3 6 -5 1 -5 -13z"/>
<path d="M9591 10274 c0 -11 3 -14 6 -6 3 7 2 16 -1 19 -3 4 -6 -2 -5 -13z"/>
<path d="M9632 10265 c0 -16 2 -22 5 -12 2 9 2 23 0 30 -3 6 -5 -1 -5 -18z"/>
<path d="M9662 10270 c0 -14 2 -19 5 -12 2 6 2 18 0 25 -3 6 -5 1 -5 -13z"/>
<path d="M9752 10270 c0 -14 2 -19 5 -12 2 6 2 18 0 25 -3 6 -5 1 -5 -13z"/>
<path d="M9782 10270 c0 -14 2 -19 5 -12 2 6 2 18 0 25 -3 6 -5 1 -5 -13z"/>
<path d="M9827 10269 c4 -13 8 -18 11 -10 2 7 -1 18 -6 23 -8 8 -9 4 -5 -13z"/>
<path d="M9862 10270 c0 -14 2 -19 5 -12 2 6 2 18 0 25 -3 6 -5 1 -5 -13z"/>
<path d="M9892 10270 c0 -14 2 -19 5 -12 2 6 2 18 0 25 -3 6 -5 1 -5 -13z"/>
<path d="M9922 10270 c0 -14 2 -19 5 -12 2 6 2 18 0 25 -3 6 -5 1 -5 -13z"/>
<path d="M9962 10270 c0 -14 2 -19 5 -12 2 6 2 18 0 25 -3 6 -5 1 -5 -13z"/>
<path d="M10032 10270 c0 -14 2 -19 5 -12 2 6 2 18 0 25 -3 6 -5 1 -5 -13z"/>
<path d="M10082 10270 c0 -14 2 -19 5 -12 2 6 2 18 0 25 -3 6 -5 1 -5 -13z"/>
<path d="M10162 10270 c0 -14 2 -19 5 -12 2 6 2 18 0 25 -3 6 -5 1 -5 -13z"/>
<path d="M10191 10274 c0 -11 3 -14 6 -6 3 7 2 16 -1 19 -3 4 -6 -2 -5 -13z"/>
<path d="M10212 10270 c0 -14 2 -19 5 -12 2 6 2 18 0 25 -3 6 -5 1 -5 -13z"/>
<path d="M10292 10270 c0 -14 2 -19 5 -12 2 6 2 18 0 25 -3 6 -5 1 -5 -13z"/>
<path d="M10322 10270 c0 -14 2 -19 5 -12 2 6 2 18 0 25 -3 6 -5 1 -5 -13z"/>
<path d="M10341 10274 c0 -11 3 -14 6 -6 3 7 2 16 -1 19 -3 4 -6 -2 -5 -13z"/>
<path d="M10372 10270 c0 -14 2 -19 5 -12 2 6 2 18 0 25 -3 6 -5 1 -5 -13z"/>
<path d="M10392 10270 c0 -14 2 -19 5 -12 2 6 2 18 0 25 -3 6 -5 1 -5 -13z"/>
<path d="M10422 10270 c0 -14 2 -19 5 -12 2 6 2 18 0 25 -3 6 -5 1 -5 -13z"/>
<path d="M10472 10270 c0 -14 2 -19 5 -12 2 6 2 18 0 25 -3 6 -5 1 -5 -13z"/>
<path d="M10502 10270 c0 -14 2 -19 5 -12 2 6 2 18 0 25 -3 6 -5 1 -5 -13z"/>
<path d="M10552 10270 c0 -14 2 -19 5 -12 2 6 2 18 0 25 -3 6 -5 1 -5 -13z"/>
<path d="M10582 10270 c0 -14 2 -19 5 -12 2 6 2 18 0 25 -3 6 -5 1 -5 -13z"/>
<path d="M10612 10270 c0 -14 2 -19 5 -12 2 6 2 18 0 25 -3 6 -5 1 -5 -13z"/>
<path d="M10637 10275 c-4 -8 -2 -17 3 -20 6 -4 10 3 10 14 0 25 -6 27 -13 6z"/>
<path d="M10662 10270 c0 -14 2 -19 5 -12 2 6 2 18 0 25 -3 6 -5 1 -5 -13z"/>
<path d="M10692 10270 c0 -14 2 -19 5 -12 2 6 2 18 0 25 -3 6 -5 1 -5 -13z"/>
<path d="M10722 10270 c0 -14 2 -19 5 -12 2 6 2 18 0 25 -3 6 -5 1 -5 -13z"/>
<path d="M10742 10270 c0 -14 2 -19 5 -12 2 6 2 18 0 25 -3 6 -5 1 -5 -13z"/>
<path d="M10772 10270 c0 -14 2 -19 5 -12 2 6 2 18 0 25 -3 6 -5 1 -5 -13z"/>
<path d="M10872 10270 c0 -14 2 -19 5 -12 2 6 2 18 0 25 -3 6 -5 1 -5 -13z"/>
<path d="M10902 10270 c0 -14 2 -19 5 -12 2 6 2 18 0 25 -3 6 -5 1 -5 -13z"/>
<path d="M10932 10270 c0 -14 2 -19 5 -12 2 6 2 18 0 25 -3 6 -5 1 -5 -13z"/>
<path d="M10962 10270 c0 -14 2 -19 5 -12 2 6 2 18 0 25 -3 6 -5 1 -5 -13z"/>
<path d="M10991 10274 c0 -11 3 -14 6 -6 3 7 2 16 -1 19 -3 4 -6 -2 -5 -13z"/>
<path d="M11013 10275 c-3 -9 -3 -18 -1 -21 3 -3 8 4 11 16 6 23 -1 27 -10 5z"/>
<path d="M11042 10270 c0 -14 2 -19 5 -12 2 6 2 18 0 25 -3 6 -5 1 -5 -13z"/>
<path d="M11072 10270 c0 -14 2 -19 5 -12 2 6 2 18 0 25 -3 6 -5 1 -5 -13z"/>
<path d="M11121 10274 c0 -11 3 -14 6 -6 3 7 2 16 -1 19 -3 4 -6 -2 -5 -13z"/>
<path d="M11151 10274 c0 -11 3 -14 6 -6 3 7 2 16 -1 19 -3 4 -6 -2 -5 -13z"/>
<path d="M11182 10270 c0 -14 2 -19 5 -12 2 6 2 18 0 25 -3 6 -5 1 -5 -13z"/>
<path d="M11211 10274 c0 -11 3 -14 6 -6 3 7 2 16 -1 19 -3 4 -6 -2 -5 -13z"/>
<path d="M11260 10279 c0 -5 5 -7 10 -4 6 3 10 8 10 11 0 2 -4 4 -10 4 -5 0
-10 -5 -10 -11z"/>
<path d="M11340 10281 c0 -6 4 -13 10 -16 6 -3 7 1 4 9 -7 18 -14 21 -14 7z"/>
<path d="M11370 10279 c0 -5 5 -7 10 -4 6 3 10 8 10 11 0 2 -4 4 -10 4 -5 0
-10 -5 -10 -11z"/>
<path d="M9681 10264 c0 -11 3 -14 6 -6 3 7 2 16 -1 19 -3 4 -6 -2 -5 -13z"/>
<path d="M9801 10264 c0 -11 3 -14 6 -6 3 7 2 16 -1 19 -3 4 -6 -2 -5 -13z"/>
<path d="M9941 10264 c0 -11 3 -14 6 -6 3 7 2 16 -1 19 -3 4 -6 -2 -5 -13z"/>
<path d="M10821 10264 c0 -11 3 -14 6 -6 3 7 2 16 -1 19 -3 4 -6 -2 -5 -13z"/>
<path d="M11291 10264 c0 -11 3 -14 6 -6 3 7 2 16 -1 19 -3 4 -6 -2 -5 -13z"/>
<path d="M9741 10144 c0 -11 3 -14 6 -6 3 7 2 16 -1 19 -3 4 -6 -2 -5 -13z"/>
<path d="M9792 10140 c0 -14 2 -19 5 -12 2 6 2 18 0 25 -3 6 -5 1 -5 -13z"/>
<path d="M9851 10144 c0 -11 3 -14 6 -6 3 7 2 16 -1 19 -3 4 -6 -2 -5 -13z"/>
<path d="M9882 10140 c0 -14 2 -19 5 -12 2 6 2 18 0 25 -3 6 -5 1 -5 -13z"/>
<path d="M9946 10145 c4 -8 8 -15 10 -15 2 0 4 7 4 15 0 8 -4 15 -10 15 -5 0
-7 -7 -4 -15z"/>
<path d="M9981 10144 c0 -11 3 -14 6 -6 3 7 2 16 -1 19 -3 4 -6 -2 -5 -13z"/>
<path d="M10111 10144 c0 -11 3 -14 6 -6 3 7 2 16 -1 19 -3 4 -6 -2 -5 -13z"/>
<path d="M10162 10140 c0 -14 2 -19 5 -12 2 6 2 18 0 25 -3 6 -5 1 -5 -13z"/>
<path d="M10192 10140 c0 -14 2 -19 5 -12 2 6 2 18 0 25 -3 6 -5 1 -5 -13z"/>
<path d="M10222 10140 c0 -14 2 -19 5 -12 2 6 2 18 0 25 -3 6 -5 1 -5 -13z"/>
<path d="M10242 10140 c0 -14 2 -19 5 -12 2 6 2 18 0 25 -3 6 -5 1 -5 -13z"/>
<path d="M10270 10140 c0 -11 4 -20 9 -20 5 0 7 9 4 20 -3 11 -7 20 -9 20 -2
0 -4 -9 -4 -20z"/>
<path d="M10301 10144 c0 -11 3 -14 6 -6 3 7 2 16 -1 19 -3 4 -6 -2 -5 -13z"/>
<path d="M10324 10149 c-3 -6 -2 -15 3 -20 5 -5 9 -1 9 11 0 23 -2 24 -12 9z"/>
<path d="M10350 10140 c0 -11 4 -20 9 -20 5 0 7 9 4 20 -3 11 -7 20 -9 20 -2
0 -4 -9 -4 -20z"/>
<path d="M10376 10145 c4 -8 8 -15 10 -15 2 0 4 7 4 15 0 8 -4 15 -10 15 -5 0
-7 -7 -4 -15z"/>
<path d="M10401 10144 c0 -11 3 -14 6 -6 3 7 2 16 -1 19 -3 4 -6 -2 -5 -13z"/>
<path d="M10432 10140 c0 -14 2 -19 5 -12 2 6 2 18 0 25 -3 6 -5 1 -5 -13z"/>
<path d="M10482 10140 c0 -14 2 -19 5 -12 2 6 2 18 0 25 -3 6 -5 1 -5 -13z"/>
<path d="M10510 10140 c0 -11 4 -20 9 -20 5 0 7 9 4 20 -3 11 -7 20 -9 20 -2
0 -4 -9 -4 -20z"/>
<path d="M10593 10140 c1 -11 5 -20 9 -20 4 0 8 9 8 20 0 11 -4 20 -9 20 -6 0
-9 -9 -8 -20z"/>
<path d="M10632 10140 c0 -14 2 -19 5 -12 2 6 2 18 0 25 -3 6 -5 1 -5 -13z"/>
<path d="M10672 10140 c0 -14 2 -19 5 -12 2 6 2 18 0 25 -3 6 -5 1 -5 -13z"/>
<path d="M10695 10150 c3 -5 8 -10 11 -10 2 0 4 5 4 10 0 6 -5 10 -11 10 -5 0
-7 -4 -4 -10z"/>
<path d="M10722 10140 c0 -14 2 -19 5 -12 2 6 2 18 0 25 -3 6 -5 1 -5 -13z"/>
<path d="M10752 10140 c0 -14 2 -19 5 -12 2 6 2 18 0 25 -3 6 -5 1 -5 -13z"/>
<path d="M10785 10150 c3 -5 8 -10 11 -10 2 0 4 5 4 10 0 6 -5 10 -11 10 -5 0
-7 -4 -4 -10z"/>
<path d="M10842 10140 c0 -14 2 -19 5 -12 2 6 2 18 0 25 -3 6 -5 1 -5 -13z"/>
<path d="M10872 10140 c0 -14 2 -19 5 -12 2 6 2 18 0 25 -3 6 -5 1 -5 -13z"/>
<path d="M8227 7917 c-23 -16 -13 -73 14 -80 31 -8 53 16 45 49 -11 42 -30 53
-59 31z m33 -17 c12 -6 16 -17 13 -30 -10 -37 -43 -18 -43 26 0 17 5 17 30 4z"/>
<path d="M9011 7921 c-15 -10 -8 -41 8 -41 6 0 8 7 4 16 -4 12 -2 15 8 12 19
-6 24 -37 9 -52 -9 -8 -14 -8 -17 2 -6 16 -23 15 -23 -2 0 -14 37 -29 52 -20
15 10 9 81 -8 88 -19 7 -16 8 -33 -3z"/>
<path d="M8838 7912 c-10 -2 -18 -10 -18 -19 0 -13 3 -13 15 -3 21 18 26 9 16
-26 -5 -16 -10 -23 -10 -16 -1 18 -21 15 -21 -4 0 -11 8 -14 26 -12 23 3 27 8
29 40 2 38 -7 47 -37 40z"/>
<path d="M8310 7876 c0 -35 13 -55 25 -36 3 5 2 10 -2 10 -5 0 -9 9 -10 20 -1
11 2 20 8 20 5 0 9 5 9 10 0 6 -7 10 -15 10 -10 0 -15 -10 -15 -34z"/>
<path d="M8360 7873 c0 -20 3 -34 6 -30 9 9 11 67 2 67 -4 0 -8 -16 -8 -37z"/>
<path d="M8390 7901 c0 -6 5 -13 10 -16 6 -3 10 1 10 9 0 9 -4 16 -10 16 -5 0
-10 -4 -10 -9z"/>
<path d="M8430 7869 c0 -24 4 -38 10 -34 6 3 10 22 10 41 0 19 -4 34 -10 34
-5 0 -10 -18 -10 -41z"/>
<path d="M8468 7887 c-5 -25 0 -47 10 -47 4 0 7 16 8 35 1 39 -11 47 -18 12z"/>
<path d="M8507 7873 c7 -52 13 -54 13 -5 0 23 -4 42 -9 42 -5 0 -7 -17 -4 -37z"/>
<path d="M8547 7873 c8 -51 13 -54 13 -9 0 22 4 35 10 31 6 -3 10 -1 10 4 0 6
-9 11 -19 11 -17 0 -19 -5 -14 -37z"/>
<path d="M8596 7895 c-3 -9 -6 -29 -6 -43 0 -21 2 -24 10 -12 9 13 11 13 20 0
14 -22 32 1 28 36 -3 33 -41 47 -52 19z m42 -19 c3 -12 -1 -17 -10 -14 -7 3
-15 13 -16 22 -3 12 1 17 10 14 7 -3 15 -13 16 -22z"/>
<path d="M8670 7870 c0 -22 5 -40 10 -40 6 0 10 18 10 40 0 22 -4 40 -10 40
-5 0 -10 -18 -10 -40z"/>
<path d="M8707 7888 c-9 -31 10 -60 36 -56 18 2 22 10 24 41 0 23 -4 37 -11
37 -8 0 -11 -12 -8 -36 3 -28 1 -35 -9 -32 -8 3 -13 18 -13 37 2 35 -11 42
-19 9z"/>
<path d="M8790 7876 c0 -49 15 -53 16 -5 1 21 -2 39 -7 39 -5 0 -9 -15 -9 -34z"/>
<path d="M9078 7904 c-5 -4 -8 -21 -8 -38 0 -21 3 -27 11 -19 6 6 9 23 7 38
-2 15 -6 23 -10 19z"/>
<path d="M9104 7896 c-3 -8 -4 -25 -2 -38 4 -32 61 -34 66 -2 6 39 -51 74 -64
40z m44 -32 c-5 -28 -28 -29 -28 -1 0 13 3 27 7 30 10 11 25 -9 21 -29z"/>
<path d="M9178 7904 c6 -3 12 -21 12 -40 0 -20 4 -33 9 -30 4 3 8 20 7 38 -1
25 -6 33 -21 35 -11 2 -14 0 -7 -3z"/>
<path d="M9220 7875 c0 -19 4 -35 8 -35 4 0 6 16 4 35 -2 19 -6 35 -8 35 -2 0
-4 -16 -4 -35z"/>
<path d="M9253 7888 c4 -12 7 -31 7 -41 0 -10 4 -15 10 -12 5 3 6 20 3 38 -6
30 -5 31 12 17 16 -13 18 -13 13 0 -2 8 -15 17 -28 18 -20 3 -22 0 -17 -20z"/>
<path d="M9310 7870 c0 -22 5 -40 10 -40 6 0 10 18 10 40 0 22 -4 40 -10 40
-5 0 -10 -18 -10 -40z"/>
<path d="M9348 7875 c2 -19 9 -35 14 -35 6 0 7 7 4 16 -3 9 -6 24 -6 35 0 10
-4 19 -8 19 -4 0 -6 -16 -4 -35z"/>
<path d="M9390 7870 c0 -22 5 -40 10 -40 6 0 10 18 10 40 0 22 -4 40 -10 40
-5 0 -10 -18 -10 -40z"/>
<path d="M9430 7876 c0 -49 15 -53 16 -5 1 21 -2 39 -7 39 -5 0 -9 -15 -9 -34z"/>
<path d="M9463 7870 c2 -52 17 -52 17 0 0 22 -4 40 -9 40 -5 0 -8 -18 -8 -40z"/>
<path d="M9507 7878 c8 -43 13 -48 13 -15 0 15 0 30 1 34 0 4 -4 9 -10 11 -7
2 -9 -8 -4 -30z"/>
<path d="M9548 7893 c-4 -16 7 -75 12 -63 1 3 3 22 4 43 3 38 -8 51 -16 20z"/>
<path d="M9580 7876 c0 -19 5 -38 10 -41 6 -4 10 8 10 29 0 20 5 36 10 36 6 0
10 -17 10 -37 0 -26 3 -34 11 -26 6 6 9 23 7 39 -2 23 -9 30 -30 32 -26 3 -28
1 -28 -32z"/>
<path d="M9660 7900 c0 -5 6 -10 13 -10 7 -1 5 -6 -6 -14 -19 -15 -13 -46 9
-46 17 0 18 16 2 24 -10 5 -10 7 0 12 17 8 15 44 -3 44 -8 0 -15 -4 -15 -10z"/>
<path d="M8390 7856 c0 -9 5 -16 10 -16 6 0 10 4 10 9 0 6 -4 13 -10 16 -5 3
-10 -1 -10 -9z"/>
<path d="M8234 7409 c-4 -7 -3 -9 4 -5 5 3 13 0 15 -6 4 -9 6 -10 6 -1 1 17
-16 25 -25 12z"/>
<path d="M8275 7411 c-3 -5 -1 -12 5 -16 5 -3 10 1 10 9 0 18 -6 21 -15 7z"/>
<path d="M8300 7413 c0 -4 5 -15 10 -23 8 -13 10 -13 10 2 0 9 -4 20 -10 23
-5 3 -10 3 -10 -2z"/>
<path d="M8400 7406 c0 -9 5 -16 10 -16 6 0 10 4 10 9 0 6 -4 13 -10 16 -5 3
-10 -1 -10 -9z"/>
<path d="M8622 7400 c0 -14 2 -19 5 -12 2 6 2 18 0 25 -3 6 -5 1 -5 -13z"/>
<path d="M8932 7400 c0 -14 2 -19 5 -12 2 6 2 18 0 25 -3 6 -5 1 -5 -13z"/>
<path d="M9242 7400 c0 -14 2 -19 5 -12 2 6 2 18 0 25 -3 6 -5 1 -5 -13z"/>
<path d="M9737 7399 c4 -13 8 -18 11 -10 2 7 -1 18 -6 23 -8 8 -9 4 -5 -13z"/>
<path d="M9791 7404 c0 -11 3 -14 6 -6 3 7 2 16 -1 19 -3 4 -6 -2 -5 -13z"/>
<path d="M8370 7394 c0 -8 5 -12 10 -9 6 3 10 10 10 16 0 5 -4 9 -10 9 -5 0
-10 -7 -10 -16z"/>
<path d="M8541 7394 c0 -11 3 -14 6 -6 3 7 2 16 -1 19 -3 4 -6 -2 -5 -13z"/>
<path d="M8565 7400 c3 -5 8 -10 11 -10 2 0 4 5 4 10 0 6 -5 10 -11 10 -5 0
-7 -4 -4 -10z"/>
<path d="M8671 7394 c0 -11 3 -14 6 -6 3 7 2 16 -1 19 -3 4 -6 -2 -5 -13z"/>
<path d="M8705 7400 c3 -5 8 -10 11 -10 2 0 4 5 4 10 0 6 -5 10 -11 10 -5 0
-7 -4 -4 -10z"/>
<path d="M8741 7394 c0 -11 3 -14 6 -6 3 7 2 16 -1 19 -3 4 -6 -2 -5 -13z"/>
<path d="M8770 7395 c0 -8 4 -15 8 -15 5 0 9 7 9 15 0 8 -4 15 -9 15 -4 0 -8
-7 -8 -15z"/>
<path d="M8801 7394 c0 -11 3 -14 6 -6 3 7 2 16 -1 19 -3 4 -6 -2 -5 -13z"/>
<path d="M8830 7401 c0 -6 4 -12 8 -15 5 -3 9 1 9 9 0 8 -4 15 -9 15 -4 0 -8
-4 -8 -9z"/>
<path d="M8861 7394 c0 -11 3 -14 6 -6 3 7 2 16 -1 19 -3 4 -6 -2 -5 -13z"/>
<path d="M8901 7394 c0 -11 3 -14 6 -6 3 7 2 16 -1 19 -3 4 -6 -2 -5 -13z"/>
<path d="M8996 7395 c4 -8 8 -15 10 -15 2 0 4 7 4 15 0 8 -4 15 -10 15 -5 0
-7 -7 -4 -15z"/>
<path d="M9211 7394 c0 -11 3 -14 6 -6 3 7 2 16 -1 19 -3 4 -6 -2 -5 -13z"/>
<path d="M9320 7405 c0 -2 7 -8 15 -15 12 -10 15 -10 15 2 0 8 -7 15 -15 15
-8 0 -15 -1 -15 -2z"/>
<path d="M9360 7401 c0 -6 4 -13 10 -16 6 -3 7 1 4 9 -7 18 -14 21 -14 7z"/>
<path d="M9391 7394 c0 -11 3 -14 6 -6 3 7 2 16 -1 19 -3 4 -6 -2 -5 -13z"/>
<path d="M9421 7394 c0 -11 3 -14 6 -6 3 7 2 16 -1 19 -3 4 -6 -2 -5 -13z"/>
<path d="M9470 7395 c0 -8 2 -15 4 -15 2 0 6 7 10 15 3 8 1 15 -4 15 -6 0 -10
-7 -10 -15z"/>
<path d="M9501 7394 c0 -11 3 -14 6 -6 3 7 2 16 -1 19 -3 4 -6 -2 -5 -13z"/>
<path d="M9551 7394 c0 -11 3 -14 6 -6 3 7 2 16 -1 19 -3 4 -6 -2 -5 -13z"/>
<path d="M9601 7394 c0 -11 3 -14 6 -6 3 7 2 16 -1 19 -3 4 -6 -2 -5 -13z"/>
<path d="M9631 7394 c0 -11 3 -14 6 -6 3 7 2 16 -1 19 -3 4 -6 -2 -5 -13z"/>
<path d="M9661 7394 c0 -11 3 -14 6 -6 3 7 2 16 -1 19 -3 4 -6 -2 -5 -13z"/>
<path d="M9680 7395 c0 -8 2 -15 4 -15 2 0 6 7 10 15 3 8 1 15 -4 15 -6 0 -10
-7 -10 -15z"/>
<path d="M9711 7394 c0 -11 3 -14 6 -6 3 7 2 16 -1 19 -3 4 -6 -2 -5 -13z"/>
</g>
</svg>
